<?xml version="1.0" encoding="iso-8859-1"?>
<!-- Generator: Adobe Illustrator 19.0.0, SVG Export Plug-In . SVG Version: 6.00 Build 0)  -->
<svg version="1.1" id="Layer_1" xmlns="http://www.w3.org/2000/svg" xmlns:xlink="http://www.w3.org/1999/xlink" x="0px" y="0px"
	 viewBox="0 0 512 512" style="enable-background:new 0 0 512 512;" xml:space="preserve">
<path style="fill:#625D6B;" d="M140.999,233.931h17.655v-45.649c0-7.026-2.791-13.763-7.758-18.731l-4.534-4.534
	c-1.952-1.952-5.117-1.952-7.069,0l-5.414,5.414c-1.952,1.952-1.952,5.117,0,7.069l4.534,4.534c1.656,1.656,2.586,3.902,2.586,6.243
	v45.654H140.999z"/>
<polygon style="fill:#504B5A;" points="203.034,154.483 264.828,154.483 300.138,269.241 203.034,269.241 "/>
<path style="fill:#FFDC5A;" d="M176.552,269.241v-52.965c0-4.875-3.953-8.828-8.828-8.828H26.483c-4.875,0-8.828,3.953-8.828,8.828
	v105.931h282.483v-52.966H176.552z"/>
<path style="fill:#8D8A94;" d="M300.138,251.586h35.31v70.621h-35.31c-4.875,0-8.828-3.953-8.828-8.828v-52.966
	C291.31,255.539,295.263,251.586,300.138,251.586z"/>
<path style="fill:#736F7B;" d="M308.966,322.207h-30.897c-2.438,0-4.414-1.976-4.414-4.414v-8.828c0-2.438,1.976-4.414,4.414-4.414
	h30.897V322.207z"/>
<path style="fill:#FFC84B;" d="M215.936,260.414c-14.681-21.869-39.267-35.31-65.867-35.31c-37.735,0-69.344,26.467-77.402,61.793
	H8.828c-4.875,0-8.828,3.953-8.828,8.828v17.655c0,4.875,3.953,8.828,8.828,8.828h194.207v-35.31h61.793
	c4.875,0,8.828-3.953,8.828-8.828v-8.828c0-4.875-3.953-8.828-8.828-8.828H215.936z"/>
<circle style="fill:#504B5A;" cx="388.414" cy="304.552" r="61.793"/>
<circle style="fill:#FFDC5A;" cx="388.414" cy="304.552" r="35.31"/>
<circle style="fill:#FFC84B;" cx="388.414" cy="304.552" r="17.655"/>
<circle style="fill:#504B5A;" cx="150.069" cy="304.552" r="61.793"/>
<circle style="fill:#FFDC5A;" cx="150.069" cy="304.552" r="35.31"/>
<circle style="fill:#FFC84B;" cx="150.069" cy="304.552" r="17.655"/>
<polygon style="fill:#8D8A94;" points="464.276,270.004 384.828,305.314 392,321.443 471.448,286.133 "/>
<path style="fill:#FFC84B;" d="M467.862,304.552H326.621c0-34.073,27.72-61.793,61.793-61.793c4.875,0,8.828-3.953,8.828-8.828
	s-3.953-8.828-8.828-8.828c-43.806,0-79.448,35.642-79.448,79.448c-4.875,0-8.828,3.953-8.828,8.828v8.828
	c0,4.875,3.953,8.828,8.828,8.828h158.897c4.875,0,8.828-3.953,8.828-8.828v-8.828C476.69,308.504,472.737,304.552,467.862,304.552z
	"/>
<g>
	<path style="fill:#FFDC5A;" d="M494.345,331.034v-52.966c0-4.875-3.953-8.828-8.828-8.828h-17.655
		c-4.875,0-8.828,3.953-8.828,8.828v61.793c0,4.875,3.953,8.828,8.828,8.828h35.31c4.875,0,8.828-3.953,8.828-8.828l0,0
		c0-4.875-3.953-8.828-8.828-8.828H494.345z"/>
	<path style="fill:#FFDC5A;" d="M273.655,163.31h-70.621c-4.875,0-8.828-3.953-8.828-8.828l0,0c0-4.875,3.953-8.828,8.828-8.828
		h70.621c4.875,0,8.828,3.953,8.828,8.828l0,0C282.483,159.358,278.53,163.31,273.655,163.31z"/>
</g>
<path style="fill:#625D6B;" d="M254.912,172.138h-25.395c-4.875,0-8.828,3.953-8.828,8.828v61.793c0,4.875,3.953,8.828,8.828,8.828
	h44.408c5.939,0,10.184-5.747,8.437-11.424l-19.014-61.793C262.209,174.665,258.787,172.138,254.912,172.138z"/>
<g>
	<path style="fill:#FFC84B;" d="M35.31,269.241L35.31,269.241c-4.875,0-8.828-3.953-8.828-8.828v-26.483
		c0-4.875,3.953-8.828,8.828-8.828l0,0c4.875,0,8.828,3.953,8.828,8.828v26.483C44.138,265.289,40.185,269.241,35.31,269.241z"/>
	<path style="fill:#FFC84B;" d="M61.793,269.241L61.793,269.241c-4.875,0-8.828-3.953-8.828-8.828v-26.483
		c0-4.875,3.953-8.828,8.828-8.828l0,0c4.875,0,8.828,3.953,8.828,8.828v26.483C70.621,265.289,66.668,269.241,61.793,269.241z"/>
</g>
<g>
</g>
<g>
</g>
<g>
</g>
<g>
</g>
<g>
</g>
<g>
</g>
<g>
</g>
<g>
</g>
<g>
</g>
<g>
</g>
<g>
</g>
<g>
</g>
<g>
</g>
<g>
</g>
<g>
</g>
</svg>
