<?xml version="1.0" encoding="iso-8859-1"?>
<!-- Generator: Adobe Illustrator 19.0.0, SVG Export Plug-In . SVG Version: 6.00 Build 0)  -->
<svg version="1.1" id="Layer_1" xmlns="http://www.w3.org/2000/svg" xmlns:xlink="http://www.w3.org/1999/xlink" x="0px" y="0px"
	 viewBox="0 0 512 512" style="enable-background:new 0 0 512 512;" xml:space="preserve">
<path style="fill:#736F7B;" d="M105.931,216.276h17.655v-45.649c0-7.026-2.791-13.763-7.758-18.731l-4.534-4.534
	c-1.952-1.952-5.117-1.952-7.069,0l-5.414,5.414c-1.952,1.952-1.952,5.117,0,7.069l4.534,4.534c1.656,1.656,2.586,3.902,2.586,6.243
	v45.654H105.931z"/>
<g>
	<rect x="61.793" y="269.241" style="fill:#504B5A;" width="35.31" height="35.31"/>
	<rect x="414.897" y="269.241" style="fill:#504B5A;" width="35.31" height="35.31"/>
</g>
<path style="fill:#FFDC5A;" d="M317.793,401.655H194.207c-4.875,0-8.828-3.953-8.828-8.828v-79.448h141.241v79.448
	C326.621,397.703,322.668,401.655,317.793,401.655z"/>
<rect x="220.69" y="322.207" style="fill:#FFC84B;" width="70.621" height="70.621"/>
<circle style="fill:#8D8A94;" cx="79.448" cy="384" r="79.448"/>
<circle style="fill:#625D6B;" cx="79.448" cy="384" r="61.793"/>
<circle style="fill:#736F7B;" cx="79.448" cy="384" r="26.483"/>
<path style="fill:#FFDC5A;" d="M53.937,305.43l7.062,70.621c0.451,4.513,4.248,7.949,8.783,7.949h19.332
	c4.535,0,8.332-3.436,8.783-7.949l7.062-70.621c0.52-5.196-3.561-9.706-8.783-9.706H62.72
	C57.497,295.724,53.417,300.233,53.937,305.43z"/>
<circle style="fill:#625D6B;" cx="79.448" cy="384" r="13.241"/>
<circle style="fill:#8D8A94;" cx="432.552" cy="384" r="79.448"/>
<circle style="fill:#625D6B;" cx="432.552" cy="384" r="61.793"/>
<circle style="fill:#736F7B;" cx="432.552" cy="384" r="26.483"/>
<path style="fill:#FFDC5A;" d="M407.039,305.43l7.062,70.621c0.451,4.513,4.248,7.949,8.783,7.949h19.332
	c4.535,0,8.332-3.436,8.783-7.949l7.062-70.621c0.52-5.196-3.561-9.706-8.783-9.706h-33.457
	C410.601,295.724,406.519,300.233,407.039,305.43z"/>
<circle style="fill:#625D6B;" cx="432.552" cy="384" r="13.241"/>
<path style="fill:#FFC84B;" d="M388.414,278.069H123.586l27.554,27.554c4.967,4.967,11.702,7.756,18.727,7.756h172.268
	c7.023,0,13.76-2.791,18.727-7.756L388.414,278.069z"/>
<g>
	<path style="fill:#736F7B;" d="M282.483,331.034h-52.966c-4.875,0-8.828-3.953-8.828-8.828l0,0c0-4.875,3.953-8.828,8.828-8.828
		h52.966c4.875,0,8.828,3.953,8.828,8.828l0,0C291.31,327.082,287.358,331.034,282.483,331.034z"/>
	<path style="fill:#736F7B;" d="M282.483,366.345h-52.966c-4.875,0-8.828-3.953-8.828-8.828l0,0c0-4.875,3.953-8.828,8.828-8.828
		h52.966c4.875,0,8.828,3.953,8.828,8.828l0,0C291.31,362.392,287.358,366.345,282.483,366.345z"/>
	<path style="fill:#736F7B;" d="M282.483,401.655h-52.966c-4.875,0-8.828-3.953-8.828-8.828l0,0c0-4.875,3.953-8.828,8.828-8.828
		h52.966c4.875,0,8.828,3.953,8.828,8.828l0,0C291.31,397.703,287.358,401.655,282.483,401.655z"/>
</g>
<path style="fill:#FFDC5A;" d="M504.203,224.185l-142.272-16.737l0,0H150.069l0,0L7.796,224.185C3.35,224.708,0,228.477,0,232.953
	v36.288c0,4.875,3.953,8.828,8.828,8.828h494.345c4.875,0,8.828-3.953,8.828-8.828v-36.288
	C512,228.477,508.65,224.708,504.203,224.185z"/>
<path style="fill:#504B5A;" d="M150.069,207.448l21.34,35.566c3.191,5.318,8.938,8.572,15.139,8.572h138.904
	c6.201,0,11.948-3.254,15.139-8.572l21.34-35.566c0,0-15.737-150.456-16.696-150.263s-178.47,0-178.47,0L150.069,207.448z"/>
<g>
	<path style="fill:#625D6B;" d="M344.276,66.207H167.724c-4.875,0-8.828-3.953-8.828-8.828l0,0c0-4.875,3.953-8.828,8.828-8.828
		h176.552c4.875,0,8.828,3.953,8.828,8.828l0,0C353.103,62.254,349.151,66.207,344.276,66.207z"/>
	<path style="fill:#625D6B;" d="M247.172,198.621h95.151c5.241,0,9.331-4.521,8.781-9.732
		c-3.884-36.845-8.514-79.987-11.486-106.093c-0.508-4.461-4.275-7.761-8.765-7.761h-83.682c-4.875,0-8.828,3.953-8.828,8.828
		v105.931C238.345,194.668,242.297,198.621,247.172,198.621z"/>
	<path style="fill:#625D6B;" d="M211.862,75.034h-30.297c-4.498,0-8.277,3.382-8.774,7.853l-11.77,105.931
		c-0.582,5.229,3.512,9.802,8.774,9.802h42.068c4.875,0,8.828-3.953,8.828-8.828V83.862
		C220.69,78.987,216.737,75.034,211.862,75.034z"/>
	<path style="fill:#625D6B;" d="M246.307,214.546l11.667,23.332c1.495,2.99,4.552,4.879,7.895,4.879h59.583
		c3.101,0,5.974-1.626,7.57-4.286l13.802-23.004c2.119-3.53-0.425-8.022-4.542-8.022h-91.587
		C247.049,207.448,244.676,211.285,246.307,214.546z"/>
</g>
<g>
</g>
<g>
</g>
<g>
</g>
<g>
</g>
<g>
</g>
<g>
</g>
<g>
</g>
<g>
</g>
<g>
</g>
<g>
</g>
<g>
</g>
<g>
</g>
<g>
</g>
<g>
</g>
<g>
</g>
</svg>
