<?xml version="1.0" encoding="iso-8859-1"?>
<!-- Generator: Adobe Illustrator 19.0.0, SVG Export Plug-In . SVG Version: 6.00 Build 0)  -->
<svg version="1.1" id="Layer_1" xmlns="http://www.w3.org/2000/svg" xmlns:xlink="http://www.w3.org/1999/xlink" x="0px" y="0px"
	 viewBox="0 0 512 512" style="enable-background:new 0 0 512 512;" xml:space="preserve">
<path style="fill:#736F7B;" d="M485.517,370.759H26.483c-4.875,0-8.828-3.953-8.828-8.828v-8.828c0-4.875,3.953-8.828,8.828-8.828
	h459.034c4.875,0,8.828,3.953,8.828,8.828v8.828C494.345,366.806,490.392,370.759,485.517,370.759z"/>
<path style="fill:#FFDC5A;" d="M512,256H0V61.793c0-4.875,3.953-8.828,8.828-8.828h494.345c4.875,0,8.828,3.953,8.828,8.828V256z"/>
<path style="fill:#625D6B;" d="M503.172,344.276H8.828c-4.875,0-8.828-3.953-8.828-8.828V256h512v79.448
	C512,340.323,508.047,344.276,503.172,344.276z"/>
<polygon style="fill:#504B5A;" points="432.552,344.276 79.448,344.276 132.414,291.31 379.586,291.31 "/>
<circle style="fill:#625D6B;" cx="176.552" cy="388.414" r="70.621"/>
<circle style="fill:#CAC9CD;" cx="176.552" cy="388.414" r="44.138"/>
<circle style="fill:#DCDBDE;" cx="176.552" cy="388.414" r="26.483"/>
<circle style="fill:#625D6B;" cx="335.448" cy="388.414" r="70.621"/>
<circle style="fill:#CAC9CD;" cx="335.448" cy="388.414" r="44.138"/>
<circle style="fill:#DCDBDE;" cx="335.448" cy="388.414" r="26.483"/>
<path style="fill:#B9B7BD;" d="M425.853,358.845l-47.681-55.629c-1.681-1.956-4.12-3.078-6.707-3.078H140.534
	c-2.586,0-5.026,1.121-6.698,3.078l-47.69,55.629L72.75,347.362l47.681-55.629c5.035-5.879,12.362-9.25,20.104-9.25h230.93
	c7.742,0,15.069,3.371,20.113,9.25l47.672,55.629L425.853,358.845z"/>
<g>
	<path style="fill:#FFC84B;" d="M132.414,229.517H35.31c-4.875,0-8.828-3.953-8.828-8.828V88.276c0-4.875,3.953-8.828,8.828-8.828
		h97.103c4.875,0,8.828,3.953,8.828,8.828V220.69C141.241,225.565,137.289,229.517,132.414,229.517z"/>
	<path style="fill:#FFC84B;" d="M344.276,229.517H176.552c-4.875,0-8.828-3.953-8.828-8.828V88.276c0-4.875,3.953-8.828,8.828-8.828
		h167.724c4.875,0,8.828,3.953,8.828,8.828V220.69C353.103,225.565,349.151,229.517,344.276,229.517z"/>
</g>
<path style="fill:#736F7B;" d="M132.414,229.517H35.31c-4.875,0-8.828-3.953-8.828-8.828v-26.483c0-4.875,3.953-8.828,8.828-8.828
	h97.103c4.875,0,8.828,3.953,8.828,8.828v26.483C141.241,225.565,137.289,229.517,132.414,229.517z"/>
<path style="fill:#B9B7BD;" d="M114.759,150.069H52.966c-4.875,0-8.828-3.953-8.828-8.828v-35.31c0-4.875,3.953-8.828,8.828-8.828
	h61.793c4.875,0,8.828,3.953,8.828,8.828v35.31C123.586,146.116,119.634,150.069,114.759,150.069z"/>
<path style="fill:#8D8A94;" d="M203.034,167.724h-35.31c-4.875,0-8.828-3.953-8.828-8.828v-8.828c0-4.875,3.953-8.828,8.828-8.828
	h35.31c4.875,0,8.828,3.953,8.828,8.828v8.828C211.862,163.772,207.91,167.724,203.034,167.724z"/>
<g>
	<path style="fill:#736F7B;" d="M423.724,105.931h52.966c4.875,0,8.828-3.953,8.828-8.828l0,0c0-4.875-3.953-8.828-8.828-8.828
		h-52.966c-4.875,0-8.828,3.953-8.828,8.828l0,0C414.897,101.978,418.848,105.931,423.724,105.931z"/>
	<path style="fill:#736F7B;" d="M423.724,158.897h52.966c4.875,0,8.828-3.953,8.828-8.828l0,0c0-4.875-3.953-8.828-8.828-8.828
		h-52.966c-4.875,0-8.828,3.953-8.828,8.828l0,0C414.897,154.944,418.848,158.897,423.724,158.897z"/>
	<path style="fill:#736F7B;" d="M423.724,211.862h52.966c4.875,0,8.828-3.953,8.828-8.828l0,0c0-4.875-3.953-8.828-8.828-8.828
		h-52.966c-4.875,0-8.828,3.953-8.828,8.828l0,0C414.897,207.91,418.848,211.862,423.724,211.862z"/>
	<path style="fill:#736F7B;" d="M423.724,132.414h52.966c4.875,0,8.828-3.953,8.828-8.828l0,0c0-4.875-3.953-8.828-8.828-8.828
		h-52.966c-4.875,0-8.828,3.953-8.828,8.828l0,0C414.897,128.461,418.848,132.414,423.724,132.414z"/>
	<path style="fill:#736F7B;" d="M423.724,185.379h52.966c4.875,0,8.828-3.953,8.828-8.828l0,0c0-4.875-3.953-8.828-8.828-8.828
		h-52.966c-4.875,0-8.828,3.953-8.828,8.828l0,0C414.897,181.427,418.848,185.379,423.724,185.379z"/>
</g>
<g>
</g>
<g>
</g>
<g>
</g>
<g>
</g>
<g>
</g>
<g>
</g>
<g>
</g>
<g>
</g>
<g>
</g>
<g>
</g>
<g>
</g>
<g>
</g>
<g>
</g>
<g>
</g>
<g>
</g>
</svg>
