<?xml version="1.0" encoding="iso-8859-1"?>
<!-- Generator: Adobe Illustrator 19.0.0, SVG Export Plug-In . SVG Version: 6.00 Build 0)  -->
<svg version="1.1" id="Layer_1" xmlns="http://www.w3.org/2000/svg" xmlns:xlink="http://www.w3.org/1999/xlink" x="0px" y="0px"
	 viewBox="0 0 512 512" style="enable-background:new 0 0 512 512;" xml:space="preserve">
<g>
	<path style="fill:#8D8A94;" d="M459.034,370.759h-8.828c-7.302,0-13.241-5.94-13.241-13.241v-35.31h8.828v35.31
		c0,2.435,1.978,4.414,4.414,4.414h8.828V370.759z"/>
	
		<rect x="397.264" y="254.682" transform="matrix(-0.4855 -0.8742 0.8742 -0.4855 334.3228 796.9899)" style="fill:#8D8A94;" width="8.825" height="90.877"/>
	
		<rect x="300.125" y="313.217" transform="matrix(-0.537 -0.8436 0.8436 -0.537 155.2985 826.772)" style="fill:#8D8A94;" width="8.828" height="115.102"/>
</g>
<path style="fill:#FFDC5A;" d="M441.379,331.034c-4.879,0-8.828-3.948-8.828-8.828v-44.138c0-4.879,3.948-8.828,8.828-8.828
	c4.879,0,8.828,3.948,8.828,8.828v44.138C450.207,327.086,446.259,331.034,441.379,331.034z"/>
<path style="fill:#FFC84B;" d="M449.703,301.599c-1.63-4.595-6.664-6.966-11.267-5.388l-60.137,21.225
	c-2.069-3.647-6.376-5.51-10.487-4.087l-26.483,9.345c-4.098,1.453-6.286,5.617-5.599,9.767l-47.362,16.716
	c-4.595,1.63-7.009,6.673-5.388,11.267c1.284,3.62,4.69,5.888,8.328,5.888c0.974,0,1.965-0.163,2.94-0.5l150.069-52.966
	C448.909,311.238,451.322,306.194,449.703,301.599z"/>
<g>
	<rect x="485.517" y="207.448" style="fill:#625D6B;" width="17.655" height="229.517"/>
	<path style="fill:#625D6B;" d="M467.862,463.448h-8.828c-4.875,0-8.828-3.953-8.828-8.828V57.379c0-4.875,3.953-8.828,8.828-8.828
		h8.828V463.448z"/>
</g>
<path style="fill:#FFC84B;" d="M150.069,331.034h61.793v-26.483c0-4.875-3.953-8.828-8.828-8.828h-44.138
	c-4.875,0-8.828,3.953-8.828,8.828V331.034z"/>
<g>
	<path style="fill:#625D6B;" d="M26.483,331.034h44.138v-17.655c0-4.875-3.953-8.828-8.828-8.828H35.31
		c-4.875,0-8.828,3.953-8.828,8.828V331.034z"/>
	<rect x="114.759" y="401.655" style="fill:#625D6B;" width="105.931" height="26.483"/>
</g>
<path style="fill:#504B5A;" d="M264.828,472.276H70.621c-14.626,0-26.483-11.857-26.483-26.483l0,0
	c0-14.626,11.857-26.483,26.483-26.483h194.207c14.626,0,26.483,11.857,26.483,26.483l0,0
	C291.31,460.419,279.454,472.276,264.828,472.276z"/>
<g>
	<circle style="fill:#625D6B;" cx="70.621" cy="445.793" r="13.241"/>
	<circle style="fill:#625D6B;" cx="264.828" cy="445.793" r="13.241"/>
</g>
<path style="fill:#504B5A;" d="M316.434,352.758l-14.467-50.632c-1.082-3.789-4.546-6.402-8.488-6.402h-63.961
	c-4.875,0-8.828,3.953-8.828,8.828v88.276h88.276c4.875,0,8.828-3.953,8.828-8.828v-21.54
	C317.793,359.178,317.335,355.913,316.434,352.758z"/>
<path style="fill:#FFDC5A;" d="M264.828,392.828h-35.31c-4.875,0-8.828-3.953-8.828-8.828v-52.966c0-4.875-3.953-8.828-8.828-8.828
	H8.828c-4.875,0-8.828,3.953-8.828,8.828v70.621c0,4.875,3.953,8.828,8.828,8.828h256c4.875,0,8.828-3.953,8.828-8.828
	C273.655,396.779,269.703,392.828,264.828,392.828z"/>
<path style="fill:#625D6B;" d="M295.661,310.954c-1.082-3.789-4.546-6.402-8.488-6.402H256c-4.875,0-8.828,3.953-8.828,8.828v44.138
	c0,4.875,3.953,8.828,8.828,8.828h45.223c4.276,0,7.743-3.467,7.743-7.743l0,0c0-0.719-0.1-1.436-0.298-2.127L295.661,310.954z"/>
<path style="fill:#FFC84B;" d="M141.241,392.828h61.793c4.875,0,8.828-3.953,8.828-8.828v-35.31c0-4.875-3.953-8.828-8.828-8.828
	h-61.793c-4.875,0-8.828,3.953-8.828,8.828V384C132.414,388.875,136.366,392.828,141.241,392.828z"/>
<path style="fill:#FFDC5A;" d="M467.862,39.724L467.862,39.724c-4.875,0-8.828,3.953-8.828,8.828v414.897
	c0,4.875,3.953,8.828,8.828,8.828l0,0c4.875,0,8.828-3.953,8.828-8.828V48.552C476.69,43.677,472.737,39.724,467.862,39.724z"/>
<g>
	<path style="fill:#FFC84B;" d="M503.172,216.276h-35.31c-4.875,0-8.828-3.953-8.828-8.828l0,0c0-4.875,3.953-8.828,8.828-8.828
		h35.31c4.875,0,8.828,3.953,8.828,8.828l0,0C512,212.323,508.047,216.276,503.172,216.276z"/>
	<path style="fill:#FFC84B;" d="M503.172,445.793h-35.31c-4.875,0-8.828-3.953-8.828-8.828l0,0c0-4.875,3.953-8.828,8.828-8.828
		h35.31c4.875,0,8.828,3.953,8.828,8.828l0,0C512,441.841,508.047,445.793,503.172,445.793z"/>
</g>
<g>
</g>
<g>
</g>
<g>
</g>
<g>
</g>
<g>
</g>
<g>
</g>
<g>
</g>
<g>
</g>
<g>
</g>
<g>
</g>
<g>
</g>
<g>
</g>
<g>
</g>
<g>
</g>
<g>
</g>
</svg>
