<?xml version="1.0" encoding="iso-8859-1"?>
<!-- Generator: Adobe Illustrator 19.0.0, SVG Export Plug-In . SVG Version: 6.00 Build 0)  -->
<svg version="1.1" id="Layer_1" xmlns="http://www.w3.org/2000/svg" xmlns:xlink="http://www.w3.org/1999/xlink" x="0px" y="0px"
	 viewBox="0 0 511.999 511.999" style="enable-background:new 0 0 511.999 511.999;" xml:space="preserve">
<path style="fill:#625D6B;" d="M274.892,379.674h-53.205v26.602h44.337c4.897,0,8.867-3.97,8.867-8.867V379.674z"/>
<g>
	<rect x="487.711" y="60.443" style="fill:#504B5A;" width="8.867" height="62.072"/>
	<path style="fill:#504B5A;" d="M492.145,180.156c-7.335,0-13.301-5.967-13.301-13.301c0-4.958,2.728-9.469,7.118-11.777
		c1.047-0.554,1.749-1.974,1.749-3.537v-11.288c0-2.451,1.983-4.434,4.434-4.434s4.434,1.983,4.434,4.434v11.288
		c0,4.919-2.485,9.279-6.494,11.384c-1.463,0.77-2.373,2.278-2.373,3.932c0,2.446,1.992,4.434,4.434,4.434s4.434-1.987,4.434-4.434
		c0-2.451,1.983-4.434,4.434-4.434s4.434,1.983,4.434,4.434C505.446,174.189,499.479,180.156,492.145,180.156z"/>
</g>
<path style="fill:#8D8A94;" d="M492.145,149.12L492.145,149.12c-4.897,0-8.867-3.97-8.867-8.867v-17.735
	c0-4.897,3.97-8.867,8.867-8.867l0,0c4.897,0,8.867,3.97,8.867,8.867v17.735C501.012,145.15,497.042,149.12,492.145,149.12z"/>
<g>
	<rect x="443.374" y="113.648" style="fill:#504B5A;" width="8.867" height="26.602"/>
	<path style="fill:#504B5A;" d="M447.807,197.891c-7.335,0-13.301-5.967-13.301-13.301c0-4.958,2.728-9.469,7.118-11.777
		c1.047-0.554,1.749-1.974,1.749-3.537v-11.288c0-2.451,1.983-4.434,4.434-4.434s4.434,1.983,4.434,4.434v11.288
		c0,4.919-2.485,9.279-6.494,11.384c-1.463,0.77-2.373,2.278-2.373,3.932c0,2.446,1.992,4.434,4.434,4.434
		c2.442,0,4.434-1.987,4.434-4.434c0-2.451,1.983-4.434,4.434-4.434s4.434,1.983,4.434,4.434
		C461.108,191.924,455.142,197.891,447.807,197.891z"/>
</g>
<path style="fill:#8D8A94;" d="M447.807,166.855L447.807,166.855c-4.897,0-8.867-3.97-8.867-8.867v-17.735
	c0-4.897,3.97-8.867,8.867-8.867l0,0c4.897,0,8.867,3.97,8.867,8.867v17.735C456.675,162.885,452.704,166.855,447.807,166.855z"/>
<g>
	<rect x="416.771" y="126.949" style="fill:#504B5A;" width="8.867" height="26.602"/>
	<path style="fill:#504B5A;" d="M421.205,211.192c-7.335,0-13.301-5.967-13.301-13.301c0-4.958,2.728-9.469,7.118-11.777
		c1.047-0.554,1.749-1.974,1.749-3.537v-11.288c0-2.451,1.983-4.434,4.434-4.434s4.434,1.983,4.434,4.434v11.288
		c0,4.918-2.485,9.279-6.494,11.384c-1.463,0.77-2.373,2.278-2.373,3.932c0,2.446,1.992,4.434,4.434,4.434
		c2.442,0,4.434-1.987,4.434-4.434c0-2.451,1.983-4.434,4.434-4.434s4.434,1.983,4.434,4.434
		C434.506,205.225,428.539,211.192,421.205,211.192z"/>
</g>
<path style="fill:#8D8A94;" d="M421.205,180.156L421.205,180.156c-4.897,0-8.867-3.97-8.867-8.867v-17.735
	c0-4.897,3.97-8.867,8.867-8.867l0,0c4.897,0,8.867,3.97,8.867,8.867v17.735C430.072,176.187,426.102,180.156,421.205,180.156z"/>
<polygon style="fill:#FFC84B;" points="376.924,336.029 350.322,167.547 359.076,166.162 385.678,334.644 "/>
<path style="fill:#FFDC5A;" d="M399.668,418.435l-51.567-128.92c-0.91-2.275,0.197-4.855,2.472-5.764l8.236-3.291
	c2.273-0.909,4.853,0.197,5.762,2.471l51.568,128.923L399.668,418.435z"/>
<rect x="289.219" y="233.368" transform="matrix(-0.3714 -0.9285 0.9285 -0.3714 241.3136 638.9741)" style="fill:#8D8A94;" width="95.483" height="8.861"/>
<path style="fill:#FFC84B;" d="M133.021,331.003c-2.828,0-5.608-1.351-7.326-3.862c-2.767-4.04-1.732-9.56,2.312-12.322
	l44.337-30.335c4.036-2.767,9.556-1.728,12.322,2.312c2.767,4.04,1.732,9.56-2.312,12.322l-44.337,30.335
	C136.489,330.5,134.743,331.003,133.021,331.003z"/>
<path style="fill:#8D8A94;" d="M471.519,104.933l36.619-25.055c4.041-2.766,5.077-8.283,2.312-12.325l-5.001-7.311
	c-5.53-8.085-16.568-10.155-24.653-4.624l-29.298,20.046L471.519,104.933z"/>
<path style="fill:#FFDC5A;" d="M173.365,298.15l-10.008-14.631c-2.764-4.041-1.73-9.559,2.312-12.325L458.728,70.681l20.021,29.269
	L185.69,300.462C181.648,303.227,176.129,302.192,173.365,298.15z"/>
<rect x="336.964" y="370.804" style="fill:#FFC84B;" width="44.337" height="17.735"/>
<path style="fill:#504B5A;" d="M212.819,237.794h83.195c3.359,0,6.429,1.898,7.931,4.901l37.161,82.19
	c3.115,6.888,4.725,14.361,4.725,21.919v32.868c0,4.897-3.97,8.867-8.867,8.867H228.375c-3.959,0-7.439-2.625-8.526-6.431
	l-13.85-48.476c-1.358-4.753-2.047-9.673-2.047-14.617v-72.355C203.952,241.765,207.922,237.794,212.819,237.794z"/>
<g>
	<path style="fill:#625D6B;" d="M221.687,326.469h26.602c4.897,0,8.867-3.97,8.867-8.867v-62.072c0-4.897-3.97-8.867-8.867-8.867
		h-26.602c-4.897,0-8.867,3.97-8.867,8.867v62.072C212.819,322.5,216.79,326.469,221.687,326.469z"/>
	<path style="fill:#625D6B;" d="M266.024,361.939c0,4.897,3.97,8.867,8.867,8.867h53.205c4.897,0,8.867-3.97,8.867-8.867v-17.735
		c0-4.897-3.97-8.867-8.867-8.867h-53.205c-4.897,0-8.867,3.97-8.867,8.867V361.939z"/>
	<path style="fill:#625D6B;" d="M328.694,318.957l-30.33-67.08c-1.435-3.175-4.597-5.214-8.079-5.214h-15.393
		c-4.897,0-8.867,3.97-8.867,8.867v62.072c0,4.897,3.97,8.867,8.867,8.867h48.954C327.711,326.469,330.286,322.479,328.694,318.957z
		"/>
</g>
<path style="fill:#FFC84B;" d="M141.88,424.011h88.675v-53.205c0-4.897-3.97-8.867-8.867-8.867H141.88V424.011z"/>
<path style="fill:#FFDC5A;" d="M119.61,317.802l-8.299,16.598c-3.004,6.009-9.145,9.804-15.863,9.804H8.867
	c-4.897,0-8.867,3.97-8.867,8.867v70.94c0,4.897,3.97,8.867,8.867,8.867h141.88v-107.74c0-9.06-7.344-16.405-16.405-16.405h-0.059
	C128.07,308.734,122.389,312.245,119.61,317.802z"/>
<path style="fill:#FFC84B;" d="M124.145,415.144v-31.797c0-2.352-0.934-4.608-2.597-6.27l-12.541-12.541
	c-1.663-1.663-3.918-2.597-6.27-2.597H39.14c-2.352,0-4.608,0.934-6.27,2.598l-12.537,12.54c-1.663,1.663-2.597,3.918-2.597,6.269
	v49.533h336.964v-17.735H124.145z"/>
<circle style="fill:#625D6B;" cx="70.94" cy="415.142" r="44.337"/>
<circle style="fill:#FFDC5A;" cx="70.94" cy="415.142" r="26.602"/>
<circle style="fill:#FFC84B;" cx="70.94" cy="415.142" r="8.867"/>
<circle style="fill:#625D6B;" cx="381.301" cy="415.142" r="44.337"/>
<circle style="fill:#FFDC5A;" cx="381.301" cy="415.142" r="26.602"/>
<circle style="fill:#FFC84B;" cx="381.301" cy="415.142" r="8.867"/>
<path style="fill:#FFDC5A;" d="M186.217,335.337h-8.867c-4.897,0-8.867,3.97-8.867,8.867v106.41h26.602v-106.41
	C195.084,339.307,191.114,335.337,186.217,335.337z"/>
<path style="fill:#8D8A94;" d="M199.518,459.481h-35.47c-2.449,0-4.434-1.985-4.434-4.434v-8.867c0-2.449,1.985-4.434,4.434-4.434
	h35.47c2.449,0,4.434,1.985,4.434,4.434v8.867C203.952,457.496,201.967,459.481,199.518,459.481z"/>
<g>
</g>
<g>
</g>
<g>
</g>
<g>
</g>
<g>
</g>
<g>
</g>
<g>
</g>
<g>
</g>
<g>
</g>
<g>
</g>
<g>
</g>
<g>
</g>
<g>
</g>
<g>
</g>
<g>
</g>
</svg>
