<?xml version="1.0" encoding="iso-8859-1"?>
<!-- Generator: Adobe Illustrator 19.0.0, SVG Export Plug-In . SVG Version: 6.00 Build 0)  -->
<svg version="1.1" id="Layer_1" xmlns="http://www.w3.org/2000/svg" xmlns:xlink="http://www.w3.org/1999/xlink" x="0px" y="0px"
	 viewBox="0 0 512 512" style="enable-background:new 0 0 512 512;" xml:space="preserve">
<path style="fill:#736F7B;" d="M150.069,211.862h17.655v-45.649c0-7.026-2.791-13.763-7.758-18.731l-4.534-4.534
	c-1.952-1.952-5.117-1.952-7.069,0l-5.414,5.414c-1.952,1.952-1.952,5.117,0,7.069l4.534,4.534c1.656,1.656,2.586,3.902,2.586,6.243
	v45.654H150.069z"/>
<rect x="26.483" y="247.172" style="fill:#625D6B;" width="203.034" height="105.931"/>
<path style="fill:#FFC84B;" d="M344.276,344.276c0-26.282,11.539-49.816,29.773-65.976c3.633-3.22,5.537-7.964,5.537-12.818V105.931
	H211.862l-8.097,89.075c-0.414,4.547-4.226,8.029-8.791,8.029h-27.247c-75.222,0-132.783,26.485-150.93,38.423
	c-4.984,3.279-7.969,8.802-7.969,14.769v96.877c0,4.875,3.953,8.828,8.828,8.828h7.36c6.222,0,10.936-5.316,10.507-11.524
	c-0.493-7.13-0.136-14.494,1.194-21.998c6.781-38.262,39.185-68.125,77.854-71.959c52.801-5.236,97.292,36.099,97.292,87.827
	c0,2.016-0.068,4.017-0.202,5.998c-0.423,6.257,4.267,11.657,10.538,11.657H346.05C344.891,356.225,344.276,350.323,344.276,344.276
	z"/>
<circle style="fill:#504B5A;" cx="123.586" cy="344.276" r="70.621"/>
<circle style="fill:#B9B7BD;" cx="123.586" cy="344.276" r="44.138"/>
<g>
	<circle style="fill:#8D8A94;" cx="123.586" cy="344.276" r="17.655"/>
	<circle style="fill:#8D8A94;" cx="432.552" cy="344.276" r="70.621"/>
</g>
<circle style="fill:#625D6B;" cx="432.552" cy="344.276" r="52.966"/>
<path style="fill:#FFDC5A;" d="M503.172,370.759H273.655c-4.875,0-8.828-3.953-8.828-8.828v-35.31c0-4.875,3.953-8.828,8.828-8.828
	h229.517c4.875,0,8.828,3.953,8.828,8.828v35.31C512,366.806,508.047,370.759,503.172,370.759z"/>
<circle style="fill:#FFC84B;" cx="432.552" cy="344.276" r="13.241"/>
<g>
	<path style="fill:#736F7B;" d="M238.345,238.345H220.69c-4.875,0-8.828-3.953-8.828-8.828l0,0c0-4.875,3.953-8.828,8.828-8.828
		h17.655c4.875,0,8.828,3.953,8.828,8.828l0,0C247.172,234.392,243.22,238.345,238.345,238.345z"/>
	<path style="fill:#736F7B;" d="M238.345,291.31H220.69c-4.875,0-8.828-3.953-8.828-8.828l0,0c0-4.875,3.953-8.828,8.828-8.828
		h17.655c4.875,0,8.828,3.953,8.828,8.828l0,0C247.172,287.358,243.22,291.31,238.345,291.31z"/>
	<path style="fill:#736F7B;" d="M238.345,264.828H220.69c-4.875,0-8.828-3.953-8.828-8.828l0,0c0-4.875,3.953-8.828,8.828-8.828
		h17.655c4.875,0,8.828,3.953,8.828,8.828l0,0C247.172,260.875,243.22,264.828,238.345,264.828z"/>
</g>
<path style="fill:#FFDC5A;" d="M379.586,114.759H211.862c-4.875,0-8.828-3.953-8.828-8.828l0,0c0-4.875,3.953-8.828,8.828-8.828
	h167.724c4.875,0,8.828,3.953,8.828,8.828l0,0C388.414,110.806,384.461,114.759,379.586,114.759z"/>
<g>
	<path style="fill:#504B5A;" d="M264.828,123.586h-26.483c-4.875,0-8.828,3.953-8.828,8.828v38.681c0,3.343,1.889,6.4,4.879,7.895
		l29.75,14.874c4.369,2.184,9.507-0.992,9.507-5.876v-55.575C273.655,127.539,269.703,123.586,264.828,123.586z"/>
	<path style="fill:#504B5A;" d="M361.931,203.034H291.31c-4.875,0-8.828-3.953-8.828-8.828v-61.793c0-4.875,3.953-8.828,8.828-8.828
		h70.621c4.875,0,8.828,3.953,8.828,8.828v61.793C370.759,199.082,366.806,203.034,361.931,203.034z"/>
</g>
<path style="fill:#736F7B;" d="M17.655,344.276H8.828c-4.875,0-8.828-3.953-8.828-8.828v-17.655c0-4.875,3.953-8.828,8.828-8.828
	h8.828c4.875,0,8.828,3.953,8.828,8.828v17.655C26.483,340.323,22.53,344.276,17.655,344.276z"/>
<g>
</g>
<g>
</g>
<g>
</g>
<g>
</g>
<g>
</g>
<g>
</g>
<g>
</g>
<g>
</g>
<g>
</g>
<g>
</g>
<g>
</g>
<g>
</g>
<g>
</g>
<g>
</g>
<g>
</g>
</svg>
