<?xml version="1.0" encoding="iso-8859-1"?>
<!-- Generator: Adobe Illustrator 19.0.0, SVG Export Plug-In . SVG Version: 6.00 Build 0)  -->
<svg version="1.1" id="Layer_1" xmlns="http://www.w3.org/2000/svg" xmlns:xlink="http://www.w3.org/1999/xlink" x="0px" y="0px"
	 viewBox="0 0 512 512" style="enable-background:new 0 0 512 512;" xml:space="preserve">
<rect x="490.867" y="207.013" transform="matrix(-0.9379 -0.3469 0.3469 -0.9379 877.1089 633.7849)" style="fill:#504B5A;" width="8.828" height="62.749"/>
<path style="fill:#FFDC5A;" d="M482.087,299.507c-2.287-0.846-4.824,0.32-5.671,2.609c-0.845,2.284-3.391,3.452-5.671,2.609
	c-2.28-0.843-3.454-3.386-2.609-5.671c0.572-1.545,1.941-2.637,3.573-2.851c4.47-0.58,8.297-3.793,9.995-8.385l3.898-10.539
	l-8.279-3.062l-3.898,10.539c-0.54,1.46-1.685,2.543-2.855,2.699c-4.896,0.639-9.001,3.908-10.713,8.537
	c-2.534,6.848,0.977,14.479,7.826,17.013s14.479-0.977,17.013-7.826C485.542,302.889,484.375,300.353,482.087,299.507z"/>
<g>
	<path style="fill:#FFC84B;" d="M478.401,284.025L478.401,284.025c-4.573-1.692-6.909-6.77-5.217-11.342l3.262-8.818
		c1.692-4.573,6.77-6.909,11.342-5.217l0,0c4.573,1.692,6.909,6.77,5.217,11.342l-3.262,8.818
		C488.052,283.381,482.974,285.717,478.401,284.025z"/>
	<polygon style="fill:#FFC84B;" points="316.344,198.741 104.482,234.051 107.379,251.465 319.241,216.154 	"/>
</g>
<path style="fill:#FFDC5A;" d="M494.345,216.276H61.793v-17.655c0-4.875,3.953-8.828,8.828-8.828h423.724
	c4.875,0,8.828,3.953,8.828,8.828v8.828C503.172,212.323,499.22,216.276,494.345,216.276z"/>
<g>
	<path style="fill:#FFC84B;" d="M503.172,225.103L503.172,225.103c-4.875,0-8.828-3.953-8.828-8.828v-26.483
		c0-4.875,3.953-8.828,8.828-8.828l0,0c4.875,0,8.828,3.953,8.828,8.828v26.483C512,221.151,508.047,225.103,503.172,225.103z"/>
	<path style="fill:#FFC84B;" d="M123.586,233.931H8.828c-4.875,0-8.828-3.953-8.828-8.828v-8.828c0-4.875,3.953-8.828,8.828-8.828
		h114.759V233.931z"/>
</g>
<rect x="61.793" y="242.759" style="fill:#504B5A;" width="105.931" height="26.483"/>
<rect x="17.655" y="269.241" style="fill:#736F7B;" width="300.138" height="35.31"/>
<rect x="317.793" y="269.241" style="fill:#FFC84B;" width="105.931" height="35.31"/>
<rect y="260.414" style="fill:#625D6B;" width="406.069" height="17.655"/>
<path style="fill:#8D8A94;" d="M203.034,304.552h35.31c4.875,0,8.828-3.953,8.828-8.828v-8.828c0-4.875-3.953-8.828-8.828-8.828
	h-35.31c-4.875,0-8.828,3.953-8.828,8.828v8.828C194.207,300.599,198.159,304.552,203.034,304.552z"/>
<circle style="fill:#504B5A;" cx="52.966" cy="304.552" r="26.483"/>
<circle style="fill:#8D8A94;" cx="52.966" cy="304.552" r="13.241"/>
<circle style="fill:#504B5A;" cx="105.931" cy="304.552" r="26.483"/>
<circle style="fill:#8D8A94;" cx="105.931" cy="304.552" r="13.241"/>
<circle style="fill:#504B5A;" cx="158.897" cy="304.552" r="26.483"/>
<circle style="fill:#8D8A94;" cx="158.897" cy="304.552" r="13.241"/>
<circle style="fill:#504B5A;" cx="317.793" cy="304.552" r="26.483"/>
<circle style="fill:#8D8A94;" cx="317.793" cy="304.552" r="13.241"/>
<circle style="fill:#504B5A;" cx="370.759" cy="304.552" r="26.483"/>
<circle style="fill:#8D8A94;" cx="370.759" cy="304.552" r="13.241"/>
<g>
	<path style="fill:#FFC84B;" d="M22.069,313.379h-8.828c-2.438,0-4.414-1.976-4.414-4.414v-35.31c0-2.438,1.976-4.414,4.414-4.414
		h8.828c2.438,0,4.414,1.976,4.414,4.414v35.31C26.483,311.403,24.506,313.379,22.069,313.379z"/>
	<path style="fill:#FFC84B;" d="M269.241,313.379h-8.828c-2.438,0-4.414-1.976-4.414-4.414v-35.31c0-2.438,1.976-4.414,4.414-4.414
		h8.828c2.438,0,4.414,1.976,4.414,4.414v35.31C273.655,311.403,271.679,313.379,269.241,313.379z"/>
</g>
<path style="fill:#736F7B;" d="M445.793,313.379h-22.069v-17.655h22.069c2.438,0,4.414,1.976,4.414,4.414v8.828
	C450.207,311.403,448.231,313.379,445.793,313.379z"/>
<path style="fill:#FFDC5A;" d="M370.759,233.931v29.384c0,3.148,2.269,5.858,5.38,6.334c16.948,2.591,29.93,17.23,29.93,34.903
	c0,0.689-0.025,1.37-0.074,2.045c-0.265,3.688,2.711,6.783,6.408,6.783h46.632v-35.31l-15.644-46.93
	c-1.202-3.605-4.575-6.036-8.374-6.036h-55.431C374.71,225.103,370.759,229.056,370.759,233.931z"/>
<path style="fill:#625D6B;" d="M444.321,233.931h-33.215c-2.782,0-5.037,2.255-5.037,5.037v17.178c0,2.463,1.78,4.564,4.209,4.969
	l45.64,7.607L444.321,233.931z"/>
<path style="fill:#8D8A94;" d="M436.966,313.379h26.483c2.438,0,4.414-1.976,4.414-4.414v-8.828c0-2.438-1.976-4.414-4.414-4.414
	h-26.483c-2.438,0-4.414,1.976-4.414,4.414v8.828C432.552,311.403,434.528,313.379,436.966,313.379z"/>
<path style="fill:#625D6B;" d="M392.828,260.414H384c-2.438,0-4.414-1.976-4.414-4.414v-17.655c0-2.438,1.976-4.414,4.414-4.414
	h8.828c2.438,0,4.414,1.976,4.414,4.414V256C397.241,258.438,395.265,260.414,392.828,260.414z"/>
<path style="fill:#FFDC5A;" d="M183.485,229.195l-13.64-34.1c-1.281-3.202-4.383-5.302-7.831-5.302h-38.428
	c-4.875,0-8.828,3.953-8.828,8.828v17.655H52.966c-4.875,0-8.828,3.953-8.828,8.828v17.655c0,4.875,3.953,8.828,8.828,8.828h123.586
	c4.875,0,8.828-3.953,8.828-8.828v-3.727C185.379,235.661,184.736,232.323,183.485,229.195z"/>
<path style="fill:#625D6B;" d="M184.767,232.399l-13.512-33.779h-38.841c-4.875,0-8.828,3.953-8.828,8.828v9.863
	c0,4.452,3.315,8.207,7.733,8.759l53.201,6.649C184.653,232.546,184.632,232.573,184.767,232.399z"/>
<g>
</g>
<g>
</g>
<g>
</g>
<g>
</g>
<g>
</g>
<g>
</g>
<g>
</g>
<g>
</g>
<g>
</g>
<g>
</g>
<g>
</g>
<g>
</g>
<g>
</g>
<g>
</g>
<g>
</g>
</svg>
