<?xml version="1.0" encoding="iso-8859-1"?>
<!-- Generator: Adobe Illustrator 19.0.0, SVG Export Plug-In . SVG Version: 6.00 Build 0)  -->
<svg version="1.1" id="Layer_1" xmlns="http://www.w3.org/2000/svg" xmlns:xlink="http://www.w3.org/1999/xlink" x="0px" y="0px"
	 viewBox="0 0 512.001 512.001" style="enable-background:new 0 0 512.001 512.001;" xml:space="preserve">
<polygon style="fill:#FFDC5A;" points="291.31,79.45 132.414,79.45 123.586,256.001 326.62,256.001 "/>
<path style="fill:#504B5A;" d="M275.245,105.933h-84.977c-14.112,0-25.744,11.065-26.45,25.16l-4.458,89.157
	c-0.252,5.042,3.768,9.269,8.817,9.269h128.256c5.57,0,9.749-5.097,8.657-10.559l-21.186-105.931
	C283.076,108.902,279.453,105.933,275.245,105.933z"/>
<rect x="79.448" y="220.69" style="fill:#A7A5AC;" width="211.862" height="17.655"/>
<path style="fill:#FFC84B;" d="M369.93,234.613c-1.449-3.107-4.569-5.095-8-5.095h-8.828v17.655h3.207l59.414,127.319l16-7.466
	L369.93,234.613z"/>
<rect x="388.413" y="370.758" style="fill:#625D6B;" width="35.31" height="35.31"/>
<rect x="185.379" y="353.103" style="fill:#FFDC5A;" width="70.621" height="17.655"/>
<path style="fill:#625D6B;" d="M308.965,88.277H132.414c-4.875,0-8.828-3.953-8.828-8.828l0,0c0-4.875,3.953-8.828,8.828-8.828
	h176.551c4.875,0,8.828,3.953,8.828,8.828l0,0C317.792,84.325,313.84,88.277,308.965,88.277z"/>
<path style="fill:#FFDC5A;" d="M433.309,340.691l-35.31,79.448c-1.216,2.733-0.966,5.892,0.664,8.396
	c1.63,2.504,4.414,4.018,7.405,4.018h97.103L433.309,340.691z"/>
<path style="fill:#8D8A94;" d="M503.18,432.553c-2.733,0-5.422-1.259-7.147-3.634l-70.621-97.103
	c-2.871-3.944-2.001-9.465,1.949-12.332c3.948-2.871,9.465-1.996,12.328,1.944l70.621,97.103c2.871,3.944,2.001,9.465-1.949,12.332
	C506.792,432.004,504.981,432.553,503.18,432.553z"/>
<path style="fill:#FFC84B;" d="M338.792,233.13c-1.578-3.681-4.733-6.449-8.586-7.53L47.724,146.152l-7.172,25.492l276.387,77.737
	l2.838,6.621H70.621v132.414h273.655l47.482-31.699L338.792,233.13z"/>
<path style="fill:#FFDC5A;" d="M88.276,397.242l-75.694-22.708C5.114,372.293,0,365.42,0,357.623V150.07
	c0-4.875,3.953-8.828,8.828-8.828h34.689c5.903,0,11.415,2.951,14.69,7.862l25.621,38.432c2.9,4.35,4.448,9.462,4.448,14.69V397.242
	z"/>
<circle style="fill:#504B5A;" cx="114.758" cy="361.931" r="79.448"/>
<circle style="fill:#FFDC5A;" cx="114.758" cy="361.931" r="44.138"/>
<circle style="fill:#625D6B;" cx="114.758" cy="361.931" r="26.483"/>
<circle style="fill:#504B5A;" cx="326.62" cy="361.931" r="79.448"/>
<circle style="fill:#FFDC5A;" cx="326.62" cy="361.931" r="44.138"/>
<circle style="fill:#625D6B;" cx="326.62" cy="361.931" r="26.483"/>
<path style="fill:#FFDC5A;" d="M348.689,251.587h-17.655c-7.313,0-13.241-5.929-13.241-13.241l0,0
	c0-7.313,5.929-13.241,13.241-13.241h17.655c7.313,0,13.241,5.929,13.241,13.241l0,0
	C361.93,245.659,356.001,251.587,348.689,251.587z"/>
<g>
</g>
<g>
</g>
<g>
</g>
<g>
</g>
<g>
</g>
<g>
</g>
<g>
</g>
<g>
</g>
<g>
</g>
<g>
</g>
<g>
</g>
<g>
</g>
<g>
</g>
<g>
</g>
<g>
</g>
</svg>
