<?xml version="1.0" encoding="iso-8859-1"?>
<!-- Generator: Adobe Illustrator 19.0.0, SVG Export Plug-In . SVG Version: 6.00 Build 0)  -->
<svg version="1.1" id="Layer_1" xmlns="http://www.w3.org/2000/svg" xmlns:xlink="http://www.w3.org/1999/xlink" x="0px" y="0px"
	 viewBox="0 0 512.001 512.001" style="enable-background:new 0 0 512.001 512.001;" xml:space="preserve">
<circle style="fill:#625D6B;" cx="317.794" cy="216.276" r="26.483"/>
<rect x="292.928" y="132.153" transform="matrix(-0.9298 0.3682 -0.3682 -0.9298 647.0234 228.0576)" style="fill:#FFC84B;" width="17.655" height="87.199"/>
<polygon style="fill:#504B5A;" points="282.484,322.207 150.07,322.207 97.104,207.449 317.794,207.449 "/>
<g>
	<rect x="194.208" y="313.38" style="fill:#625D6B;" width="88.276" height="26.483"/>
	<rect x="185.38" y="278.069" style="fill:#625D6B;" width="105.931" height="17.655"/>
</g>
<path style="fill:#FFDC5A;" d="M335.449,216.276v-79.448c0-4.875,3.953-8.828,8.828-8.828h99.569c3.799,0,7.174,2.431,8.374,6.036
	l15.644,46.93h26.483c4.875,0,8.828,3.953,8.828,8.828v26.483H335.449z"/>
<polygon style="fill:#504B5A;" points="494.346,313.38 291.311,313.38 317.794,225.104 467.863,225.104 "/>
<circle style="fill:#736F7B;" cx="123.587" cy="331.035" r="88.276"/>
<circle style="fill:#504B5A;" cx="123.587" cy="331.035" r="61.793"/>
<circle style="fill:#FFDC5A;" cx="123.587" cy="331.035" r="44.138"/>
<circle style="fill:#FFC84B;" cx="123.587" cy="331.035" r="17.655"/>
<circle style="fill:#736F7B;" cx="388.415" cy="331.035" r="88.276"/>
<circle style="fill:#504B5A;" cx="388.415" cy="331.035" r="61.793"/>
<circle style="fill:#FFDC5A;" cx="388.415" cy="331.035" r="44.138"/>
<circle style="fill:#FFC84B;" cx="388.415" cy="331.035" r="17.655"/>
<path style="fill:#736F7B;" d="M309.42,213.485l-41.345,124.043c-1.54,4.622,0.957,9.619,5.579,11.161l0,0
	c4.625,1.543,9.623-0.956,11.165-5.58l34.386-103.142c1.202-3.605,4.575-6.036,8.374-6.036h119.507c3.609,0,6.856,2.198,8.196,5.549
	l30.871,77.177c1.341,3.351,4.587,5.549,8.196,5.549h8.824c4.875,0,8.828-3.953,8.828-8.828v-97.103
	c0-4.875-3.953-8.828-8.828-8.828H317.795C313.995,207.449,310.621,209.881,309.42,213.485z"/>
<g>
	<path style="fill:#625D6B;" d="M442.175,145.656h-46.698c-3.901,0-7.062,3.161-7.062,7.062v21.186c0,3.901,3.161,7.062,7.062,7.062
		h53.76c4.82,0,8.224-4.723,6.7-9.295l-7.062-21.186C447.914,147.601,445.215,145.656,442.175,145.656z"/>
	<path style="fill:#625D6B;" d="M360.166,180.966h12.359c3.901,0,7.062-3.161,7.062-7.062v-21.186c0-3.901-3.161-7.062-7.062-7.062
		h-12.359c-3.901,0-7.062,3.161-7.062,7.062v21.186C353.104,177.805,356.267,180.966,360.166,180.966z"/>
</g>
<path style="fill:#FFC84B;" d="M268.212,242.759h-62.543c-7.591,0-15.132-1.224-22.333-3.624L8.828,180.966l70.621-61.793h229.517
	l-23.492,109.63C283.73,236.944,276.536,242.759,268.212,242.759z"/>
<path style="fill:#FFDC5A;" d="M441.38,92.69H335.449c-1.741,0-3.448,0.518-4.897,1.483l-24.258,16.172H79.449
	c-2.138,0-4.207,0.776-5.811,2.185L3.018,174.323c-3.672,3.211-4.043,8.785-0.836,12.457c1.751,1.992,4.191,3.014,6.647,3.014
	c2.069,0,4.138-0.719,5.811-2.185l61.473-53.784l-14.12,65.891c-1.026,4.767,2.008,9.461,6.776,10.483
	c0.629,0.134,1.25,0.194,1.862,0.194c4.07,0,7.733-2.836,8.621-6.978L95.412,128h26.087l-18.306,85.422
	c-1.026,4.767,2.008,9.461,6.776,10.483c0.629,0.134,1.25,0.194,1.863,0.194c4.07,0,7.733-2.836,8.62-6.978L139.548,128h26.087
	l-21.358,99.668c-1.026,4.767,2.008,9.461,6.776,10.483c0.629,0.134,1.25,0.194,1.863,0.194c4.077,0,7.733-2.836,8.621-6.978
	L183.686,128h26.088L185.579,240.91c-1.026,4.767,2.008,9.461,6.776,10.483c0.629,0.134,1.25,0.194,1.863,0.194
	c4.07,0,7.733-2.836,8.62-6.978L227.825,128h26.087L229.717,240.91c-1.026,4.767,2.008,9.461,6.776,10.483
	c0.629,0.134,1.25,0.194,1.863,0.194c4.07,0,7.733-2.836,8.621-6.978L271.963,128h37.003c1.741,0,3.448-0.518,4.896-1.483
	l24.259-16.172H441.38c4.879,0,8.828-3.953,8.828-8.828C450.208,96.643,446.26,92.69,441.38,92.69z"/>
<g>
</g>
<g>
</g>
<g>
</g>
<g>
</g>
<g>
</g>
<g>
</g>
<g>
</g>
<g>
</g>
<g>
</g>
<g>
</g>
<g>
</g>
<g>
</g>
<g>
</g>
<g>
</g>
<g>
</g>
</svg>
