<?xml version="1.0" encoding="iso-8859-1"?>
<!-- Generator: Adobe Illustrator 19.0.0, SVG Export Plug-In . SVG Version: 6.00 Build 0)  -->
<svg version="1.1" id="Layer_1" xmlns="http://www.w3.org/2000/svg" xmlns:xlink="http://www.w3.org/1999/xlink" x="0px" y="0px"
	 viewBox="0 0 512 512" style="enable-background:new 0 0 512 512;" xml:space="preserve">
<path style="fill:#736F7B;" d="M150.069,256h17.655v-45.649c0-7.026-2.791-13.763-7.758-18.731l-4.534-4.534
	c-1.952-1.952-5.117-1.952-7.069,0l-5.414,5.414c-1.952,1.952-1.952,5.117,0,7.069l4.534,4.534c1.656,1.656,2.586,3.902,2.586,6.243
	V256H150.069z"/>
<polygon style="fill:#8D8A94;" points="498.763,379.772 489.935,167.91 498.754,167.539 507.582,379.401 "/>
<path style="fill:#736F7B;" d="M494.345,176.552H476.69v-17.655h17.655c4.875,0,8.828,3.953,8.828,8.828l0,0
	C503.172,172.599,499.22,176.552,494.345,176.552z"/>
<polygon style="fill:#8D8A94;" points="318.607,145.578 316.979,136.905 458.219,110.422 459.849,119.095 "/>
<path style="fill:#504B5A;" d="M284.073,238.345H220.69c-4.875,0-8.828,3.953-8.828,8.828v79.448h79.448
	c4.875,0,8.828-3.953,8.828-8.828v-16.954c0-12.207-1.206-24.385-3.599-36.355l-3.808-19.042
	C291.904,241.315,288.281,238.345,284.073,238.345z"/>
<path style="fill:#625D6B;" d="M238.345,308.966h61.793v-8.127c0-12.209-1.206-24.387-3.601-36.359l-3.462-17.308h-45.903
	c-4.875,0-8.828,3.953-8.828,8.828V308.966z"/>
<polygon style="fill:#8D8A94;" points="268.927,301.775 260.728,298.499 313.694,166.087 321.892,169.362 "/>
<rect x="158.897" y="317.793" style="fill:#625D6B;" width="88.276" height="35.31"/>
<path style="fill:#504B5A;" d="M282.483,414.897H52.966c-19.501,0-35.31-15.809-35.31-35.31l0,0c0-19.501,15.809-35.31,35.31-35.31
	h229.517c19.501,0,35.31,15.809,35.31,35.31l0,0C317.793,399.087,301.984,414.897,282.483,414.897z"/>
<rect x="52.966" y="361.931" style="fill:#625D6B;" width="229.517" height="35.31"/>
<g>
	<circle style="fill:#736F7B;" cx="52.966" cy="379.586" r="17.655"/>
	<circle style="fill:#736F7B;" cx="282.483" cy="379.586" r="17.655"/>
</g>
<path style="fill:#FFC84B;" d="M8.828,326.621h264.828c4.875,0,8.828-3.953,8.828-8.828V291.31c0-4.875-3.953-8.828-8.828-8.828
	H234.24c-2.952,0-5.708-1.475-7.346-3.932l-12.41-18.62c-1.638-2.456-4.394-3.932-7.346-3.932h-39.414v26.483H8.828
	c-4.875,0-8.828,3.953-8.828,8.828v26.483C0,322.668,3.953,326.621,8.828,326.621z"/>
<path style="fill:#FFDC5A;" d="M26.483,308.966h141.241c4.875,0,8.828-3.953,8.828-8.828v-61.793c0-4.875-3.953-8.828-8.828-8.828
	H26.483c-4.875,0-8.828,3.953-8.828,8.828v61.793C17.655,305.013,21.608,308.966,26.483,308.966z"/>
<g>
	<path style="fill:#736F7B;" d="M44.138,264.828h26.483c4.875,0,8.828-3.953,8.828-8.828l0,0c0-4.875-3.953-8.828-8.828-8.828
		H44.138c-4.875,0-8.828,3.953-8.828,8.828l0,0C35.31,260.875,39.263,264.828,44.138,264.828z"/>
	<path style="fill:#736F7B;" d="M44.138,291.31h26.483c4.875,0,8.828-3.953,8.828-8.828l0,0c0-4.875-3.953-8.828-8.828-8.828H44.138
		c-4.875,0-8.828,3.953-8.828,8.828l0,0C35.31,287.358,39.263,291.31,44.138,291.31z"/>
	<path style="fill:#736F7B;" d="M97.103,264.828h26.483c4.875,0,8.828-3.953,8.828-8.828l0,0c0-4.875-3.953-8.828-8.828-8.828
		H97.103c-4.875,0-8.828,3.953-8.828,8.828l0,0C88.276,260.875,92.228,264.828,97.103,264.828z"/>
	<path style="fill:#736F7B;" d="M97.103,291.31h26.483c4.875,0,8.828-3.953,8.828-8.828l0,0c0-4.875-3.953-8.828-8.828-8.828H97.103
		c-4.875,0-8.828,3.953-8.828,8.828l0,0C88.276,287.358,92.228,291.31,97.103,291.31z"/>
</g>
<path style="fill:#625D6B;" d="M476.69,97.103h-17.655c-4.052,0-7.577,2.759-8.561,6.686l-7.156,28.625H317.793
	c-2.681,0-5.216,1.219-6.897,3.315L204.966,268.142c-2.922,3.656-2.483,8.966,1.009,12.09c1.681,1.504,3.785,2.25,5.888,2.25
	c2.268,0,4.526-0.866,6.241-2.586l112.621-112.617l112.09-14.013l25.117,200.93l17.586-1.094V105.931
	C485.517,101.056,481.569,97.103,476.69,97.103z"/>
<path style="fill:#FFDC5A;" d="M414.897,397.241l62.626-62.626c4.061-4.061,10.857-3.224,13.812,1.7l16.728,27.881
	c2.577,4.295,3.937,9.208,3.937,14.216v0.026c0,15.26-12.371,27.63-27.63,27.63h-51.818L414.897,397.241z"/>
<path style="fill:#FFC84B;" d="M423.724,406.069h52.966c4.875,0,8.828-3.953,8.828-8.828l0,0c0-4.875-3.953-8.828-8.828-8.828
	h-52.966c-4.875,0-8.828,3.953-8.828,8.828l0,0C414.897,402.116,418.848,406.069,423.724,406.069z"/>
<g>
</g>
<g>
</g>
<g>
</g>
<g>
</g>
<g>
</g>
<g>
</g>
<g>
</g>
<g>
</g>
<g>
</g>
<g>
</g>
<g>
</g>
<g>
</g>
<g>
</g>
<g>
</g>
<g>
</g>
</svg>
