<?xml version="1.0" encoding="iso-8859-1"?>
<!-- Generator: Adobe Illustrator 19.0.0, SVG Export Plug-In . SVG Version: 6.00 Build 0)  -->
<svg version="1.1" id="Layer_1" xmlns="http://www.w3.org/2000/svg" xmlns:xlink="http://www.w3.org/1999/xlink" x="0px" y="0px"
	 viewBox="0 0 512 512" style="enable-background:new 0 0 512 512;" xml:space="preserve">
<path style="fill:#736F7B;" d="M203.034,101.517h-44.138v105.931h17.655V128c0-9.751,7.904-17.655,17.655-17.655h8.828V101.517z"/>
<path style="fill:#FFDC5A;" d="M364.072,241.087l-52.966-13.241c-5.571-1.393-10.968,2.822-10.968,8.564v50.487h70.621v-37.246
	C370.759,245.6,368.001,242.069,364.072,241.087z"/>
<polygon style="fill:#736F7B;" points="164.414,242.759 185.379,242.759 194.207,251.586 247.172,251.586 247.172,304.552 
	164.414,304.552 "/>
<path style="fill:#625D6B;" d="M370.759,278.069H291.31v26.483h-88.274l-44.14-35.31H52.966v79.448h335.448v-52.966
	C388.414,285.973,380.509,278.069,370.759,278.069z"/>
<rect x="185.379" y="331.034" style="fill:#736F7B;" width="167.724" height="26.483"/>
<circle style="fill:#504B5A;" cx="132.414" cy="357.517" r="61.793"/>
<circle style="fill:#B9B7BD;" cx="132.414" cy="357.517" r="35.31"/>
<circle style="fill:#8D8A94;" cx="132.414" cy="357.517" r="17.655"/>
<circle style="fill:#B9B7BD;" cx="406.069" cy="357.517" r="61.793"/>
<circle style="fill:#8D8A94;" cx="406.069" cy="357.517" r="44.138"/>
<g>
	<path style="fill:#FFDC5A;" d="M504.623,367.574l-89.907,14.985c-5.756,0.959-11.581,1.441-17.415,1.441h-79.509
		c-4.875,0-8.828-3.953-8.828-8.828v-35.31c0-4.875,3.953-8.828,8.828-8.828h185.379c4.875,0,8.828,3.953,8.828,8.828v19.005
		C512,363.181,508.879,366.865,504.623,367.574z"/>
	<path style="fill:#FFDC5A;" d="M158.897,278.069h-43.342c-16.718,0-32.001,9.445-39.478,24.398l-14.283,28.567H8.828v-53.146
		c0-25.487,18.153-47.361,43.204-52.059l98.037-18.381L158.897,278.069z"/>
</g>
<path style="fill:#8D8A94;" d="M61.793,331.034l-6.867,34.333c-1.042,5.207-6.41,8.322-11.447,6.644L6.036,359.529
	C2.431,358.327,0,354.954,0,351.155v-11.293c0-4.875,3.953-8.828,8.828-8.828H61.793z"/>
<path style="fill:#625D6B;" d="M247.172,260.414h-52.966c-9.737,0-17.655-7.918-17.655-17.655v-61.793
	c0-4.875,3.953-8.828,8.828-8.828c4.875,0,8.828,3.953,8.828,8.828v61.793h52.966c4.875,0,8.828,3.953,8.828,8.828
	C256,256.461,252.047,260.414,247.172,260.414z"/>
<path style="fill:#FFC84B;" d="M282.483,251.586v44.138h-66.026c-1.839,0-3.634-0.575-5.131-1.644l-31.078-22.198
	c-2.321-1.656-3.697-4.332-3.697-7.183v-74.905c0-4.875-3.953-8.828-8.828-8.828h-8.828c-4.875,0-8.828,3.953-8.828,8.828v75.548
	c0,8.045,3.657,15.655,9.939,20.68l26.945,21.556c4.695,3.756,10.53,5.803,16.544,5.803h87.813c4.875,0,8.828-3.953,8.828-8.828
	v-61.793h-8.828C286.431,242.759,282.483,246.707,282.483,251.586z"/>
<path style="fill:#625D6B;" d="M291.31,110.345H150.069c-4.875,0-8.828-3.953-8.828-8.828l0,0c0-4.875,3.953-8.828,8.828-8.828
	H291.31c4.875,0,8.828,3.953,8.828,8.828l0,0C300.138,106.392,296.185,110.345,291.31,110.345z"/>
<g>
</g>
<g>
</g>
<g>
</g>
<g>
</g>
<g>
</g>
<g>
</g>
<g>
</g>
<g>
</g>
<g>
</g>
<g>
</g>
<g>
</g>
<g>
</g>
<g>
</g>
<g>
</g>
<g>
</g>
</svg>
