<?xml version="1.0" encoding="iso-8859-1"?>
<!-- Generator: Adobe Illustrator 19.0.0, SVG Export Plug-In . SVG Version: 6.00 Build 0)  -->
<svg version="1.1" id="Layer_1" xmlns="http://www.w3.org/2000/svg" xmlns:xlink="http://www.w3.org/1999/xlink" x="0px" y="0px"
	 viewBox="0 0 512 512" style="enable-background:new 0 0 512 512;" xml:space="preserve">
<g>
	<polygon style="fill:#FFC84B;" points="271.405,168.013 103.681,212.151 108.181,229.228 275.905,185.09 	"/>
	<path style="fill:#FFC84B;" d="M79.448,247.172H8.828c-4.875,0-8.828-3.953-8.828-8.828V220.69c0-4.875,3.953-8.828,8.828-8.828
		h70.621V247.172z"/>
</g>
<rect x="490.074" y="184.405" transform="matrix(-0.9496 -0.3133 0.3133 -0.9496 897.9155 566.6344)" style="fill:#504B5A;" width="8.827" height="53.526"/>
<path style="fill:#FFDC5A;" d="M482.042,277.106c-2.316-0.765-4.81,0.492-5.575,2.808c-0.764,2.313-3.266,3.571-5.575,2.808
	c-2.308-0.761-3.572-3.262-2.808-5.575c0.516-1.564,1.846-2.705,3.469-2.977c4.447-0.738,8.157-4.085,9.691-8.735l3.521-10.671
	l-8.383-2.766l-3.521,10.671c-0.488,1.478-1.593,2.602-2.758,2.798c-4.871,0.812-8.856,4.226-10.403,8.914
	c-2.287,6.934,1.491,14.435,8.425,16.724c6.934,2.289,14.435-1.491,16.724-8.425C485.615,280.363,484.36,277.869,482.042,277.106z"
	/>
<path style="fill:#FFC84B;" d="M477.809,261.764L477.809,261.764c-4.63-1.527-7.145-6.519-5.617-11.149l5.533-16.766
	c1.527-4.63,6.519-7.145,11.149-5.617l0,0c4.63,1.527,7.145,6.519,5.617,11.149l-5.533,16.766
	C487.431,260.778,482.439,263.293,477.809,261.764z"/>
<g>
	<path style="fill:#504B5A;" d="M474.664,274.819c-2.051-1.314-4.785-0.728-6.103,1.327l-30.897,48.086l7.431,4.776l30.897-48.086
		C477.31,278.87,476.715,276.138,474.664,274.819z"/>
	<rect x="79.448" y="247.172" style="fill:#504B5A;" width="52.966" height="35.31"/>
</g>
<rect x="79.448" y="158.897" style="fill:#FFDC5A;" width="423.724" height="26.483"/>
<g>
	<path style="fill:#625D6B;" d="M107.678,150.069H70.621c-4.875,0-8.828,3.953-8.828,8.828v70.621h70.621l-16.119-72.535
		C115.398,152.942,111.815,150.069,107.678,150.069z"/>
	<rect x="273.655" y="300.138" style="fill:#625D6B;" width="35.31" height="26.483"/>
</g>
<g>
	<path style="fill:#736F7B;" d="M361.931,335.448h-52.966c-4.875,0-8.828-3.953-8.828-8.828v-35.31h61.793V335.448z"/>
	<path style="fill:#736F7B;" d="M273.655,326.621H26.483c-4.875,0-8.828-3.953-8.828-8.828v-35.31h256V326.621z"/>
</g>
<path style="fill:#625D6B;" d="M273.655,300.138H8.828c-4.875,0-8.828-3.953-8.828-8.828v-8.828c0-4.875,3.953-8.828,8.828-8.828
	h264.828V300.138z"/>
<path style="fill:#FFDC5A;" d="M425.175,254.77l-45.589-7.597l-15.435-38.589c-1.341-3.351-4.587-5.549-8.196-5.549h-46.989
	c-4.875,0-8.828,3.953-8.828,8.828v88.276h132.414v-36.66C432.552,259.162,429.431,255.479,425.175,254.77z"/>
<path style="fill:#8D8A94;" d="M203.034,335.448h44.138c4.875,0,8.828-3.953,8.828-8.828v-8.828c0-4.875-3.953-8.828-8.828-8.828
	h-44.138c-4.875,0-8.828,3.953-8.828,8.828v8.828C194.207,331.496,198.159,335.448,203.034,335.448z"/>
<circle style="fill:#504B5A;" cx="92.69" cy="331.034" r="30.897"/>
<circle style="fill:#DCDBDE;" cx="92.69" cy="331.034" r="17.655"/>
<circle style="fill:#504B5A;" cx="154.483" cy="331.034" r="30.897"/>
<circle style="fill:#DCDBDE;" cx="154.483" cy="331.034" r="17.655"/>
<path style="fill:#625D6B;" d="M348.961,247.172h-35.582c-2.438,0-4.414-1.976-4.414-4.414v-26.483c0-2.438,1.976-4.414,4.414-4.414
	h28.372c1.484,0,2.777,1.01,3.137,2.45l7.211,28.843C352.609,245.195,351.065,247.172,348.961,247.172z"/>
<g>
	<path style="fill:#A7A5AC;" d="M286.897,335.448h-8.828c-2.438,0-4.414-1.976-4.414-4.414V216.276c0-2.438,1.976-4.414,4.414-4.414
		h8.828c2.438,0,4.414,1.976,4.414,4.414v114.759C291.31,333.472,289.334,335.448,286.897,335.448z"/>
	<path style="fill:#A7A5AC;" d="M48.552,335.448h-8.828c-2.438,0-4.414-1.976-4.414-4.414v-35.31c0-2.438,1.976-4.414,4.414-4.414
		h8.828c2.438,0,4.414,1.976,4.414,4.414v35.31C52.966,333.472,50.989,335.448,48.552,335.448z"/>
</g>
<path style="fill:#FFC84B;" d="M353.103,335.448h88.276v-35.31c0-9.751-7.904-17.655-17.655-17.655h-35.31
	c-19.501,0-35.31,15.809-35.31,35.31V335.448z"/>
<path style="fill:#736F7B;" d="M445.793,335.448h-22.069v-17.655h22.069c2.438,0,4.414,1.976,4.414,4.414v8.828
	C450.207,333.472,448.231,335.448,445.793,335.448z"/>
<circle style="fill:#504B5A;" cx="401.655" cy="331.034" r="30.897"/>
<circle style="fill:#DCDBDE;" cx="401.655" cy="331.034" r="17.655"/>
<path style="fill:#504B5A;" d="M70.621,176.552v52.966h52.966l-12.195-54.88c-0.897-4.039-4.48-6.913-8.617-6.913H79.448
	C74.573,167.724,70.621,171.677,70.621,176.552z"/>
<path style="fill:#FFDC5A;" d="M132.414,256H52.966c-4.875,0-8.828-3.953-8.828-8.828v-17.655c0-4.875,3.953-8.828,8.828-8.828
	h79.448c4.875,0,8.828,3.953,8.828,8.828v17.655C141.241,252.047,137.289,256,132.414,256z"/>
<path style="fill:#625D6B;" d="M356.893,211.862c-1.924,0-3.337,1.809-2.87,3.677l6.89,27.561c0.598,2.393,2.75,4.073,5.217,4.073
	h13.457l-14.124-35.31H356.893z"/>
<path style="fill:#736F7B;" d="M503.172,194.207L503.172,194.207c-4.875,0-8.828-3.953-8.828-8.828v-26.483
	c0-4.875,3.953-8.828,8.828-8.828l0,0c4.875,0,8.828,3.953,8.828,8.828v26.483C512,190.254,508.047,194.207,503.172,194.207z"/>
<g>
</g>
<g>
</g>
<g>
</g>
<g>
</g>
<g>
</g>
<g>
</g>
<g>
</g>
<g>
</g>
<g>
</g>
<g>
</g>
<g>
</g>
<g>
</g>
<g>
</g>
<g>
</g>
<g>
</g>
</svg>
