<?xml version="1.0" encoding="iso-8859-1"?>
<!-- Generator: Adobe Illustrator 19.0.0, SVG Export Plug-In . SVG Version: 6.00 Build 0)  -->
<svg version="1.1" id="Layer_1" xmlns="http://www.w3.org/2000/svg" xmlns:xlink="http://www.w3.org/1999/xlink" x="0px" y="0px"
	 viewBox="0 0 512 512" style="enable-background:new 0 0 512 512;" xml:space="preserve">
<rect x="370.759" y="278.069" style="fill:#504B5A;" width="35.31" height="52.966"/>
<path style="fill:#625D6B;" d="M344.276,83.862c-4.875,0-8.828,3.953-8.828,8.828c0,4.875,3.953,8.828,8.828,8.828h8.828v273.655
	h26.483V92.69c0-4.875-3.953-8.828-8.828-8.828H344.276z"/>
<path style="fill:#504B5A;" d="M299.646,220.375l-79.892-116.206c-4.94-7.186-13.102-11.479-21.823-11.479H70.621
	c-9.751,0-17.655,7.904-17.655,17.655v185.379h256v-45.343C308.966,239.667,305.716,229.204,299.646,220.375z"/>
<path style="fill:#625D6B;" d="M326.621,278.069L326.621,278.069V384h-88.276v-17.655
	C238.345,317.591,277.867,278.069,326.621,278.069z"/>
<rect x="8.828" y="313.379" style="fill:#FFC84B;" width="105.931" height="70.621"/>
<g>
	<circle style="fill:#504B5A;" cx="326.621" cy="366.345" r="61.793"/>
	<circle style="fill:#504B5A;" cx="44.138" cy="384" r="44.138"/>
</g>
<circle style="fill:#FFDC5A;" cx="326.621" cy="366.345" r="35.31"/>
<circle style="fill:#736F7B;" cx="326.621" cy="366.345" r="17.655"/>
<circle style="fill:#FFC84B;" cx="44.138" cy="384" r="17.655"/>
<path style="fill:#FFDC5A;" d="M44.138,322.207c34.127,0,61.793,27.666,61.793,61.793c0,0.744-0.018,1.483-0.051,2.219
	c-0.161,3.618,2.78,6.609,6.401,6.609h127.951c5.639,0,9.696-5.212,8.556-10.734c-1.049-5.087-1.617-10.348-1.617-15.748
	c0-24.186,10.845-45.81,27.894-60.382l-36.278-36.278c-11.588-11.588-27.306-18.099-43.694-18.099H17.655
	C7.904,251.586,0,259.49,0,269.241v53.639c0,6.879,7.438,10.958,13.4,7.526C22.451,325.193,32.942,322.207,44.138,322.207z"/>
<path style="fill:#FFC84B;" d="M240.104,392.828c-4.113,0-7.793-2.883-8.642-7.069c-1.289-6.345-1.944-12.875-1.944-19.414
	c0-53.543,43.561-97.103,97.103-97.103c4.875,0,8.828,3.953,8.828,8.828s-3.953,8.828-8.828,8.828
	c-43.806,0-79.448,35.642-79.448,79.448c0,5.357,0.534,10.707,1.59,15.896c0.97,4.776-2.116,9.44-6.892,10.41
	C241.276,392.771,240.685,392.828,240.104,392.828z"/>
<g>
	<path style="fill:#625D6B;" d="M150.069,233.931H270.76c9.23,0,12.503-6.223,7.274-13.828l-72.828-105.931
		c-1.646-2.396-4.367-3.827-7.274-3.827h-47.863c-4.875,0-8.828,3.953-8.828,8.828v105.931
		C141.241,229.978,145.194,233.931,150.069,233.931z"/>
	<path style="fill:#625D6B;" d="M114.759,110.345H88.276c-4.875,0-8.828,3.953-8.828,8.828v105.931c0,4.875,3.953,8.828,8.828,8.828
		h26.483c4.875,0,8.828-3.953,8.828-8.828V119.172C123.586,114.297,119.634,110.345,114.759,110.345z"/>
	<path style="fill:#625D6B;" d="M503.172,410.483h-97.103c-4.875,0-8.828-3.953-8.828-8.828V278.069
		c0-4.875,3.953-8.828,8.828-8.828s8.828,3.953,8.828,8.828v114.759h88.276c4.875,0,8.828,3.953,8.828,8.828
		S508.047,410.483,503.172,410.483z"/>
</g>
<g>
</g>
<g>
</g>
<g>
</g>
<g>
</g>
<g>
</g>
<g>
</g>
<g>
</g>
<g>
</g>
<g>
</g>
<g>
</g>
<g>
</g>
<g>
</g>
<g>
</g>
<g>
</g>
<g>
</g>
</svg>
