<?xml version="1.0" encoding="iso-8859-1"?>
<!-- Generator: Adobe Illustrator 19.0.0, SVG Export Plug-In . SVG Version: 6.00 Build 0)  -->
<svg version="1.1" id="Layer_1" xmlns="http://www.w3.org/2000/svg" xmlns:xlink="http://www.w3.org/1999/xlink" x="0px" y="0px"
	 viewBox="0 0 512 512" style="enable-background:new 0 0 512 512;" xml:space="preserve">
<path style="fill:#736F7B;" d="M353.103,238.345h-17.655v-80.959c0-7.026,2.791-13.763,7.758-18.731l4.534-4.534
	c1.952-1.952,5.117-1.952,7.069,0l5.414,5.414c1.952,1.952,1.952,5.117,0,7.069l-4.534,4.534c-1.656,1.656-2.586,3.902-2.586,6.243
	v80.964H353.103z"/>
<path style="fill:#514A5B;" d="M150.069,220.69v26.483c-4.875,0-8.828,3.953-8.828,8.828s3.953,8.828,8.828,8.828h26.483V220.69
	H150.069z"/>
<path style="fill:#504B5A;" d="M35.31,406.069H8.828c-4.875,0-8.828-3.953-8.828-8.828l0,0c0-4.875,3.953-8.828,8.828-8.828H35.31
	V406.069z"/>
<path style="fill:#FFDC5A;" d="M326.621,229.517h100.046c3.82,0,7.537,1.239,10.593,3.531l58.85,44.138
	c4.446,3.335,7.062,8.567,7.062,14.124v52.966c0,4.875-3.953,8.828-8.828,8.828H326.621V229.517z"/>
<path style="fill:#FFC84B;" d="M326.621,291.31v26.483H158.897c-4.875,0-8.828,3.953-8.828,8.828v35.31
	c0,4.875,3.953,8.828,8.828,8.828h194.207v-17.655h141.241c4.875,0,8.828-3.953,8.828-8.828V291.31H326.621z"/>
<g>
	<rect x="150.069" y="123.586" style="fill:#625D6B;" width="17.655" height="97.103"/>
	<rect x="291.31" y="123.586" style="fill:#625D6B;" width="17.655" height="97.103"/>
	<path style="fill:#625D6B;" d="M203.034,229.517v-35.31c0-4.875-3.953-8.828-8.828-8.828l0,0c-4.875,0-8.828,3.953-8.828,8.828V256
		h52.966v-17.655c0-4.875-3.953-8.828-8.828-8.828H203.034z"/>
</g>
<path style="fill:#8D8A94;" d="M503.172,353.103h-70.621v26.483h70.621c4.875,0,8.828-3.953,8.828-8.828v-8.828
	C512,357.056,508.047,353.103,503.172,353.103z"/>
<path style="fill:#625D6B;" d="M441.379,406.069H194.207c-14.626,0-26.483-11.857-26.483-26.483l0,0
	c0-14.626,11.857-26.483,26.483-26.483h247.172c14.626,0,26.483,11.857,26.483,26.483l0,0
	C467.862,394.212,456.006,406.069,441.379,406.069z"/>
<g>
	<circle style="fill:#504B5A;" cx="194.207" cy="379.586" r="13.241"/>
	<circle style="fill:#504B5A;" cx="441.379" cy="379.586" r="13.241"/>
</g>
<g>
	<path style="fill:#FFDC5A;" d="M308.966,211.862h-26.483c-4.875,0-8.828,3.953-8.828,8.828v17.655c0,4.875-3.953,8.828-8.828,8.828
		h-61.793c-4.875,0-8.828-3.953-8.828-8.828V220.69c0-4.875-3.953-8.828-8.828-8.828h-44.138c-4.875,0-8.828,3.953-8.828,8.828
		s3.953,8.828,8.828,8.828h26.483v52.966c0,29.252,23.713,52.966,52.966,52.966h97.103c4.875,0,8.828-3.953,8.828-8.828v-97.103
		C326.621,219.766,318.716,211.862,308.966,211.862z"/>
	<path style="fill:#FFDC5A;" d="M317.793,123.586H141.241c-4.875,0-8.828-3.953-8.828-8.828l0,0c0-4.875,3.953-8.828,8.828-8.828
		h176.552c4.875,0,8.828,3.953,8.828,8.828l0,0C326.621,119.634,322.668,123.586,317.793,123.586z"/>
</g>
<path style="fill:#504B5A;" d="M406.069,370.759H252.828c-4.328,0-8.495-1.582-11.729-4.461l-24.672-21.931
	c-6.474-5.75-14.802-8.918-23.462-8.918H35.31v17.655h26.483v35.31h17.655v-35.31h17.655v35.31h26.483v-35.31h69.379
	c4.328,0,8.495,1.582,11.729,4.461l24.672,21.931c6.474,5.75,14.802,8.918,23.462,8.918h153.241c4.875,0,8.828-3.953,8.828-8.828
	S410.944,370.759,406.069,370.759z"/>
<g>
	<path style="fill:#625D6B;" d="M123.586,379.586H44.138v-44.138c0-4.875-3.953-8.828-8.828-8.828s-8.828,3.953-8.828,8.828v61.793
		c0,4.875,3.953,8.828,8.828,8.828h88.276c4.875,0,8.828-3.953,8.828-8.828v-8.828C132.414,383.538,128.461,379.586,123.586,379.586
		z"/>
	<path style="fill:#625D6B;" d="M282.483,308.966h17.655c4.875,0,8.828-3.953,8.828-8.828l0,0c0-4.875-3.953-8.828-8.828-8.828
		h-17.655c-4.875,0-8.828,3.953-8.828,8.828l0,0C273.655,305.013,277.608,308.966,282.483,308.966z"/>
	<path style="fill:#625D6B;" d="M282.483,282.483h17.655c4.875,0,8.828-3.953,8.828-8.828l0,0c0-4.875-3.953-8.828-8.828-8.828
		h-17.655c-4.875,0-8.828,3.953-8.828,8.828l0,0C273.655,278.53,277.608,282.483,282.483,282.483z"/>
</g>
<g>
</g>
<g>
</g>
<g>
</g>
<g>
</g>
<g>
</g>
<g>
</g>
<g>
</g>
<g>
</g>
<g>
</g>
<g>
</g>
<g>
</g>
<g>
</g>
<g>
</g>
<g>
</g>
<g>
</g>
</svg>
