<?xml version="1.0" encoding="iso-8859-1"?>
<!-- Generator: Adobe Illustrator 19.0.0, SVG Export Plug-In . SVG Version: 6.00 Build 0)  -->
<svg version="1.1" id="Layer_1" xmlns="http://www.w3.org/2000/svg" xmlns:xlink="http://www.w3.org/1999/xlink" x="0px" y="0px"
	 viewBox="0 0 512 512" style="enable-background:new 0 0 512 512;" xml:space="preserve">
<rect x="321.212" y="249.615" transform="matrix(-0.3417 0.9398 -0.9398 -0.3417 708.5747 44.028)" style="fill:#736F7B;" width="35.31" height="41.125"/>
<path style="fill:#FFC84B;" d="M311.108,288.276l-33.785-12.286l18.101-49.777l33.785,12.286c4.582,1.666,6.945,6.731,5.279,11.313
	l-12.067,33.184C320.755,287.579,315.69,289.942,311.108,288.276z"/>
<rect x="314.06" y="259.249" transform="matrix(-0.3417 0.9398 -0.9398 -0.3417 707.5314 86.6488)" style="fill:#8D8A94;" width="18.718" height="63.747"/>
<path style="fill:#FFDC5A;" d="M323.252,212.046l-20.212-43.31c-1.98-4.243-5.565-7.526-9.965-9.127L186.69,120.923
	c-7.388-2.687-15.221-3.938-23.078-3.689l-130.648,4.148L8.83,187.751l97.468,87.098c5.862,5.238,12.67,9.31,20.057,11.997
	l106.385,38.686c4.401,1.6,9.257,1.387,13.5-0.594l43.31-20.212c4.243-1.98,7.526-5.565,9.127-9.965l25.17-69.216
	C325.446,221.145,325.231,216.288,323.252,212.046z"/>
<path style="fill:#FFC84B;" d="M5.813,196.047L5.813,196.047c-4.582-1.666-6.945-6.731-5.279-11.313l24.135-66.369
	c1.666-4.582,6.731-6.945,11.313-5.279l0,0c4.582,1.666,6.945,6.731,5.279,11.313l-24.135,66.369
	C15.46,195.349,10.396,197.713,5.813,196.047z"/>
<path style="fill:#736F7B;" d="M406.069,333.241H8.828c-4.875,0-8.828-3.953-8.828-8.828v-17.655c0-4.875,3.953-8.828,8.828-8.828
	h397.241V333.241z"/>
<path style="fill:#625D6B;" d="M414.897,333.241H8.828v26.483c0,4.875,3.953,8.828,8.828,8.828h397.241V333.241z"/>
<path style="fill:#FFDC5A;" d="M446.909,165.518h-58.495c-4.875,0-8.828,3.953-8.828,8.828v132.414c0,4.875,3.953,8.828,8.828,8.828
	h22.069v44.138h92.69v-63.058c0-10.835-1.995-21.577-5.884-31.689l-33.901-88.143C460.765,170.016,454.214,165.518,446.909,165.518z
	"/>
<rect x="410.483" y="315.586" style="fill:#FFC84B;" width="92.69" height="44.138"/>
<circle style="fill:#EDEDEE;" cx="75.034" cy="364.138" r="40.46"/>
<path style="fill:#504B5A;" d="M75.034,412.689c-26.773,0-48.552-21.779-48.552-48.552c0-26.773,21.779-48.552,48.552-48.552
	s48.552,21.779,48.552,48.552C123.586,390.91,101.807,412.689,75.034,412.689z M75.034,333.241
	c-17.039,0-30.897,13.857-30.897,30.897s13.857,30.897,30.897,30.897s30.897-13.857,30.897-30.897S92.074,333.241,75.034,333.241z"
	/>
<circle style="fill:#DCDBDE;" cx="75.034" cy="364.138" r="17.655"/>
<circle style="fill:#EDEDEE;" cx="172.138" cy="364.138" r="40.46"/>
<path style="fill:#504B5A;" d="M172.138,412.689c-26.773,0-48.552-21.779-48.552-48.552c0-26.773,21.779-48.552,48.552-48.552
	s48.552,21.779,48.552,48.552C220.69,390.91,198.911,412.689,172.138,412.689z M172.138,333.241
	c-17.039,0-30.897,13.857-30.897,30.897s13.857,30.897,30.897,30.897s30.897-13.857,30.897-30.897S189.177,333.241,172.138,333.241z
	"/>
<circle style="fill:#DCDBDE;" cx="172.138" cy="364.138" r="17.655"/>
<circle style="fill:#EDEDEE;" cx="410.483" cy="364.138" r="40.46"/>
<path style="fill:#504B5A;" d="M410.483,412.689c-26.773,0-48.552-21.779-48.552-48.552c0-26.773,21.779-48.552,48.552-48.552
	s48.552,21.779,48.552,48.552C459.034,390.91,437.256,412.689,410.483,412.689z M410.483,333.241
	c-17.039,0-30.897,13.857-30.897,30.897s13.857,30.897,30.897,30.897s30.897-13.857,30.897-30.897S427.522,333.241,410.483,333.241z
	"/>
<circle style="fill:#DCDBDE;" cx="410.483" cy="364.138" r="17.655"/>
<path style="fill:#625D6B;" d="M494.345,368.551h8.828c4.875,0,8.828-3.953,8.828-8.828v-17.655c0-4.875-3.953-8.828-8.828-8.828
	h-8.828c-4.875,0-8.828,3.953-8.828,8.828v17.655C485.517,364.599,489.469,368.551,494.345,368.551z"/>
<path style="fill:#EDEDEE;" d="M494.345,297.931h8.828v26.483h-8.828c-4.875,0-8.828-3.953-8.828-8.828v-8.828
	C485.517,301.883,489.469,297.931,494.345,297.931z"/>
<path style="fill:#625D6B;" d="M444.242,183.173h-38.173c-4.875,0-8.828,3.953-8.828,8.828v44.138c0,4.875,3.953,8.828,8.828,8.828
	h64.779c4.476,0,7.56-4.49,5.953-8.668l-16.079-41.809C458.098,187.671,451.546,183.173,444.242,183.173z"/>
<path style="fill:#8D8A94;" d="M247.172,333.241h61.793c4.875,0,8.828,3.953,8.828,8.828v26.483c0,4.875-3.953,8.828-8.828,8.828
	h-61.793c-4.875,0-8.828-3.953-8.828-8.828v-26.483C238.345,337.193,242.297,333.241,247.172,333.241z"/>
<circle style="fill:#625D6B;" cx="256" cy="350.897" r="8.828"/>
<path style="fill:#8D8A94;" d="M370.759,183.173h-17.655v-54.481c0-2.342-0.93-4.588-2.586-6.243l-9.362-9.362
	c-1.724-1.724-1.724-4.519,0-6.242l6.241-6.241c1.724-1.724,4.519-1.724,6.242,0l9.362,9.362c4.968,4.968,7.758,11.705,7.758,18.731
	L370.759,183.173L370.759,183.173z"/>
<path style="fill:#A7A5AC;" d="M353.103,174.345h17.655c4.875,0,8.828,3.953,8.828,8.828v123.586c0,4.875-3.953,8.828-8.828,8.828
	h-17.655c-4.875,0-8.828-3.953-8.828-8.828V183.173C344.276,178.297,348.228,174.345,353.103,174.345z"/>
<path style="fill:#8D8A94;" d="M26.483,193.006v104.926h44.138L45.897,190.794c-1.03-4.461-5.002-7.622-9.581-7.622l0,0
	C30.886,183.173,26.483,187.574,26.483,193.006z"/>
<path style="fill:#FFC84B;" d="M108.184,276.381c4.657,3.842,9.838,6.97,15.402,9.306l60.237-165.653
	c-5.764-1.784-11.746-2.714-17.782-2.761L108.184,276.381z"/>
<g>
</g>
<g>
</g>
<g>
</g>
<g>
</g>
<g>
</g>
<g>
</g>
<g>
</g>
<g>
</g>
<g>
</g>
<g>
</g>
<g>
</g>
<g>
</g>
<g>
</g>
<g>
</g>
<g>
</g>
</svg>
