<?xml version="1.0" encoding="iso-8859-1"?>
<!-- Generator: Adobe Illustrator 19.0.0, SVG Export Plug-In . SVG Version: 6.00 Build 0)  -->
<svg version="1.1" id="Layer_1" xmlns="http://www.w3.org/2000/svg" xmlns:xlink="http://www.w3.org/1999/xlink" x="0px" y="0px"
	 viewBox="0 0 512 512" style="enable-background:new 0 0 512 512;" xml:space="preserve">
<g>
	
		<rect x="255.997" y="-33.601" transform="matrix(-0.8136 -0.5814 0.5814 -0.8136 359.3819 503.6214)" style="fill:#625D6B;" width="8.838" height="455.613"/>
	<path style="fill:#625D6B;" d="M465.187,204.555c-1.043-0.552-1.741-1.965-1.741-3.521v-11.237h-8.827v11.237
		c0,4.897,2.474,9.237,6.465,11.332c1.457,0.767,2.362,2.268,2.362,3.914c0,2.435-1.983,4.414-4.414,4.414s-4.414-1.978-4.414-4.414
		c0-2.44-1.974-4.414-4.414-4.414s-4.414,1.974-4.414,4.414c0,7.301,5.94,13.241,13.241,13.241s13.241-5.94,13.241-13.241
		C472.273,211.345,469.557,206.853,465.187,204.555z"/>
	<rect x="454.616" y="8.839" style="fill:#625D6B;" width="8.827" height="163.309"/>
</g>
<g>
	<path style="fill:#FFC84B;" d="M459.032,198.624L459.032,198.624c-4.875,0-8.827-3.953-8.827-8.827v-17.655
		c0-4.875,3.953-8.827,8.827-8.827l0,0c4.875,0,8.827,3.953,8.827,8.827v17.655C467.859,194.672,463.908,198.624,459.032,198.624z"
		/>
	<path style="fill:#FFC84B;" d="M410.481,35.316c-2.302,0-4.561-0.905-6.241-2.586l-17.655-17.655
		c-3.448-3.448-3.448-9.034,0-12.482s9.035-3.448,12.483,0l13.802,13.793l47.784-15.923c4.655-1.56,9.63,0.957,11.163,5.578
		c1.543,4.629-0.957,9.63-5.578,11.163l-52.965,17.655C412.361,35.169,411.412,35.316,410.481,35.316z"/>
</g>
<path style="fill:#FFDC5A;" d="M269.241,432.553c-0.983,0-1.983-0.163-2.957-0.509c-4.595-1.638-6.991-6.681-5.362-11.276
	l141.24-397.237c1.63-4.604,6.707-6.991,11.276-5.362c4.595,1.637,6.991,6.681,5.362,11.276L277.56,426.683
	C276.275,430.303,272.871,432.553,269.241,432.553z"/>
<polygon style="fill:#FFC84B;" points="335.775,495.725 233.931,430.915 132.088,495.725 141.57,510.621 225.103,457.463 
	225.103,503.173 242.758,503.173 242.758,457.463 326.293,510.621 "/>
<g>
	<path style="fill:#736F7B;" d="M242.758,423.725H83.863v-22.069c0-2.438,1.976-4.414,4.414-4.414h150.067
		c2.438,0,4.414,1.976,4.414,4.414V423.725z"/>
	<path style="fill:#736F7B;" d="M344.274,512H123.587c-2.437,0-4.414-1.976-4.414-4.414v-8.827c0-2.438,1.976-4.414,4.414-4.414
		h220.687c2.438,0,4.414,1.976,4.414,4.414v8.827C348.688,510.024,346.713,512,344.274,512z"/>
</g>
<path style="fill:#8D8A94;" d="M273.655,432.553H61.795c-2.437,0-4.414-1.976-4.414-4.414v-8.828c0-2.438,1.976-4.414,4.414-4.414
	h211.86c2.438,0,4.414,1.976,4.414,4.414v8.828C278.068,430.577,276.093,432.553,273.655,432.553z"/>
<path style="fill:#FFDC5A;" d="M123.588,485.518H44.141c-2.437,0-4.414-1.976-4.414-4.414v-44.137c0-2.438,1.976-4.414,4.414-4.414
	h79.447c2.437,0,4.414,1.976,4.414,4.414v44.137C128.002,483.542,126.026,485.518,123.588,485.518z"/>
<path style="fill:#736F7B;" d="M260.413,450.208h-52.965c-4.875,0-8.827-3.953-8.827-8.828v-8.827h70.62v8.827
	C269.241,446.255,265.289,450.208,260.413,450.208z"/>
<path style="fill:#FFC84B;" d="M114.761,397.243h-35.31c-2.437,0-4.414-1.976-4.414-4.414v-35.31c0-2.438,1.976-4.414,4.414-4.414
	h35.31c2.437,0,4.414,1.976,4.414,4.414v35.31C119.175,395.267,117.198,397.243,114.761,397.243z"/>
<path style="fill:#625D6B;" d="M132.416,397.243h-35.31c-7.312,0-13.241-5.929-13.241-13.241l0,0
	c0-7.312,5.929-13.241,13.241-13.241h35.31c7.312,0,13.241,5.929,13.241,13.241l0,0
	C145.657,391.314,139.728,397.243,132.416,397.243z"/>
<g>
	<circle style="fill:#736F7B;" cx="97.102" cy="383.996" r="13.241"/>
	<circle style="fill:#736F7B;" cx="132.412" cy="383.996" r="13.241"/>
</g>
<g>
</g>
<g>
</g>
<g>
</g>
<g>
</g>
<g>
</g>
<g>
</g>
<g>
</g>
<g>
</g>
<g>
</g>
<g>
</g>
<g>
</g>
<g>
</g>
<g>
</g>
<g>
</g>
<g>
</g>
</svg>
