<?xml version="1.0" encoding="iso-8859-1"?>
<!-- Generator: Adobe Illustrator 19.0.0, SVG Export Plug-In . SVG Version: 6.00 Build 0)  -->
<svg version="1.1" id="Layer_1" xmlns="http://www.w3.org/2000/svg" xmlns:xlink="http://www.w3.org/1999/xlink" x="0px" y="0px"
	 viewBox="0 0 512 512" style="enable-background:new 0 0 512 512;" xml:space="preserve">
<rect x="-47.31" y="256.008" transform="matrix(-0.2822 0.9594 -0.9594 -0.2822 289.4638 304.2578)" style="fill:#A7A5AC;" width="156.431" height="8.825"/>
<g>
	<path style="fill:#FFDC5A;" d="M8.828,326.621L8.828,326.621c4.875,0,8.828,3.953,8.828,8.828v35.31H0v-35.31
		C0,330.574,3.953,326.621,8.828,326.621z"/>
	
		<rect x="154.478" y="209.187" transform="matrix(-0.9558 0.2939 -0.2939 -0.9558 389.8911 479.8462)" style="fill:#FFDC5A;" width="8.827" height="120.062"/>
</g>
<path style="fill:#A7A5AC;" d="M92.151,112.647c-1.169-2.142-3.862-2.926-5.987-1.763c-2.142,1.169-2.931,3.849-1.763,5.987
	l52.966,97.103l7.75-4.224L92.151,112.647z"/>
<path style="fill:#FFC84B;" d="M135.165,230.28c-1.038-2.594,0.086-5.551,2.586-6.802l7.041-3.52
	c3.935-1.967,6.223-6.487,4.897-10.681c-1.689-5.342-7.615-7.687-12.396-5.31l-5.321,2.66c-2.812,1.406-6.225,0.108-7.392-2.81
	l-36.934-92.337c-0.922-2.289-2.75-4.095-5.06-4.97c-2.319-0.884-4.871-0.75-7.086,0.353l-17.655,8.828
	c-4.149,2.074-5.984,7.007-4.2,11.289l88.277,211.864l33.999-6.673L135.165,230.28z"/>
<g>
	<path style="fill:#FFDC5A;" d="M62.806,114.815c-4.802-0.547-9.219,2.91-9.784,7.758L26.539,352.091l17.543,2.026l26.483-229.517
		C71.121,119.755,67.647,115.376,62.806,114.815z"/>
	<path style="fill:#FFDC5A;" d="M150.069,370.759h70.621v-52.966h-70.621c-4.875,0-8.828,3.953-8.828,8.828v35.31
		C141.241,366.807,145.194,370.759,150.069,370.759z"/>
</g>
<path style="fill:#FFC84B;" d="M220.69,300.138h-13.241h-4.414h-4.414c-2.438,0-4.414,1.976-4.414,4.414v97.103
	c0,2.438,1.976,4.414,4.414,4.414h8.828c2.438,0,4.414-1.976,4.414-4.414v-30.897h8.828V300.138z"/>
<path style="fill:#625D6B;" d="M370.759,316.5h-8.828v-59.507c0-2.634,1.046-5.16,2.909-7.022l10.066-10.066
	c0.862-0.862,2.259-0.862,3.121,0l3.121,3.121c0.862,0.862,0.862,2.259,0,3.121l-9.418,9.418c-0.621,0.621-0.97,1.463-0.97,2.34
	V316.5z"/>
<polygon style="fill:#504B5A;" points="220.69,300.138 238.345,203.035 326.621,203.035 335.448,294.041 335.448,353.104 
	220.69,353.104 "/>
<g>
	<path style="fill:#625D6B;" d="M246.321,216.123l-16.803,84.015v26.483h44.138v-109.46c0-2.926-2.372-5.299-5.299-5.299h-16.84
		C248.991,211.862,246.816,213.646,246.321,216.123z"/>
	<path style="fill:#625D6B;" d="M313.053,211.862h-25.273c-2.925,0-5.297,2.371-5.297,5.297v109.462h38.841
		c2.925,0,5.297-2.371,5.297-5.297v-27.081c0-1.954-0.108-3.907-0.324-5.849l-7.98-71.821
		C318.018,213.892,315.751,211.862,313.053,211.862z"/>
</g>
<path style="fill:#FFDC5A;" d="M432.552,361.931v-32.738c0-11.943-7.993-22.408-19.514-25.549l-66.439-18.12
	c-5.615-1.532-11.15,2.696-11.15,8.516v67.891H432.552z"/>
<path style="fill:#FFC84B;" d="M300.138,370.759h39.724c2.438,0,4.414-1.976,4.414-4.414V348.69c0-2.438-1.976-4.414-4.414-4.414
	h-39.724V370.759z"/>
<circle style="fill:#625D6B;" cx="256" cy="353.104" r="52.966"/>
<circle style="fill:#B9B7BD;" cx="256" cy="353.104" r="26.483"/>
<circle style="fill:#8D8A94;" cx="256" cy="353.104" r="8.828"/>
<g>
	<path style="fill:#FFDC5A;" d="M306.724,326.617c-2.788,0-5.53-1.314-7.25-3.776c-9.914-14.215-26.169-22.702-43.475-22.702
		c-13.944,0-27.107,5.37-37.065,15.129c-3.478,3.405-9.074,3.353-12.482-0.129c-3.409-3.483-3.353-9.069,0.129-12.483
		c13.276-13.009,30.823-20.172,49.418-20.172c23.073,0,44.737,11.31,57.956,30.254c2.788,4,1.806,9.5-2.189,12.294
		C310.228,326.103,308.466,326.617,306.724,326.617z"/>
	<path style="fill:#FFDC5A;" d="M326.621,203.035h-88.276c-4.875,0-8.828-3.953-8.828-8.828l0,0c0-4.875,3.953-8.828,8.828-8.828
		h88.276c4.875,0,8.828,3.953,8.828,8.828l0,0C335.448,199.083,331.496,203.035,326.621,203.035z"/>
</g>
<path style="fill:#FFC84B;" d="M487.155,357.832L376.11,313.415l-18.193-11.844c-4.09-2.673-9.56-1.5-12.211,2.582
	c-2.659,4.082-1.504,9.551,2.582,12.211l114.759,74.72l9.63-14.793l-58.699-38.219l69.902,27.96L487.155,357.832z"/>
<g>
	<path style="fill:#625D6B;" d="M503.172,375.484v21.758H476.69v-44.138l22.552,15.034
		C501.697,369.776,503.172,372.532,503.172,375.484z"/>
	<circle style="fill:#625D6B;" cx="406.069" cy="370.759" r="35.31"/>
</g>
<circle style="fill:#B9B7BD;" cx="406.069" cy="370.759" r="17.655"/>
<path style="fill:#736F7B;" d="M503.172,406.069h-21.754c-12.341,0-22.383-10.043-22.383-22.383c0-4.427,1.298-8.715,3.754-12.405
	l15.383-23.073c2.702-4.056,8.172-5.164,12.242-2.449c4.056,2.707,5.151,8.185,2.449,12.242l-15.38,23.064
	c-0.517,0.776-0.793,1.685-0.793,2.621c0,2.607,2.121,4.728,4.728,4.728h21.756c4.875,0,8.828,3.953,8.828,8.828
	C512,402.117,508.047,406.069,503.172,406.069z"/>
<path style="fill:#75707C;" d="M211.862,406.069h-17.655c-2.438,0-4.414-1.976-4.414-4.414l0,0c0-2.438,1.976-4.414,4.414-4.414
	h17.655c2.438,0,4.414,1.976,4.414,4.414l0,0C216.276,404.093,214.3,406.069,211.862,406.069z"/>
<path style="fill:#736F7B;" d="M70.63,406.069c-0.052,0-0.113,0-0.163,0H33.793C15.164,406.069,0,390.906,0,372.276
	c0-9.026,3.517-17.517,9.897-23.896l19.172-19.172c1.94-1.94,4.698-2.862,7.414-2.508c2.724,0.362,5.129,1.983,6.492,4.371
	l32.767,57.344h3.706c4.879,0,8.828,3.948,8.828,8.828c0,4.879-3.948,8.828-8.828,8.828h-8.655
	C70.733,406.069,70.681,406.069,70.63,406.069z"/>
<path style="fill:#625D6B;" d="M79.448,406.069h-8.828c-3.168,0-6.094-1.698-7.663-4.448l-35.31-61.793
	c-2.418-4.233-0.948-9.625,3.285-12.043c4.237-2.41,9.625-0.948,12.043,3.285l32.767,57.344h3.706c4.875,0,8.828,3.953,8.828,8.828
	C88.276,402.117,84.323,406.069,79.448,406.069z"/>
<rect x="158.897" y="317.793" style="fill:#A7A5AC;" width="17.655" height="52.966"/>
<g>
</g>
<g>
</g>
<g>
</g>
<g>
</g>
<g>
</g>
<g>
</g>
<g>
</g>
<g>
</g>
<g>
</g>
<g>
</g>
<g>
</g>
<g>
</g>
<g>
</g>
<g>
</g>
<g>
</g>
</svg>
