<?xml version="1.0" encoding="iso-8859-1"?>
<!-- Generator: Adobe Illustrator 19.0.0, SVG Export Plug-In . SVG Version: 6.00 Build 0)  -->
<svg version="1.1" id="Layer_1" xmlns="http://www.w3.org/2000/svg" xmlns:xlink="http://www.w3.org/1999/xlink" x="0px" y="0px"
	 viewBox="0 0 512.001 512.001" style="enable-background:new 0 0 512.001 512.001;" xml:space="preserve">
<path style="fill:#FFC84B;" d="M193.396,105.932h-1.909c-2.525,0-4.698,1.782-5.194,4.258l-4.445,22.225h21.186l-4.445-22.225
	C198.094,107.714,195.921,105.932,193.396,105.932z"/>
<g>
	<path style="fill:#625D6B;" d="M89.345,182.793L76.862,170.31c-3.448-3.448-9.034-3.448-12.482,0
		c-3.448,3.448-3.448,9.035,0,12.483l12.482,12.483c1.668,1.668,2.586,3.887,2.586,6.246v36.823h17.655v-36.823
		C97.103,194.449,94.349,187.793,89.345,182.793z"/>
	<path style="fill:#625D6B;" d="M361.931,203.035L361.931,203.035c-4.875,0-8.828,3.953-8.828,8.828v26.483h17.655v-26.483
		C370.759,206.988,366.806,203.035,361.931,203.035z"/>
</g>
<path style="fill:#FFDC5A;" d="M8.828,229.518h379.586l44.138,97.103H105.935l-99.9-33.299C2.431,292.121,0,288.748,0,284.947
	v-46.602C0,233.47,3.953,229.518,8.828,229.518z"/>
<path style="fill:#FFC84B;" d="M423.724,307.201l-23.273-51.2H220.69v-26.483H114.759l0,0c0,14.626-11.857,26.483-26.483,26.483H0
	v28.948c0,3.799,2.431,7.174,6.036,8.374l99.9,33.299h317.789V307.201z"/>
<circle style="fill:#625D6B;" cx="105.931" cy="335.449" r="70.621"/>
<circle style="fill:#FFDC5A;" cx="105.931" cy="335.449" r="35.31"/>
<circle style="fill:#FFC84B;" cx="105.931" cy="335.449" r="17.655"/>
<path style="fill:#504B5A;" d="M405.31,225.927c-1.458-3.284-4.682-5.246-8.066-5.246c-1.199,0-7.277,0.092-8.83,0.049
	c-1.192-0.034-2.407,0.188-3.586,0.714c-4.457,1.983-6.457,7.198-4.483,11.656l44.483,100.142l15.793-27.866L405.31,225.927z"/>
<path style="fill:#625D6B;" d="M503.172,397.242h-61.793c-9.737,0-17.655-7.918-17.655-17.655v-91.375
	c0-4.75,0.763-9.444,2.263-13.953l7.017-21.052c1.539-4.621,6.526-7.147,11.168-5.582c4.625,1.543,7.125,6.543,5.582,11.168
	l-7.017,21.047c-0.9,2.702-1.357,5.522-1.357,8.371v91.377h61.793c4.875,0,8.828,3.953,8.828,8.828S508.047,397.242,503.172,397.242
	z"/>
<g>
	<path style="fill:#504B5A;" d="M31.005,317.794c-0.979,0-1.97-0.163-2.944-0.509c-4.595-1.625-7.005-6.668-5.379-11.267
		c12.448-35.198,45.9-58.845,83.25-58.845c13.771,0,26.974,3.091,39.238,9.181c4.366,2.168,6.146,7.466,3.978,11.832
		c-2.173,4.362-7.462,6.155-11.832,3.978c-9.801-4.866-20.358-7.336-31.383-7.336c-29.884,0-56.647,18.919-66.603,47.078
		C38.047,315.526,34.643,317.794,31.005,317.794z"/>
	<path style="fill:#504B5A;" d="M261.656,246.487l-36.942-110.828c-2.403-7.209-9.15-12.072-16.749-12.072h-75.551
		c-9.751,0-17.655,7.904-17.655,17.655v82.598c0,8.13,5.546,15.268,13.461,17.127c42.882,10.069,74.815,48.527,74.815,94.483h61.793
		v-69.421C264.828,259.386,263.756,252.787,261.656,246.487z"/>
</g>
<path style="fill:#625D6B;" d="M138.761,234.798c8.682,2.814,16.83,6.684,24.31,11.456c5.848,3.732,13.481-0.497,13.481-7.435
	v-97.577c0-4.875-3.953-8.828-8.828-8.828h-26.483c-4.875,0-8.828,3.953-8.828,8.828v85.109
	C132.414,230.267,135.036,233.591,138.761,234.798z"/>
<path style="fill:#736F7B;" d="M203.034,317.794c-4.875,0-8.828,3.953-8.828,8.828s3.953,8.828,8.828,8.828h70.621v-17.655H203.034z
	"/>
<circle style="fill:#625D6B;" cx="335.448" cy="335.449" r="70.621"/>
<circle style="fill:#FFDC5A;" cx="335.448" cy="335.449" r="35.31"/>
<circle style="fill:#FFC84B;" cx="335.448" cy="335.449" r="17.655"/>
<path style="fill:#504B5A;" d="M388.423,285.07c-2.094,0-4.199-0.742-5.884-2.25c-12.962-11.604-29.686-17.992-47.091-17.992
	c-17.401,0-34.121,6.383-47.078,17.978c-3.638,3.254-9.219,2.94-12.466-0.69c-3.25-3.634-2.944-9.216,0.69-12.466
	c16.199-14.496,37.099-22.478,58.854-22.478c21.759,0,42.664,7.987,58.867,22.492c3.634,3.25,3.939,8.832,0.69,12.466
	C393.258,284.078,390.849,285.07,388.423,285.07z"/>
<path style="fill:#625D6B;" d="M211.618,300.138h35.554c4.875,0,8.828-3.953,8.828-8.828v-25.283c0-5.693-0.918-11.349-2.718-16.749
	L216.339,138.45c-1.202-3.605-4.575-6.036-8.374-6.036h-13.758c-4.875,0-8.828,3.953-8.828,8.828v120.91
	c0,2.052,0.758,4.003,2.07,5.581c6.642,7.988,11.977,17.036,16.007,26.785C204.841,297.87,207.991,300.138,211.618,300.138z"/>
<g>
</g>
<g>
</g>
<g>
</g>
<g>
</g>
<g>
</g>
<g>
</g>
<g>
</g>
<g>
</g>
<g>
</g>
<g>
</g>
<g>
</g>
<g>
</g>
<g>
</g>
<g>
</g>
<g>
</g>
</svg>
