<?xml version="1.0" encoding="iso-8859-1"?>
<!-- Generator: Adobe Illustrator 19.0.0, SVG Export Plug-In . SVG Version: 6.00 Build 0)  -->
<svg version="1.1" id="Layer_1" xmlns="http://www.w3.org/2000/svg" xmlns:xlink="http://www.w3.org/1999/xlink" x="0px" y="0px"
	 viewBox="0 0 512 512" style="enable-background:new 0 0 512 512;" xml:space="preserve">
<g>
	<rect x="220.69" y="216.276" style="fill:#625D6B;" width="17.655" height="26.483"/>
	<path style="fill:#625D6B;" d="M273.655,242.759H256V197.11c0-7.026,2.791-13.763,7.758-18.731l4.534-4.534
		c1.952-1.952,5.117-1.952,7.069,0l5.414,5.414c1.952,1.952,1.952,5.117,0,7.069l-4.534,4.534c-1.656,1.656-2.586,3.902-2.586,6.243
		v45.654H273.655z"/>
</g>
<polygon style="fill:#A7A5AC;" points="404.638,324.887 367.25,275.996 374.266,270.634 411.655,319.526 "/>
<polygon style="fill:#504B5A;" points="185.379,128 61.793,128 35.31,286.897 194.207,286.897 203.034,233.931 "/>
<polygon style="fill:#736F7B;" points="308.966,242.759 203.034,233.931 167.724,286.897 308.966,286.897 "/>
<path style="fill:#625D6B;" d="M67.382,225.103h29.721c2.438,0,4.414-1.976,4.414-4.414v-70.621c0-2.438-1.976-4.414-4.414-4.414
	H79.046c-2.315,0-4.29,1.673-4.671,3.956L62.711,219.59C62.231,222.476,64.457,225.103,67.382,225.103z"/>
<path style="fill:#FFDC5A;" d="M8.828,233.931h79.448c4.875,0,8.828,3.951,8.828,8.828l0.002,35.31c0,4.875,3.953,8.828,8.828,8.828
	h179.01c3.799,0,7.174-2.431,8.374-6.036l13.631-40.894c1.202-3.605,4.575-6.036,8.374-6.036h55.436v132.414H97.102l0.001-79.448
	H8.828c-4.875,0-8.828-3.953-8.828-8.828v-35.31C0,237.884,3.953,233.931,8.828,233.931z"/>
<path style="fill:#504B5A;" d="M291.31,392.828H44.138C19.762,392.828,0,373.066,0,348.69l0,0c0-24.376,19.762-44.138,44.138-44.138
	H291.31c24.376,0,44.138,19.762,44.138,44.138l0,0C335.448,373.066,315.687,392.828,291.31,392.828z"/>
<rect x="44.138" y="322.207" style="fill:#625D6B;" width="247.172" height="35.31"/>
<rect x="44.138" y="339.862" style="fill:#FFC84B;" width="247.172" height="35.31"/>
<g>
	<path style="fill:#FFDC5A;" d="M114.759,348.69L114.759,348.69c-4.875,0-8.828-3.953-8.828-8.828v-17.655
		c0-4.875,3.953-8.828,8.828-8.828l0,0c4.875,0,8.828,3.953,8.828,8.828v17.655C123.586,344.737,119.634,348.69,114.759,348.69z"/>
	<path style="fill:#FFDC5A;" d="M229.517,348.69L229.517,348.69c-4.875,0-8.828-3.953-8.828-8.828v-17.655
		c0-4.875,3.953-8.828,8.828-8.828l0,0c4.875,0,8.828,3.953,8.828,8.828v17.655C238.345,344.737,234.392,348.69,229.517,348.69z"/>
	<circle style="fill:#FFDC5A;" cx="44.138" cy="348.69" r="26.483"/>
	<circle style="fill:#FFDC5A;" cx="291.31" cy="348.69" r="26.483"/>
</g>
<rect x="348.718" y="274.481" transform="matrix(-0.3164 -0.9486 0.9486 -0.3164 144.0956 792.3707)" style="fill:#FFC84B;" width="17.655" height="139.572"/>
<path style="fill:#8D8A94;" d="M211.862,357.517c-4.875,0-8.828,3.953-8.828,8.828l0,0c0,4.875,3.953,8.828,8.828,8.828h229.517
	v-17.655H211.862z"/>
<path style="fill:#FFDC5A;" d="M432.552,366.345v-57.379c0-2.438,1.976-4.414,4.414-4.414h8.118c3.168,0,6.093,1.697,7.665,4.448
	l32.769,57.345h17.655c4.875,0,8.828,3.953,8.828,8.828l0,0c0,4.875-3.953,8.828-8.828,8.828h-52.966
	C440.456,384,432.552,376.095,432.552,366.345z"/>
<g>
	<path style="fill:#FFC84B;" d="M414.897,357.517h17.655v-57.379c0-2.438-1.976-4.414-4.414-4.414h-8.828
		c-2.438,0-4.414,1.976-4.414,4.414V357.517z"/>
	<path style="fill:#FFC84B;" d="M264.828,286.897H17.655l6.388,12.776c1.495,2.99,4.552,4.879,7.895,4.879h232.889
		c4.875,0,8.828-3.953,8.828-8.828l0,0C273.655,290.849,269.703,286.897,264.828,286.897z"/>
</g>
<path style="fill:#736F7B;" d="M185.379,136.828H61.793c-4.875,0-8.828-3.953-8.828-8.828l0,0c0-4.875,3.953-8.828,8.828-8.828
	h123.586c4.875,0,8.828,3.953,8.828,8.828l0,0C194.207,132.875,190.254,136.828,185.379,136.828z"/>
<path style="fill:#FFC84B;" d="M378.237,297.62l-70.921-92.74c-2.961-3.871-2.222-9.408,1.647-12.37l0,0
	c3.871-2.962,9.411-2.223,12.372,1.649l70.92,92.738c1.463,1.913,1.099,4.652-0.814,6.115l-7.086,5.422
	C382.44,299.898,379.701,299.534,378.237,297.62z"/>
<path style="fill:#736F7B;" d="M242.759,225.103h-26.483c-2.438,0-4.414-1.976-4.414-4.414v-8.828c0-2.438,1.976-4.414,4.414-4.414
	h26.483c2.438,0,4.414,1.976,4.414,4.414v8.828C247.172,223.127,245.196,225.103,242.759,225.103z"/>
<path style="fill:#625D6B;" d="M119.172,145.655c-2.438,0-4.414,1.976-4.414,4.414v123.593c0,2.434,1.973,4.407,4.407,4.407h34.732
	c3.101,0,5.974-1.626,7.57-4.286l20.567-34.278c2.158-3.598,2.966-7.848,2.275-11.986l-12.415-74.487
	c-0.71-4.256-4.392-7.377-8.707-7.377h-44.015V145.655z"/>
<g>
</g>
<g>
</g>
<g>
</g>
<g>
</g>
<g>
</g>
<g>
</g>
<g>
</g>
<g>
</g>
<g>
</g>
<g>
</g>
<g>
</g>
<g>
</g>
<g>
</g>
<g>
</g>
<g>
</g>
</svg>
