<?xml version="1.0" encoding="iso-8859-1"?>
<!-- Generator: Adobe Illustrator 19.0.0, SVG Export Plug-In . SVG Version: 6.00 Build 0)  -->
<svg version="1.1" id="Layer_1" xmlns="http://www.w3.org/2000/svg" xmlns:xlink="http://www.w3.org/1999/xlink" x="0px" y="0px"
	 viewBox="0 0 512.001 512.001" style="enable-background:new 0 0 512.001 512.001;" xml:space="preserve">
<path style="fill:#CAC9CD;" d="M426.785,173.56h-62.31c-4.792,0-8.678,3.886-8.678,8.678v34.712h86.78l-7.283-36.414
	C434.484,176.48,430.921,173.56,426.785,173.56z"/>
<g>
	<path style="fill:#504B5A;" d="M407.865,186.577v30.373h34.712l-6.942-34.712h-23.431
		C409.808,182.238,407.865,184.18,407.865,186.577z"/>
	<path style="fill:#504B5A;" d="M399.187,216.949h-26.034v-30.373c0-2.396,1.943-4.339,4.339-4.339h17.356
		c2.396,0,4.339,1.943,4.339,4.339V216.949z"/>
</g>
<g>
	<path style="fill:#FFC84B;" d="M442.577,303.729H269.018c-4.792,0-8.678-3.886-8.678-8.678v-26.034
		c0-4.792,3.886-8.678,8.678-8.678h173.559V303.729z"/>
	<path style="fill:#FFC84B;" d="M199.595,303.729h-43.39v-43.39h43.39c4.792,0,8.678,3.886,8.678,8.678v26.034
		C208.273,299.844,204.387,303.729,199.595,303.729z"/>
</g>
<rect x="95.458" y="225.627" style="fill:#504B5A;" width="321.085" height="43.39"/>
<circle style="fill:#625D6B;" cx="121.492" cy="303.729" r="60.746"/>
<circle style="fill:#FFDC5A;" cx="121.492" cy="303.729" r="34.712"/>
<circle style="fill:#FFC84B;" cx="121.492" cy="303.729" r="17.356"/>
<circle style="fill:#625D6B;" cx="347.119" cy="303.729" r="60.746"/>
<circle style="fill:#FFDC5A;" cx="347.119" cy="303.729" r="34.712"/>
<circle style="fill:#FFC84B;" cx="347.119" cy="303.729" r="17.356"/>
<path style="fill:#FFDC5A;" d="M381.831,216.949l49.601,90.935c1.521,2.788,4.443,4.522,7.618,4.522h55.594
	c4.792,0,8.678-3.886,8.678-8.678v-86.78H381.831z"/>
<g>
	<path style="fill:#FFC84B;" d="M503.323,225.627H355.797c-4.792,0-8.678-3.886-8.678-8.678l0,0c0-4.792,3.886-8.678,8.678-8.678
		h147.525c4.792,0,8.678,3.886,8.678,8.678l0,0C512.001,221.742,508.116,225.627,503.323,225.627z"/>
	<path style="fill:#FFC84B;" d="M235.632,312.407h-2.653c-4.242,0-7.862-3.067-8.56-7.252l-6.761-40.567
		c-0.472-2.829-0.708-5.692-0.708-8.56v-30.401h34.712v30.401c0,2.868-0.236,5.731-0.708,8.56l-6.761,40.567
		C243.496,309.341,239.875,312.407,235.632,312.407z"/>
	<path style="fill:#FFC84B;" d="M52.07,156.204H347.12l-21.811,58.162c-2.54,6.774-9.016,11.262-16.251,11.262H95.458L8.68,190.916
		L52.07,156.204z"/>
</g>
<path style="fill:#FFDC5A;" d="M468.611,147.526H52.068c-1.974,0-3.881,0.669-5.424,1.903L3.255,184.14
	c-3.737,2.992-4.348,8.453-1.356,12.195c1.721,2.145,4.238,3.259,6.788,3.259c1.898,0,3.814-0.623,5.415-1.903l41.009-32.809h32.963
	L64.002,184.14c-3.737,2.992-4.348,8.453-1.356,12.195c1.72,2.145,4.237,3.259,6.788,3.259c1.898,0,3.814-0.623,5.415-1.903
	l41.011-32.809h31.333l-34.921,27.937c-3.737,2.992-4.348,8.453-1.356,12.195c1.72,2.145,4.237,3.259,6.788,3.259
	c1.898,0,3.814-0.623,5.415-1.903l51.86-41.487h31.333l-34.92,27.937c-3.737,2.992-4.348,8.453-1.356,12.195
	c1.72,2.145,4.237,3.259,6.788,3.259c1.898,0,3.814-0.623,5.415-1.903l51.858-41.487h31.333l-34.921,27.937
	c-3.737,2.992-4.348,8.453-1.356,12.195c1.72,2.145,4.237,3.259,6.788,3.259c1.898,0,3.814-0.623,5.415-1.903l51.86-41.487h31.333
	l-34.921,27.937c-3.737,2.992-4.348,8.453-1.356,12.195c1.72,2.145,4.237,3.259,6.788,3.259c1.898,0,3.814-0.623,5.415-1.903
	l51.86-41.487h116.276c4.797,0,8.678-3.886,8.678-8.678S473.408,147.526,468.611,147.526z"/>
<path style="fill:#625D6B;" d="M251.662,242.981H216.95c-4.792,0-8.678-3.886-8.678-8.678v-8.678h52.068v8.678
	C260.34,239.096,256.455,242.981,251.662,242.981z"/>
<g>
</g>
<g>
</g>
<g>
</g>
<g>
</g>
<g>
</g>
<g>
</g>
<g>
</g>
<g>
</g>
<g>
</g>
<g>
</g>
<g>
</g>
<g>
</g>
<g>
</g>
<g>
</g>
<g>
</g>
</svg>
