<?xml version="1.0" encoding="iso-8859-1"?>
<!-- Generator: Adobe Illustrator 19.0.0, SVG Export Plug-In . SVG Version: 6.00 Build 0)  -->
<svg version="1.1" id="Layer_1" xmlns="http://www.w3.org/2000/svg" xmlns:xlink="http://www.w3.org/1999/xlink" x="0px" y="0px"
	 viewBox="0 0 512.001 512.001" style="enable-background:new 0 0 512.001 512.001;" xml:space="preserve">
<rect x="322.19" y="22.748" transform="matrix(-0.5998 -0.8001 0.8001 -0.5998 433.6749 438.9373)" style="fill:#CAC9CD;" width="8.824" height="176.545"/>
<path style="fill:#FFDC5A;" d="M386.026,70.23l68.339,129.085c2.596,4.904,8.632,6.838,13.595,4.356l0,0
	c4.884-2.442,6.984-8.294,4.766-13.283L413.406,56.917c-3.835-8.627-14.513-11.724-22.367-6.487l0,0
	C384.534,54.766,382.369,63.322,386.026,70.23z"/>
<path style="fill:#FFC84B;" d="M238.042,326.147l-34.707-6.508l24.211-129.132c2.388-12.735,10.25-23.777,21.502-30.199
	l139.887-79.846c4.904-2.799,11.074-1.971,15.068,2.022l0,0c5.619,5.619,4.653,14.982-1.993,19.336l-132.685,86.932
	c-4.019,2.633-6.792,6.791-7.677,11.514L238.042,326.147z"/>
<rect x="158.897" y="367.03" style="fill:#625D6B;" width="105.931" height="35.31"/>
<path style="fill:#736F7B;" d="M141.241,287.583H35.31v-8.828c0-4.875,3.953-8.828,8.828-8.828h88.276
	c4.875,0,8.828,3.953,8.828,8.828V287.583z"/>
<path style="fill:#504B5A;" d="M353.103,464.134H52.966c-19.501,0-35.31-15.809-35.31-35.31l0,0c0-19.501,15.809-35.31,35.31-35.31
	h300.138c19.501,0,35.31,15.809,35.31,35.31l0,0C388.414,448.326,372.605,464.134,353.103,464.134z"/>
<rect x="52.966" y="411.168" style="fill:#625D6B;" width="300.138" height="35.31"/>
<g>
	<circle style="fill:#736F7B;" cx="52.966" cy="428.823" r="17.655"/>
	<circle style="fill:#736F7B;" cx="353.103" cy="428.823" r="17.655"/>
</g>
<path style="fill:#FFDC5A;" d="M267.748,225.79H158.897c-4.875,0-8.828,3.953-8.828,8.828v52.966H17.655
	c-4.875,0-8.828,3.953-8.828,8.828v61.793h291.31v-15.407c0-13.239-1.192-26.451-3.56-39.477l-11.46-63.032
	C283.592,231.892,276.28,225.79,267.748,225.79z"/>
<path style="fill:#504B5A;" d="M296.578,303.318l-11.46-63.032c-1.526-8.395-8.838-14.497-17.37-14.497h-91.196v97.103
	c0,4.875,3.953,8.828,8.828,8.828h114.26C299.161,322.2,298.285,312.705,296.578,303.318z"/>
<g>
	<path style="fill:#625D6B;" d="M287.893,304.897l-11.46-63.032c-0.764-4.198-4.418-7.249-8.685-7.249h-33.816
		c-2.438,0-4.414,1.976-4.414,4.414v79.448c0,2.438,1.976,4.414,4.414,4.414h51.416c2.607,0,4.68-2.286,4.406-4.879
		C289.263,313.373,288.65,309.059,287.893,304.897z"/>
	<path style="fill:#625D6B;" d="M441.379,305.238c-2.259,0-4.518-0.862-6.241-2.586c-3.448-3.448-3.448-9.035,0-12.483l6.241-6.241
		v-84.622c0-4.876,3.954-8.829,8.83-8.828l26.258,0.006c18.737,0.004,35.67,15.311,35.533,34.047
		c-0.065,8.931-3.576,17.319-9.896,23.639l-54.483,54.483C445.896,304.375,443.638,305.238,441.379,305.238z"/>
</g>
<path style="fill:#736F7B;" d="M441.379,305.238c-2.259,0-4.518-0.862-6.241-2.586c-3.448-3.448-3.448-9.035,0-12.483l44.138-44.138
	c3.448-3.448,9.035-3.448,12.483,0c3.448,3.448,3.448,9.034,0,12.482l-44.138,44.138
	C445.896,304.375,443.638,305.238,441.379,305.238z"/>
<path style="fill:#FFC84B;" d="M8.828,375.858h291.31c4.875,0,8.828-3.953,8.828-8.828v-8.828c0-4.875-3.953-8.828-8.828-8.828
	H8.828c-4.875,0-8.828,3.953-8.828,8.828v8.828C0,371.906,3.953,375.858,8.828,375.858z"/>
<path style="fill:#625D6B;" d="M216.276,296.411h-26.483c-2.438,0-4.414-1.976-4.414-4.414v-52.966c0-2.438,1.976-4.414,4.414-4.414
	h26.483c2.438,0,4.414,1.976,4.414,4.414v52.966C220.69,294.434,218.713,296.411,216.276,296.411z"/>
<g>
</g>
<g>
</g>
<g>
</g>
<g>
</g>
<g>
</g>
<g>
</g>
<g>
</g>
<g>
</g>
<g>
</g>
<g>
</g>
<g>
</g>
<g>
</g>
<g>
</g>
<g>
</g>
<g>
</g>
</svg>
