<?xml version="1.0" encoding="iso-8859-1"?>
<!-- Generator: Adobe Illustrator 19.0.0, SVG Export Plug-In . SVG Version: 6.00 Build 0)  -->
<svg version="1.1" id="Layer_1" xmlns="http://www.w3.org/2000/svg" xmlns:xlink="http://www.w3.org/1999/xlink" x="0px" y="0px"
	 viewBox="0 0 512 512" style="enable-background:new 0 0 512 512;" xml:space="preserve">
<rect x="150.069" y="397.241" style="fill:#A7A5AC;" width="308.966" height="8.828"/>
<polygon style="fill:#736F7B;" points="229.517,110.346 226.526,118 332.457,223.931 338.44,217.448 240.801,119.173 
	489.931,119.173 489.931,353.104 498.759,353.104 498.759,110.346 "/>
<g>
	<path style="fill:#504B5A;" d="M229.513,388.414c-1.953,0-3.914-0.647-5.539-1.956c-3.552-2.867-4.337-7.97-1.802-11.767
		l105.931-158.897c0.569-0.853,1.284-1.603,2.108-2.211L497.934,89.997c3.699-2.724,8.857-2.159,11.884,1.298
		c3.021,3.462,2.888,8.655-0.306,11.953L235.858,385.73C234.133,387.509,231.832,388.414,229.513,388.414z M341.931,226.875
		l-51.267,76.905l132.444-136.715L341.931,226.875z"/>
	<path style="fill:#504B5A;" d="M35.302,326.621c-1.642,0-3.306-0.457-4.789-1.418c-4.09-2.646-5.263-8.113-2.612-12.207
		l97.103-150.069c2.65-4.077,8.116-5.259,12.206-2.612c4.09,2.646,5.263,8.113,2.612,12.207L42.719,322.592
		C41.031,325.199,38.198,326.621,35.302,326.621z"/>
	<path style="fill:#504B5A;" d="M211.866,379.59c-3.53,0-6.862-2.13-8.224-5.617l-79.448-203.034
		c-1.621-4.138,0.09-8.836,3.991-10.966l97.103-52.966c2.733-1.495,6.056-1.431,8.733,0.16c2.681,1.59,4.323,4.474,4.323,7.591v256
		c0,4.875-3.953,8.828-8.828,8.828c-4.828,0-8.75-3.875-8.828-8.685c-0.056,3.474-2.177,6.733-5.612,8.077
		C214.022,379.393,212.936,379.59,211.866,379.59z M143.469,171.75l76.612,195.793c0.388,0.988,0.586,2.004,0.608,3.012V129.628
		L143.469,171.75z"/>
</g>
<circle style="fill:#625D6B;" cx="220.69" cy="379.586" r="17.655"/>
<g>
	<path style="fill:#FFC84B;" d="M97.103,308.966H79.448v-17.655c0-4.875,3.953-8.828,8.828-8.828l0,0
		c4.875,0,8.828,3.953,8.828,8.828V308.966z"/>
	<path style="fill:#FFC84B;" d="M141.241,308.966h-17.655v-17.655c0-4.875,3.953-8.828,8.828-8.828l0,0
		c4.875,0,8.828,3.953,8.828,8.828V308.966z"/>
</g>
<path style="fill:#625D6B;" d="M150.069,326.621h35.31c4.875,0,8.828,3.953,8.828,8.828v17.655h-44.138V326.621z"/>
<polygon style="fill:#504B5A;" points="26.483,388.414 26.483,397.242 61.793,414.897 167.724,414.897 203.034,397.242 
	203.034,388.414 "/>
<path style="fill:#625D6B;" d="M176.552,423.725H52.966c-4.875,0-8.828-3.953-8.828-8.828l0,0c0-4.875,3.953-8.828,8.828-8.828
	h123.586c4.875,0,8.828,3.953,8.828,8.828l0,0C185.379,419.772,181.427,423.725,176.552,423.725z"/>
<path style="fill:#736F7B;" d="M211.862,397.242H8.828c-4.875,0-8.828-3.953-8.828-8.828v-8.828h220.69v8.828
	C220.69,393.29,216.737,397.242,211.862,397.242z"/>
<path style="fill:#FFDC5A;" d="M158.897,379.587H0v-70.621c0-4.875,3.953-8.828,8.828-8.828h141.241
	c4.875,0,8.828,3.953,8.828,8.828V379.587z"/>
<path style="fill:#FFC84B;" d="M220.69,379.587h-61.793v-35.31h52.966c4.875,0,8.828,3.953,8.828,8.828V379.587z"/>
<path style="fill:#FFDC5A;" d="M459.034,414.897h44.138c4.875,0,8.828-3.953,8.828-8.828v-17.655c0-4.875-3.953-8.828-8.828-8.828
	h-52.966v26.483C450.207,410.945,454.158,414.897,459.034,414.897z"/>
<path style="fill:#FFC84B;" d="M467.862,414.897h-8.828c-4.875,0-8.828-3.953-8.828-8.828v-26.483c0-4.875,3.953-8.828,8.828-8.828
	l0,0c4.875,0,8.828,3.953,8.828,8.828V414.897z"/>
<path style="fill:#625D6B;" d="M494.345,344.277L494.345,344.277c-4.875,0-8.828,3.953-8.828,8.828v35.31
	c0,4.875,3.953,8.828,8.828,8.828l0,0c4.875,0,8.828-3.953,8.828-8.828v-35.31C503.172,348.228,499.22,344.277,494.345,344.277z"/>
<path style="fill:#FFC84B;" d="M114.759,388.414H52.966c-4.875,0-8.828-3.953-8.828-8.828v-17.655c0-4.875,3.953-8.828,8.828-8.828
	h61.793c4.875,0,8.828,3.953,8.828,8.828v17.655C123.586,384.462,119.634,388.414,114.759,388.414z"/>
<g>
	<path style="fill:#504B5A;" d="M30.897,335.449h-8.828c-2.438,0-4.414-1.976-4.414-4.414v-8.828c0-2.438,1.976-4.414,4.414-4.414
		h8.828c2.438,0,4.414,1.976,4.414,4.414v8.828C35.31,333.473,33.334,335.449,30.897,335.449z"/>
	<path style="fill:#504B5A;" d="M66.207,335.449h-8.828c-2.438,0-4.414-1.976-4.414-4.414v-8.828c0-2.438,1.976-4.414,4.414-4.414
		h8.828c2.438,0,4.414,1.976,4.414,4.414v8.828C70.621,333.473,68.644,335.449,66.207,335.449z"/>
	<path style="fill:#504B5A;" d="M136.828,335.449H128c-2.438,0-4.414-1.976-4.414-4.414v-8.828c0-2.438,1.976-4.414,4.414-4.414
		h8.828c2.438,0,4.414,1.976,4.414,4.414v8.828C141.241,333.473,139.265,335.449,136.828,335.449z"/>
	<path style="fill:#504B5A;" d="M101.517,335.449H92.69c-2.438,0-4.414-1.976-4.414-4.414v-8.828c0-2.438,1.976-4.414,4.414-4.414
		h8.828c2.438,0,4.414,1.976,4.414,4.414v8.828C105.931,333.473,103.955,335.449,101.517,335.449z"/>
</g>
<g>
</g>
<g>
</g>
<g>
</g>
<g>
</g>
<g>
</g>
<g>
</g>
<g>
</g>
<g>
</g>
<g>
</g>
<g>
</g>
<g>
</g>
<g>
</g>
<g>
</g>
<g>
</g>
<g>
</g>
</svg>
