<?xml version="1.0" encoding="iso-8859-1"?>
<!-- Generator: Adobe Illustrator 19.0.0, SVG Export Plug-In . SVG Version: 6.00 Build 0)  -->
<svg version="1.1" id="Layer_1" xmlns="http://www.w3.org/2000/svg" xmlns:xlink="http://www.w3.org/1999/xlink" x="0px" y="0px"
	 viewBox="0 0 512 512" style="enable-background:new 0 0 512 512;" xml:space="preserve">
<path style="fill:#B9B7BD;" d="M73.731,100.224l-6.241-6.241l86.383-86.383c2.025-2.026,4.826-3.186,7.689-3.186h2.621
	c1.677,0,3.332,0.267,4.927,0.802L416.226,84.07l-2.681,8.414L166.372,13.609c-0.745-0.252-1.465-0.367-2.189-0.367h-2.621
	c-0.538,0-1.069,0.22-1.449,0.599L73.731,100.224z"/>
<path style="fill:#8D8A94;" d="M421.04,297.241c-1.043-0.547-1.741-1.961-1.741-3.513V105.931h-8.828v187.797
	c0,4.893,2.474,9.228,6.461,11.328c1.461,0.762,2.367,2.263,2.367,3.91c0,2.435-1.978,4.414-4.414,4.414
	c-2.435,0-4.414-1.978-4.414-4.414c0-2.44-1.974-4.414-4.414-4.414s-4.414,1.974-4.414,4.414c0,7.302,5.94,13.241,13.241,13.241
	c7.302,0,13.241-5.94,13.241-13.241C428.126,304.025,425.411,299.534,421.04,297.241z"/>
<circle style="fill:#FFDC5A;" cx="414.886" cy="282.483" r="8.828"/>
<path style="fill:#8D8A94;" d="M194.195,150.069h-26.483v-44.138h44.138v26.483C211.85,142.164,203.947,150.069,194.195,150.069z"/>
<path style="fill:#FFDC5A;" d="M207.437,97.103V128h-39.724v8.828h38.911c-1.828,5.127-6.681,8.828-12.428,8.828h-26.483v8.828
	h26.483c12.172,0,22.069-9.897,22.069-22.069v-35.31H207.437z"/>
<path style="fill:#FFC84B;" d="M61.782,132.414H35.299c-4.875,0-8.828-3.953-8.828-8.828V70.621c0-4.875,3.953-8.828,8.828-8.828
	h26.483c4.875,0,8.828,3.953,8.828,8.828v52.966C70.609,128.461,66.658,132.414,61.782,132.414z"/>
<path style="fill:#FFDC5A;" d="M185.368,88.276h-9.63l-7.626-83.882C167.886,1.906,165.8,0,163.301,0h-0.004
	c-2.498,0-4.585,1.906-4.811,4.394l-7.625,83.882H22.057c-2.438,0-4.414,1.976-4.414,4.414v8.828c0,2.438,1.976,4.414,4.414,4.414
	h128v379.586h26.483V105.931h8.828V88.276z"/>
<g>
	<path style="fill:#FFC84B;" d="M489.936,105.931H175.961c-3.526,0-5.628-3.929-3.672-6.862l10.46-15.69
		c1.638-2.456,4.394-3.93,7.345-3.93h285.71c2.952,0,5.708,1.475,7.345,3.93l10.46,15.69
		C495.564,102.002,493.46,105.931,489.936,105.931z"/>
	<rect x="150.059" y="136.828" style="fill:#FFC84B;" width="26.483" height="17.655"/>
</g>
<path style="fill:#FFDC5A;" d="M428.126,114.759h-26.483c-2.438,0-4.414-1.976-4.414-4.414v-8.828c0-2.438,1.976-4.414,4.414-4.414
	h26.483c2.438,0,4.414,1.976,4.414,4.414v8.828C432.54,112.782,430.564,114.759,428.126,114.759z"/>
<path style="fill:#FFC84B;" d="M203.023,503.172h-79.448l7.199-21.596c0.973-2.919,3.704-4.887,6.781-4.887h51.489
	c3.076,0,5.809,1.969,6.781,4.887L203.023,503.172z"/>
<path style="fill:#FFDC5A;" d="M216.276,512H110.345c-2.438,0-4.414-1.976-4.414-4.414v-8.828c0-2.438,1.976-4.414,4.414-4.414
	h105.931c2.438,0,4.414,1.976,4.414,4.414v8.828C220.69,510.024,218.714,512,216.276,512z"/>
<g>
</g>
<g>
</g>
<g>
</g>
<g>
</g>
<g>
</g>
<g>
</g>
<g>
</g>
<g>
</g>
<g>
</g>
<g>
</g>
<g>
</g>
<g>
</g>
<g>
</g>
<g>
</g>
<g>
</g>
</svg>
