<?xml version="1.0" encoding="iso-8859-1"?>
<!-- Generator: Adobe Illustrator 19.0.0, SVG Export Plug-In . SVG Version: 6.00 Build 0)  -->
<svg version="1.1" id="Layer_1" xmlns="http://www.w3.org/2000/svg" xmlns:xlink="http://www.w3.org/1999/xlink" x="0px" y="0px"
	 viewBox="0 0 512.001 512.001" style="enable-background:new 0 0 512.001 512.001;" xml:space="preserve">
<path style="fill:#A7A5AC;" d="M366.345,193.328h-8.828v-17.655c0-7.302,5.94-13.241,13.241-13.241h17.655v8.828h-17.655
	c-2.431,0-4.414,1.983-4.414,4.414V193.328z"/>
<g>
	<polygon style="fill:#FFC84B;" points="26.483,166.846 17.655,184.5 17.655,193.328 229.517,193.328 229.517,184.5 220.69,166.846 
			"/>
	<path style="fill:#FFC84B;" d="M441.379,308.087h-35.31c-4.875,0-8.828-3.953-8.828-8.828v-17.655h-88.276v17.655
		c0,4.875-3.953,8.828-8.828,8.828H28L2.677,333.41c-3.497,3.497-3.497,9.167,0,12.665l12.3,12.3c3.497,3.497,9.167,3.497,12.665,0
		l34.151-34.151v63.31h142.755c4.683,0,9.173-1.86,12.484-5.171l24.967-24.968c3.311-3.311,7.802-5.172,12.486-5.172h160.412
		c4.875,0,8.828,3.953,8.828,8.828v17.655h44.138v-44.138C467.862,319.944,456.006,308.087,441.379,308.087z"/>
</g>
<path style="fill:#FFDC5A;" d="M485.517,422.845c-4.875,0-8.828-3.953-8.828-8.828v-280.34c0-9.431,3.672-18.302,10.345-24.97
	l9.897-9.897c3.448-3.448,9.035-3.448,12.483,0c3.448,3.448,3.448,9.035,0,12.482l-9.897,9.897
	c-3.336,3.336-5.173,7.772-5.173,12.487v280.34C494.345,418.893,490.392,422.845,485.517,422.845z"/>
<g>
	<circle style="fill:#625D6B;" cx="105.931" cy="396.36" r="70.621"/>
	<circle style="fill:#625D6B;" cx="459.034" cy="414.015" r="52.966"/>
</g>
<circle style="fill:#736F7B;" cx="105.931" cy="396.36" r="44.138"/>
<circle style="fill:#FFC84B;" cx="105.931" cy="396.36" r="26.483"/>
<circle style="fill:#8D8A94;" cx="459.034" cy="414.015" r="35.31"/>
<circle style="fill:#A7A5AC;" cx="459.034" cy="414.015" r="17.655"/>
<path style="fill:#FFDC5A;" d="M229.517,308.087H17.655c-4.875,0-8.828-3.953-8.828-8.828V193.328c0-4.875,3.953-8.828,8.828-8.828
	h211.862c4.875,0,8.828,3.953,8.828,8.828v105.931C238.345,304.135,234.392,308.087,229.517,308.087z"/>
<path style="fill:#736F7B;" d="M203.034,281.604H44.138c-4.875,0-8.828-3.953-8.828-8.828v-52.966c0-4.875,3.953-8.828,8.828-8.828
	h158.897c4.875,0,8.828,3.953,8.828,8.828v52.966C211.862,277.652,207.91,281.604,203.034,281.604z"/>
<g>
	<path style="fill:#625D6B;" d="M70.621,272.776L70.621,272.776c-4.875,0-8.828-3.953-8.828-8.828v-35.31
		c0-4.875,3.953-8.828,8.828-8.828l0,0c4.875,0,8.828,3.953,8.828,8.828v35.31C79.448,268.825,75.496,272.776,70.621,272.776z"/>
	<path style="fill:#625D6B;" d="M105.931,272.776L105.931,272.776c-4.875,0-8.828-3.953-8.828-8.828v-35.31
		c0-4.875,3.953-8.828,8.828-8.828l0,0c4.875,0,8.828,3.953,8.828,8.828v35.31C114.759,268.825,110.806,272.776,105.931,272.776z"/>
	<path style="fill:#625D6B;" d="M141.241,272.776L141.241,272.776c-4.875,0-8.828-3.953-8.828-8.828v-35.31
		c0-4.875,3.953-8.828,8.828-8.828l0,0c4.875,0,8.828,3.953,8.828,8.828v35.31C150.069,268.825,146.116,272.776,141.241,272.776z"/>
	<path style="fill:#625D6B;" d="M176.552,272.776L176.552,272.776c-4.875,0-8.828-3.953-8.828-8.828v-35.31
		c0-4.875,3.953-8.828,8.828-8.828l0,0c4.875,0,8.828,3.953,8.828,8.828v35.31C185.379,268.825,181.427,272.776,176.552,272.776z"/>
</g>
<path style="fill:#FFDC5A;" d="M26.483,166.846H220.69l24.217-72.653c1.501-4.501,2.265-9.214,2.265-13.958V53.85
	c0-5.512-4.995-9.676-10.417-8.683L10.426,86.59c-5.277,0.966-8.479,6.375-6.788,11.466L26.483,166.846z"/>
<path style="fill:#FFC84B;" d="M8.508,87.398c-4.025,1.802-6.33,6.261-4.871,10.658l2.324,6.997h235.326l3.62-10.86
	c0.74-2.22,1.293-4.493,1.673-6.795H8.508z"/>
<path style="fill:#FFDC5A;" d="M370.759,219.811V184.5h-35.31v35.31h-35.31c-4.875,0-8.828,3.953-8.828,8.828v52.965
	c0,4.875,3.953,8.828,8.828,8.828h105.931c4.875,0,8.828-3.953,8.828-8.828v-52.965c0-4.875-3.953-8.828-8.828-8.828H370.759z"/>
<path style="fill:#736F7B;" d="M357.517,228.638h-8.828c-2.438,0-4.414-1.976-4.414-4.414v-30.897h17.655v30.897
	C361.931,226.663,359.955,228.638,357.517,228.638z"/>
<circle style="fill:#FFC84B;" cx="353.103" cy="255.119" r="17.655"/>
<g>
	<path style="fill:#A7A5AC;" d="M326.621,193.328h-17.655v66.207c0,2.438,1.976,4.414,4.414,4.414h8.828
		c2.438,0,4.414-1.976,4.414-4.414V193.328z"/>
	<path style="fill:#A7A5AC;" d="M397.241,193.328h-17.655v66.207c0,2.438,1.976,4.414,4.414,4.414h8.828
		c2.438,0,4.414-1.976,4.414-4.414V193.328z"/>
</g>
<path style="fill:#B9B7BD;" d="M419.31,175.674H384c-2.438,0-4.414-1.976-4.414-4.414v-8.828c0-2.438,1.976-4.414,4.414-4.414h35.31
	c2.438,0,4.414,1.976,4.414,4.414v8.828C423.724,173.698,421.748,175.674,419.31,175.674z"/>
<path style="fill:#A7A5AC;" d="M353.103,312.5h-44.138v-8.828h44.138c41.37,0,75.034-33.664,75.034-75.034v-17.655
	c0-7.302-5.94-13.241-13.241-13.241h-17.655v-8.828h17.655c12.172,0,22.069,9.897,22.069,22.069v17.655
	C436.966,274.881,399.345,312.5,353.103,312.5z"/>
<path style="fill:#8D8A94;" d="M401.655,202.156h-97.103c-2.438,0-4.414-1.976-4.414-4.414v-8.828c0-2.438,1.976-4.414,4.414-4.414
	h97.103c2.438,0,4.414,1.976,4.414,4.414v8.828C406.069,200.18,404.093,202.156,401.655,202.156z"/>
<path style="fill:#625D6B;" d="M353.103,312.5v-8.828c31.75,0,60.19-20.104,70.767-50.026l8.328,2.948
	C420.371,290.035,388.586,312.5,353.103,312.5z"/>
<path style="fill:#8D8A94;" d="M229.517,308.087h-17.655v-88.276c0-4.875-3.953-8.828-8.828-8.828H44.138
	c-4.875,0-8.828,3.953-8.828,8.828v22.069c0,2.438-1.976,4.414-4.414,4.414h-8.828c-2.438,0-4.414-1.976-4.414-4.414v-22.069
	c0-14.626,11.857-26.483,26.483-26.483h158.897c14.626,0,26.483,11.857,26.483,26.483V308.087z"/>
<g>
	<path style="fill:#A7A5AC;" d="M313.379,316.914H4.414C1.976,316.914,0,314.938,0,312.5v-8.828c0-2.438,1.976-4.414,4.414-4.414
		h308.966c2.438,0,4.414,1.976,4.414,4.414v8.828C317.793,314.939,315.817,316.914,313.379,316.914z"/>
	<rect x="70.621" y="193.326" style="fill:#A7A5AC;" width="88.276" height="17.655"/>
</g>
<g>
</g>
<g>
</g>
<g>
</g>
<g>
</g>
<g>
</g>
<g>
</g>
<g>
</g>
<g>
</g>
<g>
</g>
<g>
</g>
<g>
</g>
<g>
</g>
<g>
</g>
<g>
</g>
<g>
</g>
</svg>
