<?xml version="1.0" encoding="iso-8859-1"?>
<!-- Generator: Adobe Illustrator 19.0.0, SVG Export Plug-In . SVG Version: 6.00 Build 0)  -->
<svg version="1.1" id="Layer_1" xmlns="http://www.w3.org/2000/svg" xmlns:xlink="http://www.w3.org/1999/xlink" x="0px" y="0px"
	 viewBox="0 0 512 512" style="enable-background:new 0 0 512 512;" xml:space="preserve">
<path style="fill:#FFC84B;" d="M123.57,273.655l30.14,30.14c3.312,3.31,7.802,5.172,12.485,5.172h117.792
	c4.683,0,9.173-1.86,12.485-5.172l38.968-38.968H101.499L123.57,273.655z"/>
<polygon style="fill:#736F7B;" points="353.097,273.655 79.431,273.655 79.431,220.688 167.709,238.344 353.097,238.344 "/>
<path style="fill:#8D8A94;" d="M308.957,238.344h52.968c4.875,0,8.828,3.953,8.828,8.828v26.484c0,4.875-3.953,8.828-8.828,8.828
	h-52.968c-4.875,0-8.828-3.953-8.828-8.828v-26.484C300.129,242.296,304.082,238.344,308.957,238.344z"/>
<circle style="fill:#625D6B;" cx="88.259" cy="291.311" r="52.968"/>
<circle style="fill:#FFDC5A;" cx="88.259" cy="291.311" r="26.484"/>
<circle style="fill:#FFC84B;" cx="88.259" cy="291.311" r="8.828"/>
<path style="fill:#FFDC5A;" d="M472.274,220.688c2.438,0,4.414-1.976,4.414-4.414c0-2.438-1.976-4.414-4.414-4.414h-85.325
	c-4.266,0-7.922,3.051-8.686,7.249l-16.338,89.859h114.763v-52.969l-7.062-35.311L472.274,220.688L472.274,220.688z"/>
<path style="fill:#FFC84B;" d="M507.586,300.139h-4.414v-35.312c0-4.875-3.953-8.828-8.828-8.828h-17.645v44.14h-70.635v17.656
	h101.521c2.438,0,4.414-1.976,4.414-4.414v-8.828C512,302.116,510.024,300.139,507.586,300.139z"/>
<g>
	<path style="fill:#504B5A;" d="M469.626,220.688h-15.008c-2.438,0-4.414,1.976-4.414,4.414v17.656c0,2.438,1.976,4.414,4.414,4.414
		h20.304L469.626,220.688z"/>
	<path style="fill:#504B5A;" d="M419.307,247.172h17.656c2.438,0,4.414-1.976,4.414-4.414v-17.656c0-2.438-1.976-4.414-4.414-4.414
		h-17.656c-2.438,0-4.414,1.976-4.414,4.414v17.656C414.893,245.196,416.869,247.172,419.307,247.172z"/>
</g>
<path style="fill:#8D8A94;" d="M183.883,277.587l-35.312-52.968l-14.691,9.794l35.312,52.968c1.703,2.552,4.5,3.932,7.354,3.932
	c1.681,0,3.383-0.479,4.888-1.483C185.491,287.126,186.585,281.644,183.883,277.587z"/>
<g>
	<path style="fill:#FFDC5A;" d="M313.542,200.569l-41.767,62.651c-4.166,6.249-11.829,9.179-19.103,7.302L4.69,206.527
		c-5.231-1.35-6.4-8.253-1.905-11.25l36.885-24.59c2.9-1.933,6.308-2.965,9.794-2.965h311.729c5.279,0,9.558,4.279,9.558,9.558l0,0
		c0,4.672-3.378,8.66-7.987,9.428l-37.435,6.239C320.516,193.749,316.249,196.508,313.542,200.569z"/>
	<path style="fill:#FFDC5A;" d="M211.85,300.139h-8.828c-4.875,0-8.828-3.953-8.828-8.828v-17.656c0-4.875,3.953-8.828,8.828-8.828
		h8.828c4.875,0,8.828,3.953,8.828,8.828v17.656C220.678,296.188,216.725,300.139,211.85,300.139z"/>
</g>
<path style="fill:#504B5A;" d="M335.441,203.032h26.484c4.875,0,8.828,3.953,8.828,8.828v44.14h-44.14v-44.14
	C326.613,206.985,330.566,203.032,335.441,203.032z"/>
<circle style="fill:#625D6B;" cx="361.924" cy="291.311" r="52.968"/>
<circle style="fill:#FFDC5A;" cx="361.924" cy="291.311" r="26.484"/>
<g>
	<circle style="fill:#FFC84B;" cx="361.924" cy="291.311" r="8.828"/>
	<path style="fill:#FFC84B;" d="M282.473,203.032H52.947c-4.875,0-8.828-3.953-8.828-8.828l0,0c0-4.875,3.953-8.828,8.828-8.828
		h229.527c4.875,0,8.828,3.953,8.828,8.828l0,0C291.301,199.08,287.349,203.032,282.473,203.032z"/>
</g>
<g>
</g>
<g>
</g>
<g>
</g>
<g>
</g>
<g>
</g>
<g>
</g>
<g>
</g>
<g>
</g>
<g>
</g>
<g>
</g>
<g>
</g>
<g>
</g>
<g>
</g>
<g>
</g>
<g>
</g>
</svg>
