<?xml version="1.0" encoding="iso-8859-1"?>
<!-- Generator: Adobe Illustrator 19.0.0, SVG Export Plug-In . SVG Version: 6.00 Build 0)  -->
<svg version="1.1" id="Layer_1" xmlns="http://www.w3.org/2000/svg" xmlns:xlink="http://www.w3.org/1999/xlink" x="0px" y="0px"
	 viewBox="0 0 512 512" style="enable-background:new 0 0 512 512;" xml:space="preserve">
<rect x="194.207" y="397.241" style="fill:#625D6B;" width="105.931" height="44.138"/>
<rect x="194.207" y="379.586" style="fill:#736F7B;" width="105.931" height="26.483"/>
<path style="fill:#FFDC5A;" d="M494.345,335.448V270.61c0-8.477-6.025-15.757-14.351-17.343l-166.438-31.702
	c-2.871-0.547-5.827,0.363-7.894,2.43l-11.766,11.766c-1.655,1.655-2.585,3.901-2.585,6.242v119.928h203.034V335.448z"/>
<path style="fill:#FFC84B;" d="M291.31,450.207h194.207c9.751,0,17.655-7.904,17.655-17.655V326.621
	c0-4.875-3.953-8.828-8.828-8.828h-89.791c-4.682,0-9.173,1.86-12.484,5.171l-24.969,24.969c-3.311,3.311-7.801,5.171-12.484,5.171
	H291.31c-4.875,0-8.828,3.953-8.828,8.828v79.448C282.483,446.254,286.435,450.207,291.31,450.207z"/>
<rect x="17.655" y="44.138" style="fill:#625D6B;" width="17.655" height="238.345"/>
<path style="fill:#736F7B;" d="M52.966,158.897h-8.828c-4.875,0-8.828,3.953-8.828,8.828v114.759h26.483V167.724
	C61.793,162.849,57.841,158.897,52.966,158.897z"/>
<rect x="175.035" y="176.991" transform="matrix(-0.7071 0.7071 -0.7071 -0.7071 451.509 202.2718)" style="fill:#504B5A;" width="17.655" height="35.31"/>
<rect x="194.207" y="203.034" style="fill:#625D6B;" width="17.655" height="141.241"/>
<path style="fill:#736F7B;" d="M167.724,335.448H70.621v-61.793h79.448c9.751,0,17.655,7.904,17.655,17.655V335.448z"/>
<path style="fill:#FFDC5A;" d="M35.31,361.931H8.828c-4.875,0-8.828-3.953-8.828-8.828v-70.621c0-4.875,3.953-8.828,8.828-8.828
	h71.179c5.239,0,10.209,2.327,13.564,6.353l33.55,40.26c3.354,4.025,8.323,6.353,13.564,6.353h62.35
	c4.875,0,8.828,3.953,8.828,8.828v105.931c0,4.875-3.953,8.828-8.828,8.828H35.31V361.931z"/>
<circle style="fill:#504B5A;" cx="70.621" cy="414.897" r="70.621"/>
<circle style="fill:#FFDC5A;" cx="70.621" cy="414.897" r="52.966"/>
<circle style="fill:#625D6B;" cx="70.621" cy="414.897" r="35.31"/>
<circle style="fill:#504B5A;" cx="441.379" cy="414.897" r="70.621"/>
<circle style="fill:#FFDC5A;" cx="441.379" cy="414.897" r="52.966"/>
<circle style="fill:#625D6B;" cx="441.379" cy="414.897" r="26.483"/>
<path style="fill:#FFC84B;" d="M70.621,432.552L70.621,432.552c-9.751,0-17.655-7.904-17.655-17.655v-79.448
	c0-4.875,3.953-8.828,8.828-8.828h17.655c4.875,0,8.828,3.953,8.828,8.828v79.448C88.276,424.647,80.372,432.552,70.621,432.552z"/>
<path style="fill:#736F7B;" d="M79.448,353.103H61.793c-4.875,0-8.828-3.953-8.828-8.828v-8.828c0-4.875,3.953-8.828,8.828-8.828
	h17.655c4.875,0,8.828,3.953,8.828,8.828v8.828C88.276,349.151,84.323,353.103,79.448,353.103z"/>
<path style="fill:#FFDC5A;" d="M221.316,194.65l-37.452,37.452c-3.447,3.447-9.036,3.447-12.484,0l0,0
	c-3.447-3.447-3.447-9.036,0-12.484l37.452-37.452c3.447-3.447,9.036-3.447,12.484,0l0,0
	C224.765,185.613,224.765,191.203,221.316,194.65z"/>
<path style="fill:#625D6B;" d="M190.106,175.924l-24.968,24.968c-3.447,3.447-9.036,3.447-12.484,0l0,0
	c-3.447-3.447-3.447-9.036,0-12.484l24.968-24.968c3.447-3.447,9.036-3.447,12.484,0l0,0
	C193.554,166.888,193.554,172.477,190.106,175.924z"/>
<path style="fill:#FFDC5A;" d="M247.172,52.966H8.828C3.953,52.966,0,49.013,0,44.138V35.31c0-4.875,3.953-8.828,8.828-8.828
	h238.345c4.875,0,8.828,3.953,8.828,8.828v8.828C256,49.013,252.047,52.966,247.172,52.966z"/>
<g>
	<path style="fill:#625D6B;" d="M344.276,308.966h-26.483c-4.875,0-8.828-3.953-8.828-8.828l0,0c0-4.875,3.953-8.828,8.828-8.828
		h26.483c4.875,0,8.828,3.953,8.828,8.828l0,0C353.103,305.013,349.151,308.966,344.276,308.966z"/>
	<path style="fill:#625D6B;" d="M344.276,282.483h-26.483c-4.875,0-8.828-3.953-8.828-8.828l0,0c0-4.875,3.953-8.828,8.828-8.828
		h26.483c4.875,0,8.828,3.953,8.828,8.828l0,0C353.103,278.53,349.151,282.483,344.276,282.483z"/>
	<path style="fill:#625D6B;" d="M344.276,335.448h-26.483c-4.875,0-8.828-3.953-8.828-8.828l0,0c0-4.875,3.953-8.828,8.828-8.828
		h26.483c4.875,0,8.828,3.953,8.828,8.828l0,0C353.103,331.496,349.151,335.448,344.276,335.448z"/>
</g>
<g>
</g>
<g>
</g>
<g>
</g>
<g>
</g>
<g>
</g>
<g>
</g>
<g>
</g>
<g>
</g>
<g>
</g>
<g>
</g>
<g>
</g>
<g>
</g>
<g>
</g>
<g>
</g>
<g>
</g>
</svg>
