<?xml version="1.0" encoding="iso-8859-1"?>
<!-- Generator: Adobe Illustrator 19.0.0, SVG Export Plug-In . SVG Version: 6.00 Build 0)  -->
<svg version="1.1" id="Layer_1" xmlns="http://www.w3.org/2000/svg" xmlns:xlink="http://www.w3.org/1999/xlink" x="0px" y="0px"
	 viewBox="0 0 512 512" style="enable-background:new 0 0 512 512;" xml:space="preserve">
<g>
	<rect x="467.862" y="189.794" style="fill:#504B5A;" width="35.31" height="26.483"/>
	<path style="fill:#504B5A;" d="M476.69,361.933c-2.44,0-4.414-1.974-4.414-4.414v-35.31c0-2.44,1.974-4.414,4.414-4.414
		c2.44,0,4.414,1.974,4.414,4.414v35.31C481.103,359.959,479.129,361.933,476.69,361.933z"/>
</g>
<path style="fill:#FFDC5A;" d="M467.862,216.278v88.276h17.655l12.484-12.484c3.311-3.311,5.171-7.801,5.171-12.484v-63.308h-35.31
	V216.278z"/>
<path id="SVGCleanerId_0" style="fill:#504B5A;" d="M238.345,154.485H132.414c-9.751,0-17.655,7.904-17.655,17.655v194.207h211.862
	l-54.378-186.439C267.849,164.843,254.038,154.485,238.345,154.485z"/>
<g>
	<path id="SVGCleanerId_0_1_" style="fill:#504B5A;" d="M238.345,154.485H132.414c-9.751,0-17.655,7.904-17.655,17.655v194.207
		h211.862l-54.378-186.439C267.849,164.843,254.038,154.485,238.345,154.485z"/>
</g>
<path style="fill:#625D6B;" d="M284.629,282.908l-28.6-98.057c-2.197-7.533-9.102-12.712-16.949-12.712h-80.183
	c-4.875,0-8.828,3.953-8.828,8.828v81.112c0,4.174,2.924,7.778,7.009,8.639l116.183,24.46
	C280.469,296.696,286.691,289.979,284.629,282.908z"/>
<path style="fill:#FFC84B;" d="M282.483,339.864h-256v61.793c0,4.875,3.953,8.828,8.828,8.828h247.172V339.864z"/>
<circle style="fill:#625D6B;" cx="123.586" cy="375.173" r="61.793"/>
<circle style="fill:#FFDC5A;" cx="123.586" cy="375.173" r="35.31"/>
<circle style="fill:#736F7B;" cx="123.586" cy="375.173" r="13.241"/>
<circle style="fill:#625D6B;" cx="282.483" cy="375.173" r="61.793"/>
<circle style="fill:#FFDC5A;" cx="282.483" cy="375.173" r="35.31"/>
<circle style="fill:#736F7B;" cx="282.483" cy="375.173" r="13.241"/>
<polygon style="fill:#B9B7BD;" points="58.173,302.855 47.758,288.597 277.276,120.872 287.69,135.131 "/>
<path style="fill:#736F7B;" d="M511.971,172.14c-0.007-6.728-3.847-13.156-10.386-16.104L325.034,76.588
	c-4.621-2.078-9.922-2.078-14.543,0.034L19.851,208.731l9.132,33.847l61.793-8.828c9.646-1.379,16.353-10.319,14.974-19.975
	c-0.238-1.668-0.771-3.203-1.425-4.666l162.382-73.806c2.956,6.508,9.37,10.36,16.076,10.36c2.449,0,4.931-0.518,7.293-1.594
	l8.534-3.88c8.879-4.034,12.802-14.5,8.767-23.371l0,0l10.449-4.749l130.797,58.857c6.335,2.851,10.41,9.153,10.41,16.1v2.767
	c0,4.875,3.953,8.828,8.828,8.828h35.31c4.875,0,8.828-3.953,8.828-8.828v-17.229c0-0.015,0-0.031,0-0.046v-0.378L511.971,172.14
	L511.971,172.14z"/>
<path style="fill:#FFC84B;" d="M23.481,207.45h0.074c6.868,0,12.815,4.77,14.305,11.475l15.105,67.974H8.828v-64.794
	C8.828,214.011,15.389,207.45,23.481,207.45z"/>
<path style="fill:#FFDC5A;" d="M44.138,375.174c0-24.513,11.11-46.421,28.562-60.991c3.652-3.049,4.156-8.457,1.183-12.172
	l-42.1-52.625c-3.35-4.188-8.423-6.626-13.786-6.626H8.828c-4.875,0-8.828,3.953-8.828,8.828v141.241
	c0,4.875,3.953,8.828,8.828,8.828h28.371c5.646,0,9.703-5.188,8.559-10.718C44.706,385.847,44.138,380.58,44.138,375.174z"/>
<path style="fill:#FFC84B;" d="M503.172,225.105h-35.31c-4.875,0-8.828-3.953-8.828-8.828l0,0c0-4.875,3.953-8.828,8.828-8.828
	h35.31c4.875,0,8.828,3.953,8.828,8.828l0,0C512,221.153,508.047,225.105,503.172,225.105z"/>
<path style="fill:#736F7B;" d="M481.103,331.036h-8.828c-2.438,0-4.414-1.976-4.414-4.414v-22.069h17.655v22.069
	C485.517,329.06,483.541,331.036,481.103,331.036z"/>
<g>
</g>
<g>
</g>
<g>
</g>
<g>
</g>
<g>
</g>
<g>
</g>
<g>
</g>
<g>
</g>
<g>
</g>
<g>
</g>
<g>
</g>
<g>
</g>
<g>
</g>
<g>
</g>
<g>
</g>
</svg>
