<?xml version="1.0" encoding="iso-8859-1"?>
<!-- Generator: Adobe Illustrator 19.0.0, SVG Export Plug-In . SVG Version: 6.00 Build 0)  -->
<svg version="1.1" id="Layer_1" xmlns="http://www.w3.org/2000/svg" xmlns:xlink="http://www.w3.org/1999/xlink" x="0px" y="0px"
	 viewBox="0 0 512 512" style="enable-background:new 0 0 512 512;" xml:space="preserve">
<rect x="275.84" y="-60.699" transform="matrix(-0.6628 -0.7488 0.7488 -0.6628 356.9318 452.0658)" style="fill:#DCDBDE;" width="8.827" height="412.73"/>
<path style="fill:#8D8A94;" d="M440.913,403.173c-1.043-0.547-1.741-1.961-1.741-3.513V17.661h-8.827V399.66
	c0,4.893,2.474,9.228,6.461,11.328c1.461,0.762,2.367,2.263,2.367,3.909c0,2.435-1.978,4.414-4.414,4.414s-4.414-1.978-4.414-4.414
	c0-2.44-1.974-4.414-4.414-4.414c-2.44,0-4.414,1.974-4.414,4.414c0,7.301,5.94,13.241,13.241,13.241s13.241-5.94,13.241-13.241
	C447.999,409.957,445.283,405.466,440.913,403.173z"/>
<circle style="fill:#FFDC5A;" cx="434.754" cy="388.419" r="8.827"/>
<g>
	
		<rect x="249.385" y="-92.781" transform="matrix(-0.5207 -0.8538 0.8538 -0.5207 284.1901 397.9196)" style="fill:#8D8A94;" width="8.826" height="423.928"/>
	
		<rect x="-13.309" y="331.055" transform="matrix(-0.204 -0.979 0.979 -0.204 -214.1586 496.8018)" style="fill:#8D8A94;" width="216.412" height="8.824"/>
</g>
<g>
	<path style="fill:#FFDC5A;" d="M437.736,0.524c-4.59-1.655-9.646,0.746-11.288,5.332L258.726,473.711l16.621,5.956L443.069,11.812
		C444.714,7.222,442.326,2.17,437.736,0.524z"/>
	<path style="fill:#FFDC5A;" d="M275.863,467.862h-105.93v-17.655c0-4.875,3.952-8.827,8.827-8.827h97.102V467.862z"/>
</g>
<g>
	<path style="fill:#625D6B;" d="M297.932,476.69h-30.896v-30.896c0-2.438,1.976-4.414,4.414-4.414h13.241
		c9.751,0,17.655,7.904,17.655,17.655v13.241C302.346,474.713,300.369,476.69,297.932,476.69z"/>
	<path style="fill:#625D6B;" d="M297.932,512H165.52c-7.312,0-13.241-5.929-13.241-13.241l0,0c0-7.312,5.929-13.241,13.241-13.241
		h132.412c7.312,0,13.241,5.929,13.241,13.241l0,0C311.173,506.071,305.244,512,297.932,512z"/>
</g>
<path style="fill:#FFC84B;" d="M275.863,485.517H143.451v-26.482h132.412c4.875,0,8.827,3.953,8.827,8.827v8.827
	C284.691,481.565,280.738,485.517,275.863,485.517z"/>
<path style="fill:#FFDC5A;" d="M143.451,485.517h-26.482c-4.875,0-8.827-3.952-8.827-8.827v-35.31c0-4.875,3.953-8.827,8.827-8.827
	h26.482c4.875,0,8.827,3.952,8.827,8.827v35.31C152.279,481.565,148.326,485.517,143.451,485.517z"/>
<g>
	<circle style="fill:#504B5A;" cx="165.517" cy="498.763" r="8.827"/>
	<circle style="fill:#504B5A;" cx="297.929" cy="498.763" r="8.827"/>
</g>
<path style="fill:#FFDC5A;" d="M275.868,476.69c-2.496,0-4.979-1.052-6.724-3.104L66.111,235.244
	c-3.159-3.711-2.716-9.284,0.995-12.443c3.699-3.159,9.28-2.724,12.443,0.995l203.032,238.342c3.159,3.711,2.716,9.284-0.995,12.443
	C279.927,475.996,277.894,476.69,275.868,476.69z"/>
<g>
	<circle style="fill:#FFC84B;" cx="72.828" cy="229.525" r="8.827"/>
	<circle style="fill:#FFC84B;" cx="434.754" cy="8.838" r="8.827"/>
</g>
<g>
</g>
<g>
</g>
<g>
</g>
<g>
</g>
<g>
</g>
<g>
</g>
<g>
</g>
<g>
</g>
<g>
</g>
<g>
</g>
<g>
</g>
<g>
</g>
<g>
</g>
<g>
</g>
<g>
</g>
</svg>
