<?xml version="1.0" encoding="iso-8859-1"?>
<!-- Generator: Adobe Illustrator 19.0.0, SVG Export Plug-In . SVG Version: 6.00 Build 0)  -->
<svg version="1.1" id="Layer_1" xmlns="http://www.w3.org/2000/svg" xmlns:xlink="http://www.w3.org/1999/xlink" x="0px" y="0px"
	 viewBox="0 0 512 512" style="enable-background:new 0 0 512 512;" xml:space="preserve">
<g>
	
		<rect x="127.929" y="105.942" transform="matrix(-0.7727 0.6347 -0.6347 -0.7727 580.3373 12.9188)" style="fill:#8D8A94;" width="319.853" height="8.825"/>
	<path style="fill:#8D8A94;" d="M452.921,226.621c-1.043-0.547-1.741-1.961-1.741-3.513V8.828h-8.828v214.28
		c0,4.893,2.474,9.228,6.461,11.328c1.461,0.762,2.367,2.263,2.367,3.91c0,2.435-1.978,4.414-4.414,4.414
		c-2.435,0-4.414-1.978-4.414-4.414c0-2.44-1.974-4.414-4.414-4.414s-4.414,1.974-4.414,4.414c0,7.302,5.94,13.241,13.241,13.241
		c7.302,0,13.241-5.94,13.241-13.241C460.008,233.405,457.292,228.914,452.921,226.621z"/>
</g>
<circle style="fill:#FFDC5A;" cx="446.764" cy="211.862" r="8.828"/>
<path style="fill:#FFC84B;" d="M251.017,238.836l-38.578-87.009l-8.07,3.586l36.77,82.932H115.732c-2.438,0-4.414,1.976-4.414,4.414
	s1.976,4.414,4.414,4.414h132.414c2.438,0,4.414-1.976,4.414-4.414C252.559,241.185,251.017,238.836,251.017,238.836z"/>
<g>
	<path style="fill:#FFDC5A;" d="M429.396,0c-8.556,0-16.629,4.168-21.587,11.147L174.745,339.164l14.388,10.225L422.197,21.37
		c1.655-2.327,4.345-3.715,7.198-3.715h17.37V0H429.396z"/>
	<path style="fill:#FFDC5A;" d="M129.448,291.31L141.219,256h14.237v35.31h17.655V220.69c0-9.732-7.923-17.655-17.655-17.655h-2.465
		c-7.612,0-14.345,4.853-16.742,12.07l-24.474,73.414c-0.309,0.928-0.345,1.866-0.344,2.793H129.448z"/>
</g>
<path style="fill:#8D8A94;" d="M173.111,282.483H76.008c-4.875,0-8.828,3.953-8.828,8.828v52.966h114.759V291.31
	C181.939,286.435,177.987,282.483,173.111,282.483z"/>
<rect x="137.799" y="353.103" style="fill:#FFC84B;" width="52.966" height="26.483"/>
<path style="fill:#FFDC5A;" d="M252.559,370.759H76.008c-4.879,0-8.828,3.948-8.828,8.828v123.586h17.655v-88.276h158.897v88.276
	h17.655V379.586C261.387,374.707,257.439,370.759,252.559,370.759z"/>
<g>
	<path style="fill:#FFC84B;" d="M80.422,512H62.766c-2.438,0-4.414-1.976-4.414-4.414v-8.828c0-2.438,1.976-4.414,4.414-4.414
		h17.655c2.438,0,4.414,1.976,4.414,4.414v8.828C84.835,510.024,82.859,512,80.422,512z"/>
	<path style="fill:#FFC84B;" d="M265.801,512h-17.655c-2.438,0-4.414-1.976-4.414-4.414v-8.828c0-2.438,1.976-4.414,4.414-4.414
		h17.655c2.438,0,4.414,1.976,4.414,4.414v8.828C270.215,510.024,268.238,512,265.801,512z"/>
</g>
<path style="fill:#FFDC5A;" d="M265.801,353.103H62.766c-2.438,0-4.414-1.976-4.414-4.414v-8.828c0-2.438,1.976-4.414,4.414-4.414
	h203.034c2.438,0,4.414,1.976,4.414,4.414v8.828C270.215,351.127,268.238,353.103,265.801,353.103z"/>
<g>
	<path style="fill:#504B5A;" d="M106.904,317.793h-8.828c-2.438,0-4.414-1.976-4.414-4.414v-8.828c0-2.438,1.976-4.414,4.414-4.414
		h8.828c2.438,0,4.414,1.976,4.414,4.414v8.828C111.318,315.817,109.342,317.793,106.904,317.793z"/>
	<path style="fill:#504B5A;" d="M151.042,317.793h-8.828c-2.438,0-4.414-1.976-4.414-4.414v-8.828c0-2.438,1.976-4.414,4.414-4.414
		h8.828c2.438,0,4.414,1.976,4.414,4.414v8.828C155.456,315.817,153.48,317.793,151.042,317.793z"/>
</g>
<path style="fill:#FFDC5A;" d="M225.719,157.295l-3.473-8.109c-0.96-2.241-3.555-3.279-5.796-2.319L65.198,212.302l6.951,16.223
	l151.252-65.436C225.641,162.13,226.679,159.535,225.719,157.295z"/>
<g>
	<path style="fill:#FFC84B;" d="M60.658,235.334l-8.308-19.412c-0.96-2.242,0.079-4.839,2.323-5.8l8.102-3.47
		c2.243-0.961,4.841,0.079,5.801,2.323l8.308,19.412c0.96,2.242-0.079,4.839-2.323,5.8l-8.102,3.469
		C64.215,238.617,61.618,237.578,60.658,235.334z"/>
	<path style="fill:#FFC84B;" d="M446.766,17.655h-35.31c-4.875,0-8.828-3.953-8.828-8.828l0,0c0-4.875,3.953-8.828,8.828-8.828
		h35.31c4.875,0,8.828,3.953,8.828,8.828l0,0C455.594,13.703,451.641,17.655,446.766,17.655z"/>
	<circle style="fill:#FFC84B;" cx="168.695" cy="207.448" r="8.828"/>
	<path style="fill:#FFC84B;" d="M89.249,397.241h150.069c2.438,0,4.414,1.976,4.414,4.414v13.241H84.835v-13.241
		C84.835,399.218,86.812,397.241,89.249,397.241z"/>
</g>
<g>
</g>
<g>
</g>
<g>
</g>
<g>
</g>
<g>
</g>
<g>
</g>
<g>
</g>
<g>
</g>
<g>
</g>
<g>
</g>
<g>
</g>
<g>
</g>
<g>
</g>
<g>
</g>
<g>
</g>
</svg>
