<?xml version="1.0" encoding="iso-8859-1"?>
<!-- Generator: Adobe Illustrator 19.0.0, SVG Export Plug-In . SVG Version: 6.00 Build 0)  -->
<svg version="1.1" id="Layer_1" xmlns="http://www.w3.org/2000/svg" xmlns:xlink="http://www.w3.org/1999/xlink" x="0px" y="0px"
	 viewBox="0 0 512 512" style="enable-background:new 0 0 512 512;" xml:space="preserve">
<path style="fill:#514A5B;" d="M388.414,220.695v-17.655c0-4.875-3.953-8.828-8.828-8.828s-8.828,3.953-8.828,8.828v17.655h-97.103
	c-24.337,0-44.138,19.801-44.138,44.138v17.655h-8.828v17.655h8.828v29.427c0,11.38,3.763,22.664,10.595,31.78l17.655,23.539
	l14.121-10.595l-17.651-23.534c-4.556-6.078-7.064-13.603-7.064-21.189v-29.427h26.483v-17.655h-26.483v-17.655
	c0-14.603,11.88-26.483,26.483-26.483h158.896v-17.655H388.414z"/>
<path style="fill:#625D6B;" d="M238.354,397.245c-2.659,0-5.284-1.194-7.021-3.466L1.816,93.642
	c-2.962-3.871-2.225-9.413,1.651-12.375c3.871-2.974,9.413-2.225,12.375,1.651l229.517,300.137
	c2.962,3.871,2.225,9.413-1.651,12.375C242.108,396.654,240.22,397.245,238.354,397.245z"/>
<path style="fill:#8D8A94;" d="M238.345,397.245h26.483v-26.483h-26.483c-4.875,0-8.828,3.953-8.828,8.828v8.828
	C229.518,393.293,233.47,397.245,238.345,397.245z"/>
<path style="fill:#DCDBDE;" d="M397.242,300.143h-70.621v-44.138c0-4.875,3.953-8.828,8.828-8.828h61.793
	c4.875,0,8.828,3.953,8.828,8.828v35.31C406.069,296.19,402.117,300.143,397.242,300.143z"/>
<path style="fill:#625D6B;" d="M326.621,308.97h-52.965c-4.875,0-8.828-3.953-8.828-8.828V273.66c0-4.875,3.953-8.828,8.828-8.828
	h44.138c4.875,0,8.828,3.953,8.828,8.828V308.97z"/>
<path style="fill:#8D8A94;" d="M326.621,353.107h-44.138c-4.875,0-8.828-3.953-8.828-8.828v-26.483c0-4.875,3.953-8.828,8.828-8.828
	h44.138V353.107z"/>
<path style="fill:#625D6B;" d="M467.862,203.039h-26.483c-4.875,0-8.828,3.953-8.828,8.828v17.655h44.138v-17.655
	C476.69,206.991,472.737,203.039,467.862,203.039z"/>
<rect x="423.723" y="291.311" style="fill:#FFC84B;" width="44.138" height="52.965"/>
<path style="fill:#625D6B;" d="M467.862,317.798h-8.828c-4.875,0-8.828-3.953-8.828-8.828v-8.828c0-4.875,3.953-8.828,8.828-8.828
	h8.828c4.875,0,8.828,3.953,8.828,8.828v8.828C476.69,313.845,472.737,317.798,467.862,317.798z"/>
<g>
	<path style="fill:#FFDC5A;" d="M432.552,220.695h44.138c4.875,0,8.828,3.953,8.828,8.828v61.793c0,4.875-3.953,8.828-8.828,8.828
		h-44.138c-4.875,0-8.828-3.953-8.828-8.828v-61.793C423.724,224.646,427.677,220.695,432.552,220.695z"/>
	<path style="fill:#FFDC5A;" d="M476.69,388.417v-31.024c0-8.639-4.169-16.707-11.242-21.667
		c-17.661-12.383-55.477-35.058-108.816-46.4c-33.679-7.161-65.321,18.998-65.321,53.43l0,0c0,30.093,24.395,54.488,54.488,54.488
		h122.063C472.737,397.245,476.69,393.293,476.69,388.417z"/>
</g>
<circle style="fill:#625D6B;" cx="211.862" cy="291.311" r="17.655"/>
<g>
	<path style="fill:#FFC84B;" d="M377.397,356.239c2.558-6.835,3.095-14.627,0.422-22.897c-3.849-11.901-14.072-21.238-26.344-23.661
		c-22.656-4.473-42.509,12.744-42.509,34.599c0,4.286,0.819,8.358,2.255,12.135c1.281,3.37,4.622,5.521,8.227,5.521h49.63
		C372.756,361.935,376.108,359.684,377.397,356.239z"/>
	<path style="fill:#FFC84B;" d="M423.724,370.762H256.001c-4.875,0-8.828,3.953-8.828,8.828v8.828c0,4.875,3.953,8.828,8.828,8.828
		h35.31c0,6.518,3.573,12.148,8.828,15.207v11.276h17.655v-11.276c5.255-3.058,8.828-8.689,8.828-15.207h26.483
		c0,6.518,3.573,12.148,8.828,15.207v11.276h17.655v-11.276c5.255-3.058,8.828-8.689,8.828-15.207h35.31
		c4.875,0,8.828-3.953,8.828-8.828v-8.828C432.552,374.715,428.599,370.762,423.724,370.762z"/>
</g>
<path style="fill:#FFDC5A;" d="M472.276,432.555H282.483c-4.875,0-8.828-3.953-8.828-8.828c0-4.875,3.953-8.828,8.828-8.828h189.793
	c12.168,0,22.069-9.901,22.069-22.069c0-4.875,3.953-8.828,8.828-8.828c4.875,0,8.828,3.953,8.828,8.828
	C512,414.737,494.18,432.555,472.276,432.555z"/>
<g>
</g>
<g>
</g>
<g>
</g>
<g>
</g>
<g>
</g>
<g>
</g>
<g>
</g>
<g>
</g>
<g>
</g>
<g>
</g>
<g>
</g>
<g>
</g>
<g>
</g>
<g>
</g>
<g>
</g>
</svg>
