<?xml version="1.0" encoding="iso-8859-1"?>
<!-- Generator: Adobe Illustrator 19.0.0, SVG Export Plug-In . SVG Version: 6.00 Build 0)  -->
<svg version="1.1" id="Layer_1" xmlns="http://www.w3.org/2000/svg" xmlns:xlink="http://www.w3.org/1999/xlink" x="0px" y="0px"
	 viewBox="0 0 512 512" style="enable-background:new 0 0 512 512;" xml:space="preserve">
<polygon style="fill:#504B5A;" points="273.655,110.345 141.241,110.345 141.241,233.931 300.138,233.931 "/>
<path style="fill:#625D6B;" d="M167.724,136.828v79.448h114.759l-14.817-74.083C266.016,133.94,258.77,128,250.354,128h-73.802
	C171.677,128,167.724,131.953,167.724,136.828z"/>
<rect x="105.931" y="110.345" style="fill:#FFDC5A;" width="44.138" height="150.069"/>
<path style="fill:#FFC84B;" d="M273.655,119.172H105.931c-4.875,0-8.828-3.953-8.828-8.828l0,0c0-4.875,3.953-8.828,8.828-8.828
	h167.724c4.875,0,8.828,3.953,8.828,8.828l0,0C282.483,115.22,278.53,119.172,273.655,119.172z"/>
<path style="fill:#FFDC5A;" d="M397.241,366.345h-256V233.931h194.207c34.127,0,61.793,27.666,61.793,61.793V366.345z"/>
<polygon style="fill:#736F7B;" points="425.948,366.345 395.06,310.754 410.492,302.176 441.379,357.767 "/>
<circle style="fill:#FFC84B;" cx="406.069" cy="375.172" r="17.655"/>
<path style="fill:#504B5A;" d="M379.533,331.191l0.053-0.157l-0.545-0.25c-4.769-3.486-217.058-100.514-220.116-101.885
	c-5.404-2.423-11.37-3.796-17.684-3.796c-14.378,0-27.025,6.98-35.083,17.623l-0.227,0.032c0,0-94.009,93.55-95.961,95.961
	l-1.142,1.142l0.075,0.151C3.385,347.381,0,356.431,0,366.345c0,24.376,19.762,44.138,44.138,44.138h308.966
	c24.376,0,44.138-19.762,44.138-44.138C397.241,351.927,390.226,339.246,379.533,331.191z"/>
<rect x="132.416" y="295.74" transform="matrix(-0.8824 -0.4706 0.4706 -0.8824 247.1804 670.9305)" style="fill:#736F7B;" width="150.076" height="17.656"/>
<g>
	<path style="fill:#625D6B;" d="M300.138,322.207H97.103c-9.75,0-17.655,7.904-17.655,17.655c0,9.751,7.905,17.655,17.655,17.655
		h203.034c9.75,0,17.655-7.904,17.655-17.655C317.793,330.111,309.888,322.207,300.138,322.207L300.138,322.207z"/>
	<path style="fill:#625D6B;" d="M141.241,242.759c3.61,0,7.129,0.757,10.455,2.249c10.505,4.725,200.207,91.565,217.479,100.488
		c6.621,5.11,10.411,12.691,10.411,20.85c0,14.603-11.88,26.483-26.483,26.483H44.138c-14.603,0-26.483-11.88-26.483-26.483
		c0-7.001,2.862-12.355,5.3-15.642l0.153-0.153l0.243-0.3c5.088-5.349,55.315-55.443,90.878-90.84l1.617-0.231l4.387-5.793
		C125.346,246.632,133.004,242.759,141.241,242.759 M141.241,225.103c-14.378,0-27.025,6.98-35.083,17.623l-0.227,0.032
		c0,0-94.009,93.55-95.961,95.961l-1.142,1.142l0.075,0.151C3.385,347.381,0,356.431,0,366.345
		c0,24.376,19.762,44.138,44.138,44.138h308.966c24.376,0,44.138-19.762,44.138-44.138c0-14.418-7.016-27.098-17.707-35.154
		l0.052-0.157l-0.545-0.25c-4.769-3.486-217.058-100.514-220.116-101.885C153.522,226.476,147.556,225.103,141.241,225.103
		L141.241,225.103z"/>
</g>
<g>
	<circle style="fill:#8D8A94;" cx="44.138" cy="366.345" r="44.138"/>
	<circle style="fill:#8D8A94;" cx="353.103" cy="366.345" r="44.138"/>
</g>
<circle style="fill:#736F7B;" cx="44.138" cy="366.345" r="26.483"/>
<circle style="fill:#8D8A94;" cx="141.241" cy="269.241" r="44.138"/>
<g>
	<circle style="fill:#736F7B;" cx="141.241" cy="269.241" r="26.483"/>
	<circle style="fill:#736F7B;" cx="353.103" cy="366.345" r="26.483"/>
	<path style="fill:#736F7B;" d="M273.655,392.828H114.759c-9.751,0-17.655-7.904-17.655-17.655l0,0
		c0-9.751,7.904-17.655,17.655-17.655h158.897c9.751,0,17.655,7.904,17.655,17.655l0,0
		C291.31,384.922,283.405,392.828,273.655,392.828z"/>
</g>
<g>
	<circle style="fill:#8D8A94;" cx="114.759" cy="375.172" r="8.828"/>
	<circle style="fill:#8D8A94;" cx="167.724" cy="375.172" r="8.828"/>
	<circle style="fill:#8D8A94;" cx="141.241" cy="375.172" r="8.828"/>
	<circle style="fill:#8D8A94;" cx="194.207" cy="375.172" r="8.828"/>
	<circle style="fill:#8D8A94;" cx="220.69" cy="375.172" r="8.828"/>
	<circle style="fill:#8D8A94;" cx="247.172" cy="375.172" r="8.828"/>
	<circle style="fill:#8D8A94;" cx="273.655" cy="375.172" r="8.828"/>
</g>
<path style="fill:#FFDC5A;" d="M424.439,336.383l-26.483,61.793c-1.173,2.729-0.888,5.863,0.742,8.337
	c1.638,2.478,4.405,3.97,7.371,3.97h88.276L424.439,336.383z"/>
<g>
	<path style="fill:#8D8A94;" d="M503.172,410.483h-8.828c-2.345,0-4.586-0.931-6.241-2.586l-61.793-61.793
		c-3.448-3.448-3.448-9.035,0-12.483s9.035-3.448,12.483,0l59.206,59.208h5.173c4.879,0,8.828,3.953,8.828,8.828
		S508.052,410.483,503.172,410.483z"/>
	
		<rect x="157.89" y="247.17" transform="matrix(-0.921 -0.3896 0.3896 -0.921 442.9412 601.8265)" style="fill:#8D8A94;" width="249.217" height="17.654"/>
</g>
<path style="fill:#FFC84B;" d="M406.086,331.039c-6.483,0-12.715-3.577-15.81-9.763l-14.379-28.764
	c-10.818-21.642-30.91-37.174-54.578-42.195l-184.239-39.081c-29.935-6.35-60.718,6.19-77.695,31.652l0,0
	c-5.123,7.683-15.321,10.998-23.476,6.665c-9.378-4.983-12.198-16.804-6.461-25.416l35.31-52.966
	c4.009-6.013,11.276-8.961,18.354-7.478l291.31,61.793c5.26,1.116,9.726,4.567,12.13,9.377l34.872,69.743
	c3.882,7.763,2.295,17.605-4.643,22.819C413.496,329.896,409.741,331.039,406.086,331.039z"/>
<g>
</g>
<g>
</g>
<g>
</g>
<g>
</g>
<g>
</g>
<g>
</g>
<g>
</g>
<g>
</g>
<g>
</g>
<g>
</g>
<g>
</g>
<g>
</g>
<g>
</g>
<g>
</g>
<g>
</g>
</svg>
