<?xml version="1.0" encoding="iso-8859-1"?>
<!-- Generator: Adobe Illustrator 19.0.0, SVG Export Plug-In . SVG Version: 6.00 Build 0)  -->
<svg version="1.1" id="Layer_1" xmlns="http://www.w3.org/2000/svg" xmlns:xlink="http://www.w3.org/1999/xlink" x="0px" y="0px"
	 viewBox="0 0 512 512" style="enable-background:new 0 0 512 512;" xml:space="preserve">
<rect x="346.206" y="65.868" transform="matrix(-0.6484 -0.7613 0.7613 -0.6484 430.0985 625.3148)" style="fill:#504B5A;" width="26.483" height="294.941"/>
<rect x="346.421" y="55.792" transform="matrix(-0.6482 -0.7615 0.7615 -0.6482 423.4567 602.1747)" style="fill:#FFD253;" width="8.828" height="294.947"/>
<g>
	<polygon style="fill:#625D6B;" points="498.772,114.431 481.116,352.776 489.918,353.431 507.573,115.086 	"/>
	<path style="fill:#625D6B;" d="M342.987,154.306c-2.535-4.163-7.961-5.495-12.129-2.948c-4.163,2.535-5.487,7.966-2.948,12.129
		l123.586,203.035l15.078-9.181L342.987,154.306z"/>
	
		<rect x="146.387" y="119.169" transform="matrix(-0.9785 0.206 -0.206 -0.9785 654.1961 179.0496)" style="fill:#625D6B;" width="342.78" height="8.827"/>
	<rect x="79.448" y="344.276" style="fill:#625D6B;" width="132.414" height="26.483"/>
	<path style="fill:#625D6B;" d="M158.586,165.4c-1.047-3.84-4.534-6.505-8.518-6.505h-17.655c-3.982,0-7.47,2.664-8.518,6.505
		l-26.483,97.103l17.034,4.647l24.707-90.599h4.172l24.707,90.599l17.035-4.647L158.586,165.4z"/>
</g>
<g>
	<path style="fill:#504B5A;" d="M150.069,176.552h-17.655c-4.875,0-8.828-3.953-8.828-8.828v-8.828c0-4.875,3.953-8.828,8.828-8.828
		h17.655c4.875,0,8.828,3.953,8.828,8.828v8.828C158.897,172.599,154.944,176.552,150.069,176.552z"/>
	<rect x="44.138" y="167.724" style="fill:#504B5A;" width="17.655" height="52.966"/>
</g>
<path style="fill:#625D6B;" d="M61.793,176.552H44.138c-4.875,0-8.828-3.953-8.828-8.828l0,0c0-4.875,3.953-8.828,8.828-8.828
	h17.655c4.875,0,8.828,3.953,8.828,8.828l0,0C70.621,172.599,66.668,176.552,61.793,176.552z"/>
<rect x="79.448" y="194.207" style="fill:#504B5A;" width="17.655" height="61.793"/>
<path style="fill:#625D6B;" d="M97.103,203.034H79.448c-4.875,0-8.828-3.953-8.828-8.828l0,0c0-4.875,3.953-8.828,8.828-8.828
	h17.655c4.875,0,8.828,3.953,8.828,8.828l0,0C105.931,199.082,101.978,203.034,97.103,203.034z"/>
<path style="fill:#FFC84B;" d="M35.31,229.517H17.655v-30.897c0-2.438,1.976-4.414,4.414-4.414h8.828
	c2.438,0,4.414,1.976,4.414,4.414V229.517z"/>
<polygon style="fill:#FFD253;" points="256,335.448 61.793,335.448 61.793,247.172 273.655,247.172 273.655,291.31 "/>
<path style="fill:#504B5A;" d="M238.345,432.552H52.966c-19.501,0-35.31-15.809-35.31-35.31l0,0c0-19.501,15.809-35.31,35.31-35.31
	h185.379c19.501,0,35.31,15.809,35.31,35.31l0,0C273.655,416.743,257.846,432.552,238.345,432.552z"/>
<rect x="52.966" y="379.586" style="fill:#625D6B;" width="185.379" height="35.31"/>
<g>
	<circle style="fill:#736F7B;" cx="52.966" cy="397.241" r="17.655"/>
	<circle style="fill:#736F7B;" cx="238.345" cy="397.241" r="17.655"/>
</g>
<path style="fill:#FFDC5A;" d="M79.448,335.448H8.828V220.69c0-4.875,3.953-8.828,8.828-8.828h52.966
	c4.875,0,8.828,3.953,8.828,8.828V335.448z"/>
<polygon style="fill:#504B5A;" points="284.248,291.31 300.138,211.862 203.034,211.862 203.034,291.31 "/>
<path style="fill:#FFDC5A;" d="M300.138,220.69h-97.103c-4.875,0-8.828-3.953-8.828-8.828l0,0c0-4.875,3.953-8.828,8.828-8.828
	h97.103c4.875,0,8.828,3.953,8.828,8.828l0,0C308.966,216.737,305.013,220.69,300.138,220.69z"/>
<path style="fill:#FFC84B;" d="M291.31,282.483H121.146c-6.182,0-12.199,2.177-16.957,6.137l-45.594,38.001H8.828
	c-4.875,0-8.828,3.953-8.828,8.828v8.828c0,4.875,3.953,8.828,8.828,8.828H256c4.875,0,8.828-3.953,8.828-8.828v-8.828
	c0-4.875-3.953-8.828-8.828-8.828H86.174l29.318-24.436c1.587-1.319,3.595-2.047,5.655-2.047H291.31
	c4.879,0,8.828-3.953,8.828-8.828S296.19,282.483,291.31,282.483z"/>
<path style="fill:#625D6B;" d="M296.607,229.517h-53.848c-2.438,0-4.414,1.976-4.414,4.414v26.483c0,2.438,1.976,4.414,4.414,4.414
	h46.786L296.607,229.517z"/>
<g>
	<path style="fill:#504B5A;" d="M485.517,132.414c-14.603,0-26.483-11.88-26.483-26.483s11.88-26.483,26.483-26.483
		c14.603,0,26.483,11.88,26.483,26.483S500.12,132.414,485.517,132.414z M485.517,97.103c-4.866,0-8.828,3.961-8.828,8.828
		c0,4.866,3.961,8.828,8.828,8.828s8.828-3.961,8.828-8.828C494.345,101.065,490.383,97.103,485.517,97.103z"/>
	<path style="fill:#504B5A;" d="M459.034,344.276L459.034,344.276c-9.751,0-17.655,7.904-17.655,17.655v17.655h35.31v-17.655
		C476.69,352.18,468.785,344.276,459.034,344.276z"/>
</g>
<path style="fill:#FFD253;" d="M494.345,414.897v-35.31c0-4.875-3.953-8.828-8.828-8.828h-52.966c-4.875,0-8.828,3.953-8.828,8.828
	v44.138c0,4.875,3.953,8.828,8.828,8.828h70.621c4.875,0,8.828-3.953,8.828-8.828l0,0c0-4.875-3.953-8.828-8.828-8.828H494.345z"/>
<path style="fill:#645D6B;" d="M485.517,344.276L485.517,344.276c-4.875,0-8.828,3.953-8.828,8.828v17.655
	c0,4.875,3.953,8.828,8.828,8.828l0,0c4.875,0,8.828-3.953,8.828-8.828v-17.655C494.345,348.228,490.392,344.276,485.517,344.276z"
	/>
<g>
</g>
<g>
</g>
<g>
</g>
<g>
</g>
<g>
</g>
<g>
</g>
<g>
</g>
<g>
</g>
<g>
</g>
<g>
</g>
<g>
</g>
<g>
</g>
<g>
</g>
<g>
</g>
<g>
</g>
</svg>
