<?xml version="1.0" encoding="iso-8859-1"?>
<!-- Generator: Adobe Illustrator 19.0.0, SVG Export Plug-In . SVG Version: 6.00 Build 0)  -->
<svg version="1.1" id="Layer_1" xmlns="http://www.w3.org/2000/svg" xmlns:xlink="http://www.w3.org/1999/xlink" x="0px" y="0px"
	 viewBox="0 0 512 512" style="enable-background:new 0 0 512 512;" xml:space="preserve">
<g>
	
		<rect x="300.149" y="187.134" transform="matrix(-0.8063 -0.5915 0.5915 -0.8063 390.8786 666.4716)" style="fill:#A7A5AC;" width="8.828" height="164.203"/>
	<rect x="503.172" y="229.517" style="fill:#A7A5AC;" width="8.828" height="132.414"/>
</g>
<path style="fill:#736F7B;" d="M503.172,397.241h-8.828v-35.31c0-4.875,3.953-8.828,8.828-8.828l0,0
	c4.875,0,8.828,3.953,8.828,8.828v26.483C512,393.289,508.047,397.241,503.172,397.241z"/>
<rect x="326.621" y="167.724" style="fill:#A7A5AC;" width="167.724" height="8.828"/>
<path style="fill:#FFDC5A;" d="M353.934,185.379c-25.483,0-49.06,13.793-61.543,36l-17.525,31.155
	c-0.066,0.116-0.141,0.225-0.207,0.341l-44.009,78.246c-2.388,4.25-0.879,9.633,3.371,12.022c1.37,0.771,2.854,1.133,4.319,1.133
	c3.086,0,6.087-1.621,7.706-4.5l17.518-31.154l26.656-47.379c20.353-35.911,58.567-58.209,99.851-58.209h86.621v176.552h17.655
	V185.379H353.934z"/>
<path style="fill:#FFC84B;" d="M251.586,317.793h-48.552v26.483h48.552c7.313,0,13.241-5.929,13.241-13.241l0,0
	C264.828,323.721,258.899,317.793,251.586,317.793z"/>
<g>
	<rect x="44.138" y="335.448" style="fill:#736F7B;" width="150.069" height="35.31"/>
	<path style="fill:#736F7B;" d="M141.241,211.862L141.241,211.862c-4.875,0-8.828,3.953-8.828,8.828v17.655h17.655V220.69
		C150.069,215.815,146.116,211.862,141.241,211.862z"/>
	<rect x="105.931" y="264.828" style="fill:#736F7B;" width="26.483" height="52.966"/>
	<path style="fill:#736F7B;" d="M44.138,185.379L44.138,185.379c-4.875,0-8.828,4.516-8.828,10.089V256h17.655v-60.532
		C52.966,189.896,49.013,185.379,44.138,185.379z"/>
</g>
<g>
	<path style="fill:#504B5A;" d="M208.836,234.159L195.75,103.297c-1.353-13.594-12.681-23.849-26.345-23.849H44.138
		c-14.603,0-26.483,11.88-26.483,26.483v132.414H35.31V105.931c0-4.866,3.957-8.828,8.828-8.828h125.267
		c4.552,0,8.328,3.414,8.776,7.948l13.086,130.867c1.949,19.435,2.94,39.233,2.94,58.849v23.026h17.655v-23.026
		C211.862,274.564,210.845,254.173,208.836,234.159z"/>
	<path style="fill:#504B5A;" d="M229.517,432.552H35.31c-19.501,0-35.31-15.809-35.31-35.31l0,0c0-19.501,15.809-35.31,35.31-35.31
		h194.207c19.501,0,35.31,15.809,35.31,35.31l0,0C264.828,416.743,249.018,432.552,229.517,432.552z"/>
</g>
<path style="fill:#625D6B;" d="M229.517,414.897H35.31c-9.751,0-17.655-7.904-17.655-17.655l0,0c0-9.751,7.904-17.655,17.655-17.655
	h194.207c9.751,0,17.655,7.904,17.655,17.655l0,0C247.172,406.991,239.267,414.897,229.517,414.897z"/>
<g>
	<circle style="fill:#736F7B;" cx="35.31" cy="397.241" r="17.655"/>
	<circle style="fill:#736F7B;" cx="229.517" cy="397.241" r="17.655"/>
</g>
<path style="fill:#A7A5AC;" d="M141.241,229.517h-21.027c-3.343,0-6.4,1.889-7.895,4.879l-15.215,30.431h44.138
	c4.875,0,8.828-3.953,8.828-8.828v-17.655C150.069,233.47,146.116,229.517,141.241,229.517z"/>
<path style="fill:#625D6B;" d="M114.759,317.793H17.655v-88.276l85.482,31.084c6.977,2.537,11.622,9.169,11.622,16.593V317.793z"/>
<path style="fill:#FFDC5A;" d="M211.862,344.276H26.483C11.857,344.276,0,332.419,0,317.793v-88.276
	c0-4.875,3.953-8.828,8.828-8.828h8.828c4.875,0,8.828,3.953,8.828,8.828v70.621c0,4.875,3.953,8.828,8.828,8.828h176.552
	c4.875,0,8.828,3.953,8.828,8.828v17.655C220.69,340.323,216.737,344.276,211.862,344.276z"/>
<g>
	<path style="fill:#FFC84B;" d="M326.621,167.724L326.621,167.724c-4.875,0-8.828,3.953-8.828,8.828v17.655
		c0,4.875,3.953,8.828,8.828,8.828l0,0c4.875,0,8.828-3.953,8.828-8.828v-17.655C335.448,171.677,331.496,167.724,326.621,167.724z"
		/>
	<path style="fill:#FFC84B;" d="M494.345,238.345h8.828c4.875,0,8.828-3.953,8.828-8.828v-61.793c0-4.875-3.953-8.828-8.828-8.828
		h-8.828c-4.875,0-8.828,3.953-8.828,8.828v61.793C485.517,234.392,489.469,238.345,494.345,238.345z"/>
</g>
<path style="fill:#625D6B;" d="M474.142,370.759h11.375c4.875,0,8.828,3.953,8.828,8.828v35.31c0,4.875-3.953,8.828-8.828,8.828
	h-41.071c-5.084,0-8.116-5.666-5.297-9.896l25.229-37.845C466.554,372.719,470.218,370.759,474.142,370.759z"/>
<g>
</g>
<g>
</g>
<g>
</g>
<g>
</g>
<g>
</g>
<g>
</g>
<g>
</g>
<g>
</g>
<g>
</g>
<g>
</g>
<g>
</g>
<g>
</g>
<g>
</g>
<g>
</g>
<g>
</g>
</svg>
