<?xml version="1.0" encoding="iso-8859-1"?>
<!-- Generator: Adobe Illustrator 19.0.0, SVG Export Plug-In . SVG Version: 6.00 Build 0)  -->
<svg version="1.1" id="Layer_1" xmlns="http://www.w3.org/2000/svg" xmlns:xlink="http://www.w3.org/1999/xlink" x="0px" y="0px"
	 viewBox="0 0 512.001 512.001" style="enable-background:new 0 0 512.001 512.001;" xml:space="preserve">
<rect x="233.923" y="-62.284" transform="matrix(-0.583 -0.8125 0.8125 -0.583 224.8649 490.6092)" style="fill:#8D8A94;" width="8.828" height="499.763"/>
<path style="fill:#FFC84B;" d="M434.223,36.758L319.465,195.655c-0.638,0.888-1.112,1.888-1.388,2.948l-52.966,203.034l16.552,5.94
	L449.387,45.647L434.223,36.758z M307.06,310.784l24.971-95.741l14.818,9.879L307.06,310.784z M354.361,208.712l-15.221-10.147
	l55.593-76.97L354.361,208.712z"/>
<rect x="436.966" y="41.931" style="fill:#8D8A94;" width="8.828" height="211.862"/>
<polygon style="fill:#504B5A;" points="482.759,301.38 441.379,268.272 400,301.38 394.483,294.483 441.379,256.97 488.276,294.483 
	"/>
<rect x="114.759" y="412.69" style="fill:#625D6B;" width="105.931" height="26.483"/>
<path style="fill:#FFC84B;" d="M35.31,324.414h-8.828c-4.875,0-8.828,3.953-8.828,8.828v17.655h26.483v-17.655
	C44.138,328.367,40.185,324.414,35.31,324.414z"/>
<path style="fill:#504B5A;" d="M264.828,483.311H70.621c-14.626,0-26.483-11.857-26.483-26.483l0,0
	c0-14.626,11.857-26.483,26.483-26.483h194.207c14.626,0,26.483,11.857,26.483,26.483l0,0
	C291.31,471.454,279.454,483.311,264.828,483.311z"/>
<g>
	<circle style="fill:#625D6B;" cx="70.621" cy="456.828" r="13.241"/>
	<circle style="fill:#625D6B;" cx="264.828" cy="456.828" r="13.241"/>
</g>
<path style="fill:#FFDC5A;" d="M298.778,381.448l-14.467-50.632c-1.082-3.789-4.546-6.402-8.488-6.402h-63.961
	c-4.875,0-8.828,3.953-8.828,8.828v8.828H8.828c-4.875,0-8.828,3.953-8.828,8.828v79.448c0,4.875,3.953,8.828,8.828,8.828h17.655
	c4.875,0,8.828-3.953,8.828-8.828s3.953-8.828,8.828-8.828H291.31c4.875,0,8.828-3.953,8.828-8.828v-21.54
	C300.138,387.868,299.68,384.603,298.778,381.448z"/>
<path style="fill:#FFC84B;" d="M70.621,386.207h123.586c4.875,0,8.828-3.953,8.828-8.828v-35.31H61.793v35.31
	C61.793,382.255,65.746,386.207,70.621,386.207z"/>
<g>
	<path style="fill:#504B5A;" d="M233.931,386.207h-8.828c-2.438,0-4.414-1.976-4.414-4.414v-35.31c0-2.438,1.976-4.414,4.414-4.414
		h8.828c2.438,0,4.414,1.976,4.414,4.414v35.31C238.345,384.231,236.369,386.207,233.931,386.207z"/>
	<path style="fill:#504B5A;" d="M251.586,386.207h35.126c1.898,0,4.339-1.61,3.59-4.759l-9.805-34.317
		c-0.856-2.996-3.594-5.062-6.71-5.062h-22.2c-2.438,0-4.414,1.976-4.414,4.414v35.31
		C247.172,384.231,249.149,386.207,251.586,386.207z"/>
</g>
<g>
	<circle style="fill:#625D6B;" cx="441.379" cy="41.931" r="13.241"/>
	<circle style="fill:#625D6B;" cx="441.379" cy="262.621" r="13.241"/>
	<path style="fill:#625D6B;" d="M431.17,330.655c3.448-3.448,3.448-9.034,0-12.482l-26.483-26.483
		c-3.448-3.448-9.035-3.448-12.483,0l-11.129,11.129c-11.862,11.862-13.716,30.595-4.414,44.552l17.379,26.078
		c1.698,2.552,4.5,3.932,7.353,3.932c1.681,0,3.38-0.483,4.888-1.483c4.052-2.707,5.155-8.181,2.449-12.242l-4.224-6.336
		c0.061-0.061,0.12-0.12,0.181-0.181L431.17,330.655z"/>
	<path style="fill:#625D6B;" d="M451.588,330.655c-3.448-3.448-3.448-9.034,0-12.482l26.483-26.483
		c3.448-3.448,9.035-3.448,12.483,0l11.129,11.129c11.862,11.862,13.716,30.595,4.414,44.552l-17.379,26.078
		c-1.698,2.552-4.5,3.932-7.353,3.932c-1.681,0-3.38-0.483-4.888-1.483c-4.052-2.707-5.155-8.181-2.449-12.242l4.224-6.336
		c-0.061-0.061-0.12-0.12-0.181-0.181L451.588,330.655z"/>
</g>
<circle style="fill:#504B5A;" cx="441.379" cy="324.414" r="8.828"/>
<g>
</g>
<g>
</g>
<g>
</g>
<g>
</g>
<g>
</g>
<g>
</g>
<g>
</g>
<g>
</g>
<g>
</g>
<g>
</g>
<g>
</g>
<g>
</g>
<g>
</g>
<g>
</g>
<g>
</g>
</svg>
