<?xml version="1.0" encoding="iso-8859-1"?>
<!-- Generator: Adobe Illustrator 19.0.0, SVG Export Plug-In . SVG Version: 6.00 Build 0)  -->
<svg version="1.1" id="Layer_1" xmlns="http://www.w3.org/2000/svg" xmlns:xlink="http://www.w3.org/1999/xlink" x="0px" y="0px"
	 viewBox="0 0 512 512" style="enable-background:new 0 0 512 512;" xml:space="preserve">
<path style="fill:#FFC84B;" d="M312.407,149.695H43.39v-17.356c0-4.792,3.886-8.678,8.678-8.678h251.661
	c4.792,0,8.678,3.886,8.678,8.678V149.695z"/>
<path style="fill:#FFDC5A;" d="M43.39,141.017h269.017c19.171,0,34.712,15.541,34.712,34.712v86.78
	c0,19.171-15.541,34.712-34.712,34.712H43.39c-19.171,0-34.712-15.541-34.712-34.712v-86.78
	C8.678,156.557,24.219,141.017,43.39,141.017z"/>
<path style="fill:#736F7B;" d="M412.203,331.931H17.356c-4.792,0-8.678-3.886-8.678-8.678v-17.356c0-4.792,3.886-8.678,8.678-8.678
	h394.847V331.931z"/>
<path style="fill:#625D6B;" d="M412.203,331.931H17.356v26.034c0,4.792,3.886,8.678,8.678,8.678h386.169V331.931z"/>
<path style="fill:#FFDC5A;" d="M448.012,167.051h-57.503c-4.792,0-8.678,3.886-8.678,8.678v130.17c0,4.792,3.886,8.678,8.678,8.678
	h21.695v43.39h91.119v-61.989c0-10.651-1.961-21.211-5.784-31.152l-33.327-86.649C461.633,171.474,455.193,167.051,448.012,167.051z
	"/>
<rect x="412.203" y="314.577" style="fill:#FFC84B;" width="91.119" height="43.39"/>
<circle style="fill:#EDEDEE;" cx="82.441" cy="362.305" r="39.774"/>
<path style="fill:#504B5A;" d="M82.441,410.033c-26.319,0-47.729-21.41-47.729-47.729s21.41-47.729,47.729-47.729
	s47.729,21.41,47.729,47.729S108.76,410.033,82.441,410.033z M82.441,331.931c-16.751,0-30.373,13.622-30.373,30.373
	c0,16.751,13.622,30.373,30.373,30.373s30.373-13.622,30.373-30.373C112.814,345.554,99.191,331.931,82.441,331.931z"/>
<circle style="fill:#DCDBDE;" cx="82.441" cy="362.305" r="17.356"/>
<circle style="fill:#EDEDEE;" cx="177.898" cy="362.305" r="39.774"/>
<path style="fill:#504B5A;" d="M177.898,410.033c-26.319,0-47.729-21.41-47.729-47.729s21.41-47.729,47.729-47.729
	s47.729,21.41,47.729,47.729S204.217,410.033,177.898,410.033z M177.898,331.931c-16.751,0-30.373,13.622-30.373,30.373
	c0,16.751,13.622,30.373,30.373,30.373s30.373-13.622,30.373-30.373C208.271,345.554,194.649,331.931,177.898,331.931z"/>
<circle style="fill:#DCDBDE;" cx="177.898" cy="362.305" r="17.356"/>
<circle style="fill:#EDEDEE;" cx="412.203" cy="362.305" r="39.774"/>
<path style="fill:#504B5A;" d="M412.203,410.033c-26.319,0-47.729-21.41-47.729-47.729s21.41-47.729,47.729-47.729
	s47.729,21.41,47.729,47.729S438.523,410.033,412.203,410.033z M412.203,331.931c-16.751,0-30.373,13.622-30.373,30.373
	c0,16.751,13.622,30.373,30.373,30.373c16.751,0,30.373-13.622,30.373-30.373C442.576,345.554,428.954,331.931,412.203,331.931z"/>
<circle style="fill:#DCDBDE;" cx="412.203" cy="362.305" r="17.356"/>
<path style="fill:#625D6B;" d="M494.644,366.643h8.678c4.792,0,8.678-3.886,8.678-8.678v-17.356c0-4.792-3.886-8.678-8.678-8.678
	h-8.678c-4.792,0-8.678,3.886-8.678,8.678v17.356C485.966,362.759,489.851,366.643,494.644,366.643z"/>
<path style="fill:#EDEDEE;" d="M494.644,297.221h8.678v26.034h-8.678c-4.792,0-8.678-3.886-8.678-8.678v-8.678
	C485.966,301.105,489.851,297.221,494.644,297.221z"/>
<path style="fill:#625D6B;" d="M445.39,184.407h-37.526c-4.792,0-8.678,3.886-8.678,8.678v43.39c0,4.792,3.886,8.678,8.678,8.678
	h63.681c4.4,0,7.432-4.414,5.852-8.521l-15.807-41.1C459.011,188.83,452.571,184.407,445.39,184.407z"/>
<path style="fill:#8D8A94;" d="M251.661,331.931h60.746c4.792,0,8.678,3.886,8.678,8.678v26.034c0,4.792-3.886,8.678-8.678,8.678
	h-60.746c-4.792,0-8.678-3.886-8.678-8.678v-26.034C242.983,335.817,246.869,331.931,251.661,331.931z"/>
<circle style="fill:#625D6B;" cx="260.339" cy="349.288" r="8.678"/>
<path style="fill:#8D8A94;" d="M373.153,184.407h-17.356V130.85c0-2.302-0.914-4.51-2.543-6.137l-9.203-9.203
	c-1.694-1.694-1.694-4.442,0-6.136l6.135-6.135c1.694-1.694,4.442-1.694,6.136,0l9.203,9.203c4.884,4.884,7.627,11.507,7.627,18.414
	L373.153,184.407L373.153,184.407z"/>
<path style="fill:#A7A5AC;" d="M355.797,175.729h17.356c4.792,0,8.678,3.886,8.678,8.678v121.492c0,4.792-3.886,8.678-8.678,8.678
	h-17.356c-4.792,0-8.678-3.886-8.678-8.678V184.407C347.119,179.614,351.004,175.729,355.797,175.729z"/>
<g>
	<rect x="78.102" y="141.017" style="fill:#FFC84B;" width="17.356" height="156.203"/>
	<rect x="260.339" y="141.017" style="fill:#FFC84B;" width="17.356" height="156.203"/>
</g>
<path style="fill:#A7A5AC;" d="M321.085,279.865H8.678c-4.792,0-8.678-3.886-8.678-8.678l0,0c0-4.792,3.886-8.678,8.678-8.678
	h312.407c4.792,0,8.678,3.886,8.678,8.678l0,0C329.763,275.979,325.877,279.865,321.085,279.865z"/>
<g>
</g>
<g>
</g>
<g>
</g>
<g>
</g>
<g>
</g>
<g>
</g>
<g>
</g>
<g>
</g>
<g>
</g>
<g>
</g>
<g>
</g>
<g>
</g>
<g>
</g>
<g>
</g>
<g>
</g>
</svg>
