<?xml version="1.0" encoding="iso-8859-1"?>
<!-- Generator: Adobe Illustrator 19.0.0, SVG Export Plug-In . SVG Version: 6.00 Build 0)  -->
<svg version="1.1" id="Layer_1" xmlns="http://www.w3.org/2000/svg" xmlns:xlink="http://www.w3.org/1999/xlink" x="0px" y="0px"
	 viewBox="0 0 512 512" style="enable-background:new 0 0 512 512;" xml:space="preserve">
<path style="fill:#625D6B;" d="M114.759,163.31c-1.388,0-2.698,0.655-3.534,1.768l-21.19,28.25
	c-3.983,5.317-6.173,11.904-6.173,18.533v52.966h8.828v-52.966c0-4.733,1.569-9.44,4.414-13.241l19.862-26.483h15.448v-8.828
	H114.759z"/>
<polygon style="fill:#FFDC5A;" points="124.927,171.875 80.789,242.496 95.763,251.849 139.901,181.228 "/>
<path style="fill:#FFC84B;" d="M88.276,238.345L88.276,238.345c-4.875,0-8.828,3.953-8.828,8.828v35.31h17.655v-35.31
	C97.103,242.297,93.151,238.345,88.276,238.345z"/>
<path style="fill:#625D6B;" d="M498.759,357.517h-8.828v-4.414c0-3.232-1.823-5.937-4.414-7.475v-19.008h-8.828v19.008
	c-2.591,1.538-4.414,4.243-4.414,7.475v4.414h-8.828c-7.302,0-13.241,5.94-13.241,13.241v8.828c0,2.44,1.974,4.414,4.414,4.414
	s4.414-1.974,4.414-4.414v-8.828c0-2.431,1.983-4.414,4.414-4.414h13.241v13.241c0,2.44,1.974,4.414,4.414,4.414
	s4.414-1.974,4.414-4.414v-13.241h13.241c2.431,0,4.414,1.983,4.414,4.414v8.828c0,2.44,1.974,4.414,4.414,4.414
	s4.414-1.974,4.414-4.414v-8.828C512,363.457,506.06,357.517,498.759,357.517z"/>
<path style="fill:#736F7B;" d="M489.931,357.517v-4.414c0-4.875-3.953-8.828-8.828-8.828s-8.828,3.953-8.828,8.828v4.414H489.931z"
	/>
<path id="SVGCleanerId_0" style="fill:#FFC84B;" d="M158.897,335.448h17.655c4.875,0,8.828-3.953,8.828-8.828l0,0
	c0-4.875-3.953-8.828-8.828-8.828h-17.655V335.448z"/>
<g>
	<path id="SVGCleanerId_0_1_" style="fill:#FFC84B;" d="M158.897,335.448h17.655c4.875,0,8.828-3.953,8.828-8.828l0,0
		c0-4.875-3.953-8.828-8.828-8.828h-17.655V335.448z"/>
</g>
<path style="fill:#FFDC5A;" d="M471.754,229.457l-82.56-60.043c-2.806-2.035-6.535-2.246-9.543-0.543L145.72,301.284l8.698,15.362
	l228.986-129.612l77.961,56.698c6.831,4.97,10.91,12.979,10.91,21.422v61.465c0,4.875,3.953,8.828,8.828,8.828
	s8.828-3.953,8.828-8.828v-61.465C489.931,251.082,483.134,237.737,471.754,229.457z"/>
<circle style="fill:#A7A5AC;" cx="384" cy="176.552" r="8.828"/>
<path style="fill:#625D6B;" d="M237.052,261.707c-1.725-1.725-4.518-1.725-6.241,0L169.017,323.5l6.241,6.241l61.793-61.793
	C238.775,266.223,238.775,263.431,237.052,261.707z"/>
<rect x="88.276" y="326.621" style="fill:#504B5A;" width="70.621" height="26.483"/>
<path style="fill:#625D6B;" d="M273.655,370.759H8.828c-4.875,0-8.828-3.953-8.828-8.828v-8.828c0-4.875,3.953-8.828,8.828-8.828
	h264.828c4.875,0,8.828,3.953,8.828,8.828v8.828C282.483,366.806,278.53,370.759,273.655,370.759z"/>
<circle style="fill:#504B5A;" cx="229.517" cy="370.759" r="26.483"/>
<circle style="fill:#625D6B;" cx="229.517" cy="370.759" r="13.241"/>
<circle style="fill:#504B5A;" cx="52.966" cy="370.759" r="26.483"/>
<circle style="fill:#625D6B;" cx="52.966" cy="370.759" r="13.241"/>
<g>
	<path style="fill:#504B5A;" d="M17.655,388.414V348.69c0-2.438-1.976-4.414-4.414-4.414s-4.414,1.976-4.414,4.414v39.724
		c-2.438,0-4.414,1.976-4.414,4.414s1.976,4.414,4.414,4.414h8.828c2.438,0,4.414-1.976,4.414-4.414
		C22.069,390.389,20.093,388.414,17.655,388.414z"/>
	<path style="fill:#504B5A;" d="M273.655,388.414V348.69c0-2.438-1.976-4.414-4.414-4.414c-2.438,0-4.414,1.976-4.414,4.414v39.724
		c-2.438,0-4.414,1.976-4.414,4.414s1.976,4.414,4.414,4.414h8.828c2.438,0,4.414-1.976,4.414-4.414
		C278.069,390.389,276.093,388.414,273.655,388.414z"/>
</g>
<path style="fill:#FFC84B;" d="M70.621,291.31H8.828v-26.483c0-4.875,3.953-8.828,8.828-8.828h44.138
	c4.875,0,8.828,3.953,8.828,8.828V291.31z"/>
<path style="fill:#625D6B;" d="M304.547,225.103c-1.978,0-3.776-1.336-4.276-3.345c-0.595-2.363,0.845-4.759,3.211-5.35
	l105.931-26.483c2.34-0.617,4.759,0.841,5.35,3.211c0.595,2.362-0.845,4.759-3.211,5.35L305.621,224.97
	C305.262,225.06,304.9,225.103,304.547,225.103z"/>
<path style="fill:#FFC84B;" d="M180.966,317.793h-4.414v-13.241c0-2.438-1.976-4.414-4.414-4.414h-4.414v-13.241
	c0-2.438-1.976-4.414-4.414-4.414h-39.724v52.966h52.663c0.102,0,0.201-0.011,0.302-0.014v0.014h4.414
	c2.438,0,4.414-1.976,4.414-4.414v-8.828C185.379,319.769,183.403,317.793,180.966,317.793z"/>
<path style="fill:#FFDC5A;" d="M123.586,335.448H8.828c-4.875,0-8.828-3.953-8.828-8.828v-44.138c0-4.875,3.953-8.828,8.828-8.828
	h114.759c4.875,0,8.828,3.953,8.828,8.828v44.138C132.414,331.496,128.461,335.448,123.586,335.448z"/>
<path style="fill:#FFC84B;" d="M158.897,194.207h-17.655c-9.751,0-17.655-7.904-17.655-17.655l0,0
	c0-9.751,7.904-17.655,17.655-17.655h17.655V194.207z"/>
<path style="fill:#504B5A;" d="M220.69,194.207h-79.448v-70.621c0-4.875,3.953-8.828,8.828-8.828h54.556
	c4.207,0,7.831,2.97,8.657,7.096l6.208,31.043c0.798,3.99,1.199,8.05,1.199,12.118v29.191H220.69z"/>
<path style="fill:#FFDC5A;" d="M211.862,203.034h-61.793c-4.875,0-8.828-3.953-8.828-8.828v-8.828h79.448v8.828
	C220.69,199.082,216.737,203.034,211.862,203.034z"/>
<g>
	<path style="fill:#625D6B;" d="M211.862,172.138v-7.121c0-3.488-0.344-6.967-1.028-10.388l-5.498-27.495
		c-0.413-2.063-2.225-3.549-4.328-3.549h-20.042c-2.438,0-4.414,1.976-4.414,4.414v44.138c0,2.438,1.976,4.414,4.414,4.414h26.483
		C209.886,176.552,211.862,174.575,211.862,172.138z"/>
	<path style="fill:#625D6B;" d="M154.483,176.552h8.828c2.438,0,4.414-1.976,4.414-4.414V128c0-2.438-1.976-4.414-4.414-4.414
		h-8.828c-2.438,0-4.414,1.976-4.414,4.414v44.138C150.069,174.575,152.045,176.552,154.483,176.552z"/>
</g>
<g>
</g>
<g>
</g>
<g>
</g>
<g>
</g>
<g>
</g>
<g>
</g>
<g>
</g>
<g>
</g>
<g>
</g>
<g>
</g>
<g>
</g>
<g>
</g>
<g>
</g>
<g>
</g>
<g>
</g>
</svg>
