<?xml version="1.0" encoding="iso-8859-1"?>
<!-- Generator: Adobe Illustrator 19.0.0, SVG Export Plug-In . SVG Version: 6.00 Build 0)  -->
<svg version="1.1" id="Layer_1" xmlns="http://www.w3.org/2000/svg" xmlns:xlink="http://www.w3.org/1999/xlink" x="0px" y="0px"
	 viewBox="0 0 512 512" style="enable-background:new 0 0 512 512;" xml:space="preserve">
<path style="fill:#625D6B;" d="M504.914,235.448c-1.043-0.552-1.741-1.965-1.741-3.521V220.69h-8.828v11.238
	c0,4.897,2.474,9.237,6.465,11.332c1.457,0.767,2.362,2.268,2.362,3.914c0,2.435-1.983,4.414-4.414,4.414
	c-2.431,0-4.414-1.978-4.414-4.414c0-2.44-1.974-4.414-4.414-4.414s-4.414,1.974-4.414,4.414c0,7.302,5.94,13.241,13.241,13.241
	c7.302,0,13.241-5.94,13.241-13.241C512,242.237,509.284,237.746,504.914,235.448z"/>
<rect x="158.795" y="300.134" transform="matrix(-0.8253 0.5647 -0.5647 -0.8253 647.2962 408.8375)" style="fill:#FFDC5A;" width="203.223" height="8.825"/>
<polygon style="fill:#8D8A94;" points="55,242.263 50.931,234.426 492.31,4.909 496.378,12.746 "/>
<rect x="48.552" y="238.345" style="fill:#FFC84B;" width="8.828" height="123.586"/>
<path style="fill:#FFDC5A;" d="M59.418,232.323c-3.328-3.573-8.918-3.754-12.474-0.431c-3.564,3.328-3.758,8.914-0.431,12.475
	L170.099,376.78l12.905-12.043L59.418,232.323z"/>
<rect x="494.345" y="8.828" style="fill:#504B5A;" width="8.828" height="194.207"/>
<g>
	<path style="fill:#FFC84B;" d="M498.759,229.517L498.759,229.517c-4.875,0-8.828-3.953-8.828-8.828v-17.655
		c0-4.875,3.953-8.828,8.828-8.828l0,0c4.875,0,8.828,3.953,8.828,8.828v17.655C507.586,225.565,503.634,229.517,498.759,229.517z"
		/>
	<path style="fill:#FFC84B;" d="M486.956,12.823L336.887,242.34c-0.28,0.431-0.526,0.884-0.724,1.354l-79.448,185.379l15.267,8.647
		l114.759-158.897c0.353-0.487,0.655-1.009,0.9-1.556l114.759-256L486.956,12.823z M304.34,362.763l43.625-101.79l19.389,14.542
		L304.34,362.763z M376.047,259.968l-19.854-14.891l84.384-129.055L376.047,259.968z"/>
</g>
<rect x="114.759" y="441.379" style="fill:#625D6B;" width="105.931" height="26.483"/>
<path style="fill:#504B5A;" d="M264.828,512H70.621c-14.626,0-26.483-11.857-26.483-26.483l0,0
	c0-14.626,11.857-26.483,26.483-26.483h194.207c14.626,0,26.483,11.857,26.483,26.483l0,0C291.31,500.143,279.454,512,264.828,512z"
	/>
<g>
	<circle style="fill:#625D6B;" cx="70.621" cy="485.517" r="13.241"/>
	<circle style="fill:#625D6B;" cx="264.828" cy="485.517" r="13.241"/>
</g>
<path style="fill:#FFDC5A;" d="M298.778,410.137l-14.467-50.632c-1.082-3.789-4.546-6.402-8.488-6.402h-63.961
	c-4.875,0-8.828,3.953-8.828,8.828v8.828H61.793v-17.655c0-4.875-3.953-8.828-8.828-8.828H8.828c-4.875,0-8.828,3.953-8.828,8.828
	v88.276c0,4.875,3.953,8.828,8.828,8.828H291.31c4.875,0,8.828-3.953,8.828-8.828v-21.54
	C300.138,416.557,299.68,413.292,298.778,410.137z"/>
<g>
	<path style="fill:#504B5A;" d="M233.931,414.897h-8.828c-2.438,0-4.414-1.976-4.414-4.414v-35.31c0-2.438,1.976-4.414,4.414-4.414
		h8.828c2.438,0,4.414,1.976,4.414,4.414v35.31C238.345,412.92,236.369,414.897,233.931,414.897z"/>
	<path style="fill:#504B5A;" d="M251.586,414.897h35.126c1.898,0,4.339-1.61,3.59-4.759l-9.805-34.317
		c-0.856-2.996-3.594-5.06-6.71-5.06h-22.2c-2.438,0-4.414,1.976-4.414,4.414v35.31C247.172,412.92,249.149,414.897,251.586,414.897
		z"/>
</g>
<path style="fill:#FFC84B;" d="M194.207,370.759l-1.7-5.1c-2.499-7.498-9.516-12.555-17.419-12.555h-0.014
	c-7.904,0-14.92,5.057-17.419,12.555l-1.699,5.1H61.793v52.966c0,4.875,3.953,8.828,8.828,8.828h123.586
	c4.875,0,8.828-3.953,8.828-8.828v-52.966H194.207z"/>
<circle style="fill:#736F7B;" cx="498.759" cy="13.241" r="13.241"/>
<g>
</g>
<g>
</g>
<g>
</g>
<g>
</g>
<g>
</g>
<g>
</g>
<g>
</g>
<g>
</g>
<g>
</g>
<g>
</g>
<g>
</g>
<g>
</g>
<g>
</g>
<g>
</g>
<g>
</g>
</svg>
