<?xml version="1.0" encoding="iso-8859-1"?>
<!-- Generator: Adobe Illustrator 19.0.0, SVG Export Plug-In . SVG Version: 6.00 Build 0)  -->
<svg version="1.1" id="Layer_1" xmlns="http://www.w3.org/2000/svg" xmlns:xlink="http://www.w3.org/1999/xlink" x="0px" y="0px"
	 viewBox="0 0 512 512" style="enable-background:new 0 0 512 512;" xml:space="preserve">
<path style="fill:#504B5A;" d="M85.793,260.414l156.776,95.81c1.44,0.879,3.026,1.293,4.595,1.293
	c0.002,0,0.009-33.398,0.009-33.398l-141.224-86.303c-4.158-2.541-8.936-3.885-13.81-3.885H13.363v26.483H85.793z"/>
<g>
	<circle style="fill:#625D6B;" cx="13.241" cy="247.172" r="13.241"/>
	<circle style="fill:#625D6B;" cx="92.69" cy="247.172" r="13.241"/>
</g>
<path style="fill:#645D6B;" d="M247.172,357.517h-18.827c-4.393,0-8.118-3.23-8.739-7.58l-6.305-44.138
	c-0.759-5.318,3.367-10.076,8.739-10.076h25.132V357.517z"/>
<path style="fill:#736F7B;" d="M388.414,251.586h-17.655v-80.959c0-7.026,2.791-13.763,7.758-18.731l4.534-4.534
	c1.952-1.952,5.117-1.952,7.069,0l5.414,5.414c1.952,1.952,1.952,5.117,0,7.069l-4.534,4.534c-1.656,1.656-2.586,3.902-2.586,6.243
	v80.964H388.414z"/>
<polygon style="fill:#504B5A;" points="264.828,278.069 256,278.069 256,119.172 238.345,119.172 238.345,313.379 317.793,313.379 
	317.793,278.069 "/>
<path style="fill:#FFC84B;" d="M494.345,375.172H247.172c-4.875,0-8.828-3.953-8.828-8.828v-35.31h256V375.172z"/>
<path style="fill:#FFDC5A;" d="M379.588,225.174c-1.525,0-6.339-0.02-10.556-0.038c-4.152-0.018-7.744,2.859-8.646,6.912
	l-13.039,58.678c-1.795,8.078-8.96,13.825-17.235,13.825h-91.768c-4.875,0-8.828,3.953-8.828,8.828v17.655
	c0,4.875,3.953,8.828,8.828,8.828h45.065c16.991,0,31.178,12,34.548,27.987c0.885,4.199,4.373,7.324,8.663,7.324h80.375
	c4.29,0,7.778-3.125,8.663-7.324c3.37-15.987,17.557-27.987,34.548-27.987c16.991,0,31.178,12,34.548,27.987
	c0.885,4.199,4.373,7.324,8.663,7.324h9.754c4.875,0,8.828-3.953,8.828-8.828v-70.621C512,276.384,476.69,225.174,379.588,225.174z"
	/>
<circle style="fill:#504B5A;" cx="282.483" cy="375.172" r="26.483"/>
<circle style="fill:#FFC84B;" cx="282.483" cy="375.172" r="13.241"/>
<circle style="fill:#504B5A;" cx="450.207" cy="375.172" r="26.483"/>
<circle style="fill:#FFC84B;" cx="450.207" cy="375.172" r="13.241"/>
<g>
	<path style="fill:#625D6B;" d="M317.793,286.897h-52.966c-4.875,0-8.828-3.953-8.828-8.828v-61.793
		c0-4.875,3.953-8.828,8.828-8.828s8.828,3.953,8.828,8.828v52.965h44.138c4.875,0,8.828,3.953,8.828,8.828
		S322.668,286.897,317.793,286.897z"/>
	<path style="fill:#625D6B;" d="M361.931,128H238.345c-4.875,0-8.828-3.953-8.828-8.828l0,0c0-4.875,3.953-8.828,8.828-8.828
		h123.586c4.875,0,8.828,3.953,8.828,8.828l0,0C370.759,124.047,366.806,128,361.931,128z"/>
</g>
<path style="fill:#736F7B;" d="M406.069,226.68v10.012c0,4.409,3.272,8.055,7.628,8.742c58.472,9.215,80.252,40.786,80.648,50.291
	v17.655c0,4.875,3.953,8.828,8.828,8.828H512v-26.483C512,278.269,483.064,234.976,406.069,226.68z"/>
<path style="fill:#FFC84B;" d="M397.241,357.517h-61.793c-4.875,0-8.828-3.953-8.828-8.828l0,0c0-4.875,3.953-8.828,8.828-8.828
	h61.793c4.875,0,8.828,3.953,8.828,8.828l0,0C406.069,353.565,402.116,357.517,397.241,357.517z"/>
<g>
</g>
<g>
</g>
<g>
</g>
<g>
</g>
<g>
</g>
<g>
</g>
<g>
</g>
<g>
</g>
<g>
</g>
<g>
</g>
<g>
</g>
<g>
</g>
<g>
</g>
<g>
</g>
<g>
</g>
</svg>
