<?xml version="1.0" encoding="iso-8859-1"?>
<!-- Generator: Adobe Illustrator 19.0.0, SVG Export Plug-In . SVG Version: 6.00 Build 0)  -->
<svg version="1.1" id="Layer_1" xmlns="http://www.w3.org/2000/svg" xmlns:xlink="http://www.w3.org/1999/xlink" x="0px" y="0px"
	 viewBox="0 0 512 512" style="enable-background:new 0 0 512 512;" xml:space="preserve">
<g>
	<polygon style="fill:#625D6B;" points="113.767,302.922 106.922,297.353 336.439,14.871 343.284,20.439 	"/>
	<path style="fill:#625D6B;" d="M429.879,204.552c-1.043-0.552-1.741-1.965-1.741-3.521v-11.238h-8.828v11.238
		c0,4.897,2.474,9.237,6.465,11.332c1.457,0.767,2.362,2.268,2.362,3.914c0,2.435-1.983,4.414-4.414,4.414
		c-2.431,0-4.414-1.978-4.414-4.414c0-2.44-1.974-4.414-4.414-4.414s-4.414,1.974-4.414,4.414c0,7.302,5.94,13.241,13.241,13.241
		c7.302,0,13.241-5.94,13.241-13.241C436.966,211.34,434.25,206.849,429.879,204.552z"/>
	<rect x="419.31" y="8.828" style="fill:#625D6B;" width="8.828" height="163.31"/>
</g>
<path style="fill:#FFC84B;" d="M423.724,198.621L423.724,198.621c-4.875,0-8.828-3.953-8.828-8.828v-17.655
	c0-4.875,3.953-8.828,8.828-8.828l0,0c4.875,0,8.828,3.953,8.828,8.828v17.655C432.552,194.668,428.599,198.621,423.724,198.621z"/>
<path style="fill:#736F7B;" d="M105.931,282.483L105.931,282.483c-12.189,0-22.069,9.88-22.069,22.069v13.241H128v-13.241
	C128,292.363,118.12,282.483,105.931,282.483z"/>
<path style="fill:#FFDC5A;" d="M357.517,0l-220.69,308.966H83.862v20.1c0,3.959,2.078,7.629,5.473,9.666L128,361.931v26.483h88.276
	v-35.31L392.828,0H357.517z"/>
<g>
	<rect x="128" y="388.414" style="fill:#FFC84B;" width="88.276" height="114.759"/>
	<path style="fill:#FFC84B;" d="M132.414,326.621H79.448c-2.438,0-4.414-1.976-4.414-4.414v-8.828c0-2.438,1.976-4.414,4.414-4.414
		h57.379v13.241C136.828,324.644,134.851,326.621,132.414,326.621z"/>
</g>
<path style="fill:#A7A5AC;" d="M220.69,397.241h-97.103c-2.438,0-4.414-1.976-4.414-4.414V384c0-2.438,1.976-4.414,4.414-4.414
	h97.103c2.438,0,4.414,1.976,4.414,4.414v8.828C225.103,395.265,223.127,397.241,220.69,397.241z"/>
<path style="fill:#736F7B;" d="M229.517,512H114.759c-2.438,0-4.414-1.976-4.414-4.414v-8.828c0-2.438,1.976-4.414,4.414-4.414
	h114.759c2.438,0,4.414,1.976,4.414,4.414v8.828C233.931,510.024,231.955,512,229.517,512z"/>
<path style="fill:#FFC84B;" d="M428.138,26.483h-100.83c-4.067,0-6.493-4.533-4.237-7.917l8.811-13.217
	C334.11,2.007,337.86,0,341.876,0h86.262c4.875,0,8.828,3.953,8.828,8.828v8.828C436.966,22.53,433.013,26.483,428.138,26.483z"/>
<g>
</g>
<g>
</g>
<g>
</g>
<g>
</g>
<g>
</g>
<g>
</g>
<g>
</g>
<g>
</g>
<g>
</g>
<g>
</g>
<g>
</g>
<g>
</g>
<g>
</g>
<g>
</g>
<g>
</g>
</svg>
