<?xml version="1.0" encoding="iso-8859-1"?>
<!-- Generator: Adobe Illustrator 19.0.0, SVG Export Plug-In . SVG Version: 6.00 Build 0)  -->
<svg version="1.1" id="Layer_1" xmlns="http://www.w3.org/2000/svg" xmlns:xlink="http://www.w3.org/1999/xlink" x="0px" y="0px"
	 viewBox="0 0 512 512" style="enable-background:new 0 0 512 512;" xml:space="preserve">
<path style="fill:#FFC84B;" d="M141.241,308.966L141.241,308.966c-4.875,0-8.828,3.953-8.828,8.828v17.655h17.655v-17.655
	C150.069,312.918,146.116,308.966,141.241,308.966z"/>
<rect x="185.379" y="185.379" style="fill:#8D8A94;" width="35.31" height="194.207"/>
<g>
	<rect x="185.379" style="fill:#FFC84B;" width="35.31" height="8.828"/>
	<path style="fill:#FFC84B;" d="M220.69,384h-35.31c-2.44,0-4.414-1.974-4.414-4.414s1.974-4.414,4.414-4.414h26.13l-29.578-36.966
		c-1.06-1.327-1.267-3.138-0.526-4.672c0.733-1.526,2.276-2.5,3.975-2.5h26.13l-29.578-36.966c-1.06-1.327-1.267-3.138-0.526-4.672
		c0.733-1.526,2.276-2.5,3.975-2.5h26.13l-29.578-36.966c-1.06-1.327-1.267-3.138-0.526-4.672c0.733-1.526,2.276-2.5,3.975-2.5
		h26.13l-29.578-36.966c-1.06-1.327-1.267-3.138-0.526-4.672c0.733-1.526,2.276-2.5,3.975-2.5h26.13l-29.578-36.966
		c-1.06-1.327-1.267-3.138-0.526-4.672c0.733-1.526,2.276-2.5,3.975-2.5h26.13l-29.578-36.966c-1.06-1.327-1.267-3.138-0.526-4.672
		c0.733-1.526,2.276-2.5,3.975-2.5h26.13l-29.578-36.966c-1.06-1.327-1.267-3.138-0.526-4.672c0.733-1.526,2.276-2.5,3.975-2.5
		h26.13l-29.578-36.966c-1.06-1.327-1.267-3.138-0.526-4.672c0.733-1.526,2.276-2.5,3.975-2.5h35.31c2.44,0,4.414,1.974,4.414,4.414
		s-1.974,4.414-4.414,4.414h-26.13l29.578,36.966c1.06,1.327,1.267,3.138,0.526,4.672c-0.734,1.526-2.276,2.5-3.975,2.5h-26.13
		L224.138,112c1.06,1.327,1.267,3.138,0.526,4.672c-0.734,1.526-2.276,2.5-3.975,2.5h-26.13l29.578,36.966
		c1.06,1.327,1.267,3.138,0.526,4.672c-0.734,1.526-2.276,2.5-3.975,2.5h-26.13l29.578,36.966c1.06,1.327,1.267,3.138,0.526,4.672
		c-0.734,1.526-2.276,2.5-3.975,2.5h-26.13l29.578,36.966c1.06,1.327,1.267,3.138,0.526,4.672c-0.734,1.526-2.276,2.5-3.975,2.5
		h-26.13l29.578,36.966c1.06,1.327,1.267,3.138,0.526,4.672c-0.734,1.526-2.276,2.5-3.975,2.5h-26.13l29.578,36.966
		c1.06,1.327,1.267,3.138,0.526,4.672c-0.734,1.526-2.276,2.5-3.975,2.5h-26.13l29.578,36.966c1.06,1.327,1.267,3.138,0.526,4.672
		C223.93,383.026,222.388,384,220.69,384z"/>
</g>
<rect x="200.153" y="348.68" transform="matrix(-0.3162 -0.9487 0.9487 -0.3162 1.9471 707.5887)" style="fill:#8D8A94;" width="111.659" height="8.824"/>
<g>
	<path style="fill:#FFD253;" d="M238.345,291.31h-8.828V8.828c0-4.875-3.953-8.828-8.828-8.828s-8.828,3.953-8.828,8.828v370.759
		h17.655v-70.621h8.828c4.875,0,8.828-3.953,8.828-8.828C247.172,295.262,243.22,291.31,238.345,291.31z"/>
	<path style="fill:#FFD253;" d="M185.379,0L185.379,0c4.875,0,8.828,3.953,8.828,8.828v370.759h-17.655V8.828
		C176.552,3.953,180.504,0,185.379,0z"/>
</g>
<path style="fill:#FFC84B;" d="M373.879,332.328c-1.725-1.725-4.518-1.725-6.241,0l-1.827,1.827c-2.465,2.465-3.88,5.879-3.88,9.362
	v71.38h8.828v-71.38c0-1.164,0.474-2.302,1.293-3.121l1.827-1.827C375.603,336.844,375.603,334.051,373.879,332.328z"/>
<g>
	<path style="fill:#8D8A94;" d="M322.207,361.931c-2.438,0-4.414,1.976-4.414,4.414v52.966h8.828v-52.966
		C326.621,363.907,324.644,361.931,322.207,361.931z"/>
	<path style="fill:#8D8A94;" d="M339.862,361.931c-2.438,0-4.414,1.976-4.414,4.414v52.966h8.828v-52.966
		C344.276,363.907,342.3,361.931,339.862,361.931z"/>
</g>
<path style="fill:#FFD253;" d="M282.483,406.069c0-4.875-3.953-8.828-8.828-8.828H256c-4.875,0-8.828,3.953-8.828,8.828h-17.655
	v44.138h185.379v-44.138H282.483z"/>
<g>
	<path style="fill:#FFDC5A;" d="M397.241,370.759h88.276c4.875,0,8.828,3.953,8.828,8.828v61.793H388.414v-61.793
		C388.414,374.71,392.365,370.759,397.241,370.759z"/>
	<path style="fill:#FFDC5A;" d="M238.345,450.207h-88.276v-79.448h79.448c4.875,0,8.828,3.953,8.828,8.828V450.207z"/>
</g>
<rect x="17.655" y="344.276" style="fill:#504B5A;" width="141.241" height="105.931"/>
<path style="fill:#625D6B;" d="M35.31,459.034v8.828c0,4.875,3.953,8.828,8.828,8.828h423.724c4.875,0,8.828-3.953,8.828-8.828
	v-8.828H35.31z"/>
<path style="fill:#504B5A;" d="M397.241,512H114.759c-14.626,0-26.483-11.857-26.483-26.483l0,0
	c0-14.626,11.857-26.483,26.483-26.483h282.483c14.626,0,26.483,11.857,26.483,26.483l0,0C423.724,500.143,411.868,512,397.241,512z
	"/>
<g>
	<circle style="fill:#625D6B;" cx="114.759" cy="485.517" r="13.241"/>
	<circle style="fill:#625D6B;" cx="397.241" cy="485.517" r="13.241"/>
</g>
<path style="fill:#736F7B;" d="M361.931,494.345H150.069c-4.875,0-8.828-3.953-8.828-8.828l0,0c0-4.875,3.953-8.828,8.828-8.828
	h211.862c4.875,0,8.828,3.953,8.828,8.828l0,0C370.759,490.392,366.806,494.345,361.931,494.345z"/>
<path style="fill:#FFDC5A;" d="M158.897,344.276H17.655c-4.875,0-8.828-3.953-8.828-8.828l0,0c0-4.875,3.953-8.828,8.828-8.828
	h141.241c4.875,0,8.828,3.953,8.828,8.828l0,0C167.724,340.323,163.772,344.276,158.897,344.276z"/>
<g>
	<path style="fill:#625D6B;" d="M52.966,406.069H35.31c-4.875,0-8.828-3.953-8.828-8.828v-35.31c0-4.875,3.953-8.828,8.828-8.828
		h17.655c4.875,0,8.828,3.953,8.828,8.828v35.31C61.793,402.116,57.841,406.069,52.966,406.069z"/>
	<path style="fill:#625D6B;" d="M141.241,406.069h-17.655c-4.875,0-8.828-3.953-8.828-8.828v-35.31c0-4.875,3.953-8.828,8.828-8.828
		h17.655c4.875,0,8.828,3.953,8.828,8.828v35.31C150.069,402.116,146.116,406.069,141.241,406.069z"/>
	<path style="fill:#625D6B;" d="M97.103,406.069H79.448c-4.875,0-8.828-3.953-8.828-8.828v-35.31c0-4.875,3.953-8.828,8.828-8.828
		h17.655c4.875,0,8.828,3.953,8.828,8.828v35.31C105.931,402.116,101.978,406.069,97.103,406.069z"/>
</g>
<g>
	<path style="fill:#FFDC5A;" d="M300.138,423.724h-35.31c-4.875,0-8.828,3.953-8.828,8.828v8.828h52.966v-8.828
		C308.966,427.676,305.013,423.724,300.138,423.724z"/>
	<path style="fill:#FFDC5A;" d="M361.931,423.724h-26.483c-4.875,0-8.828-3.953-8.828-8.828v-8.828c0-4.875,3.953-8.828,8.828-8.828
		h26.483c4.875,0,8.828,3.953,8.828,8.828v8.828C370.759,419.772,366.806,423.724,361.931,423.724z"/>
</g>
<g>
	<path style="fill:#FFD253;" d="M432.552,441.379h-26.483v-26.483c0-4.875,3.953-8.828,8.828-8.828h8.828
		c4.875,0,8.828,3.953,8.828,8.828V441.379z"/>
	<path style="fill:#FFD253;" d="M467.862,441.379h-26.483v-26.483c0-4.875,3.953-8.828,8.828-8.828h8.828
		c4.875,0,8.828,3.953,8.828,8.828V441.379z"/>
</g>
<path style="fill:#FFC84B;" d="M503.172,441.379h-17.655v-83.862c0-2.438-1.976-4.414-4.414-4.414s-4.414,1.976-4.414,4.414v83.862
	H8.828c-4.875,0-8.828,3.953-8.828,8.828c0,4.875,3.953,8.828,8.828,8.828h494.345c4.875,0,8.828-3.953,8.828-8.828
	C512,445.331,508.047,441.379,503.172,441.379z"/>
<g>
</g>
<g>
</g>
<g>
</g>
<g>
</g>
<g>
</g>
<g>
</g>
<g>
</g>
<g>
</g>
<g>
</g>
<g>
</g>
<g>
</g>
<g>
</g>
<g>
</g>
<g>
</g>
<g>
</g>
</svg>
