<?xml version="1.0" encoding="iso-8859-1"?>
<!-- Generator: Adobe Illustrator 19.0.0, SVG Export Plug-In . SVG Version: 6.00 Build 0)  -->
<svg version="1.1" id="Layer_1" xmlns="http://www.w3.org/2000/svg" xmlns:xlink="http://www.w3.org/1999/xlink" x="0px" y="0px"
	 viewBox="0 0 512 512" style="enable-background:new 0 0 512 512;" xml:space="preserve">
<g>
	<rect x="353.103" y="288.927" style="fill:#FFC84B;" width="97.103" height="8.828"/>
	<path style="fill:#FFC84B;" d="M417.204,227.135H264.828l-17.655,70.621h36.9c4.207,0,7.831-2.97,8.657-7.096l4.57-22.849
		c1.651-8.253,8.896-14.193,17.312-14.193H410.6c2.846,0,5.674,0.459,8.374,1.359l16.37,5.457c3.605,1.202,6.036,4.575,6.036,8.375
		v46.603h52.966v-56.836c0-8.102-5.514-15.164-13.373-17.128l-50.922-12.73C425.848,227.666,421.534,227.135,417.204,227.135z"/>
</g>
<g>
	<path style="fill:#736F7B;" d="M118.594,182.997h-7.671c-2.758,0-4.992,2.234-4.992,4.992v21.491h17.655v-21.491
		C123.586,185.232,121.351,182.997,118.594,182.997z"/>
	<path style="fill:#736F7B;" d="M158.897,210.758h-17.655v-32.934l-11.351-11.351c-2.054-2.054-2.054-5.383,0-7.435l5.047-5.047
		c2.054-2.053,5.383-2.053,7.435,0l11.352,11.352c3.311,3.311,5.171,7.801,5.171,12.484v32.93H158.897z"/>
</g>
<path style="fill:#8D8A94;" d="M70.621,235.962v-18.263c0-4.631,3.58-8.476,8.199-8.806l115.388-8.242v35.31H70.621z"/>
<path style="fill:#FFC84B;" d="M185.379,218.307l-168.166,8.408c-4.698,0.235-8.386,4.113-8.386,8.817v62.223l194.207,0.175v-79.624
	H185.379z"/>
<path style="fill:#736F7B;" d="M185.379,315.411H44.138l-37.042-7.409C2.97,307.177,0,303.554,0,299.347v-10.419
	c0-4.875,3.953-8.828,8.828-8.828h176.552V315.411z"/>
<path style="fill:#FFDC5A;" d="M248.594,315.411h-63.214V165.342h97.103l-25.196,142.775
	C256.543,312.335,252.877,315.411,248.594,315.411z"/>
<circle style="fill:#504B5A;" cx="88.276" cy="315.41" r="44.138"/>
<circle style="fill:#FFDC5A;" cx="88.276" cy="315.41" r="26.483"/>
<circle style="fill:#FFC84B;" cx="88.276" cy="315.41" r="8.828"/>
<circle style="fill:#504B5A;" cx="176.552" cy="315.41" r="44.138"/>
<circle style="fill:#FFDC5A;" cx="176.552" cy="315.41" r="26.483"/>
<circle style="fill:#FFC84B;" cx="176.552" cy="315.41" r="8.828"/>
<circle style="fill:#504B5A;" cx="467.862" cy="315.41" r="44.138"/>
<circle style="fill:#FFDC5A;" cx="467.862" cy="315.41" r="26.483"/>
<circle style="fill:#FFC84B;" cx="467.862" cy="315.41" r="8.828"/>
<path style="fill:#504B5A;" d="M265.347,262.445l17.135-97.103h-79.448v79.448c0,9.751,7.904,17.655,17.655,17.655H265.347z"/>
<g>
	<path style="fill:#625D6B;" d="M233.931,253.618H220.69c-4.875,0-8.828-3.953-8.828-8.828v-57.379c0-2.438,1.976-4.414,4.414-4.414
		h17.655c2.438,0,4.414,1.976,4.414,4.414v61.793C238.345,251.641,236.369,253.618,233.931,253.618z"/>
	<path style="fill:#625D6B;" d="M279.367,182.997h-27.78c-2.438,0-4.414,1.976-4.414,4.414v61.793c0,2.438,1.976,4.414,4.414,4.414
		h15.318L279.367,182.997z"/>
</g>
<rect x="185.379" y="174.168" style="fill:#FFC84B;" width="17.655" height="17.655"/>
<path style="fill:#FFDC5A;" d="M282.483,174.169h-97.103c-4.875,0-8.828-3.953-8.828-8.828l0,0c0-4.875,3.953-8.828,8.828-8.828
	h97.103c4.875,0,8.828,3.953,8.828,8.828l0,0C291.31,170.218,287.358,174.169,282.483,174.169z"/>
<path style="fill:#8D8A94;" d="M61.793,262.445H35.31c-4.875,0-8.828-3.953-8.828-8.828l0,0c0-4.875,3.953-8.828,8.828-8.828h26.483
	c4.875,0,8.828,3.953,8.828,8.828l0,0C70.621,258.493,66.668,262.445,61.793,262.445z"/>
<path style="fill:#FFDC5A;" d="M361.931,288.928h-17.655V182.997c0-4.875,3.953-8.828,8.828-8.828l0,0
	c4.875,0,8.828,3.953,8.828,8.828V288.928z"/>
<path style="fill:#FFC84B;" d="M361.931,310.997c0,0-8.828,26.483,0,44.138H348.69c-12.189,0-22.069-9.88-22.069-22.069l0,0
	c0-12.189,9.88-22.069,22.069-22.069H361.931z"/>
<path style="fill:#FFDC5A;" d="M361.94,359.549c-2.94,0-5.818-1.47-7.491-4.151c-10.931-17.483-1.75-40.785-0.664-43.383
	c1.879-4.5,7.06-6.616,11.543-4.75c4.491,1.87,6.621,7.026,4.759,11.518c-1.949,4.763-5.87,18.94-0.672,27.263
	c2.586,4.134,1.327,9.578-2.802,12.163C365.155,359.117,363.534,359.549,361.94,359.549z"/>
<path style="fill:#8D8A94;" d="M375.172,306.583h-13.241V280.1h-17.655v26.483h-13.241c-2.438,0-4.414,1.976-4.414,4.414
	s1.976,4.414,4.414,4.414h44.138c2.438,0,4.414-1.976,4.414-4.414S377.61,306.583,375.172,306.583z"/>
<g>
</g>
<g>
</g>
<g>
</g>
<g>
</g>
<g>
</g>
<g>
</g>
<g>
</g>
<g>
</g>
<g>
</g>
<g>
</g>
<g>
</g>
<g>
</g>
<g>
</g>
<g>
</g>
<g>
</g>
</svg>
