<?xml version="1.0" encoding="iso-8859-1"?>
<!-- Generator: Adobe Illustrator 19.0.0, SVG Export Plug-In . SVG Version: 6.00 Build 0)  -->
<svg version="1.1" id="Layer_1" xmlns="http://www.w3.org/2000/svg" xmlns:xlink="http://www.w3.org/1999/xlink" x="0px" y="0px"
	 viewBox="0 0 512 512" style="enable-background:new 0 0 512 512;" xml:space="preserve">
<path style="fill:#8D8A94;" d="M370.759,183.173h-17.655v-54.481c0-2.342-0.93-4.588-2.586-6.243l-9.362-9.362
	c-1.724-1.724-1.724-4.519,0-6.242l6.241-6.241c1.724-1.724,4.519-1.724,6.242,0l9.362,9.362c4.968,4.968,7.758,11.705,7.758,18.731
	L370.759,183.173L370.759,183.173z"/>
<path style="fill:#625D6B;" d="M410.483,306.759h-92.69v26.483H17.655c-4.875,0-8.828,3.953-8.828,8.828v17.655
	c0,4.875,3.953,8.828,8.828,8.828h392.828V306.759z"/>
<path style="fill:#DCDBDE;" d="M335.448,139.035H8.828c-4.875,0-8.828,3.953-8.828,8.828v176.552c0,4.875,3.953,8.828,8.828,8.828
	h326.621c4.875,0,8.828-3.953,8.828-8.828V147.862C344.276,142.986,340.323,139.035,335.448,139.035z"/>
<g>
	<path style="fill:#CAC9CD;" d="M317.793,315.586H26.483c-4.875,0-8.828-3.953-8.828-8.828l0,0c0-4.875,3.953-8.828,8.828-8.828
		h291.31c4.875,0,8.828,3.953,8.828,8.828l0,0C326.621,311.634,322.668,315.586,317.793,315.586z"/>
	<path style="fill:#CAC9CD;" d="M317.793,280.276H26.483c-4.875,0-8.828-3.953-8.828-8.828l0,0c0-4.875,3.953-8.828,8.828-8.828
		h291.31c4.875,0,8.828,3.953,8.828,8.828l0,0C326.621,276.324,322.668,280.276,317.793,280.276z"/>
	<path style="fill:#CAC9CD;" d="M317.793,244.966H26.483c-4.875,0-8.828-3.953-8.828-8.828l0,0c0-4.875,3.953-8.828,8.828-8.828
		h291.31c4.875,0,8.828,3.953,8.828,8.828l0,0C326.621,241.013,322.668,244.966,317.793,244.966z"/>
	<path style="fill:#CAC9CD;" d="M317.793,209.655H26.483c-4.875,0-8.828-3.953-8.828-8.828l0,0c0-4.875,3.953-8.828,8.828-8.828
		h291.31c4.875,0,8.828,3.953,8.828,8.828l0,0C326.621,205.703,322.668,209.655,317.793,209.655z"/>
	<path style="fill:#CAC9CD;" d="M317.793,174.345H26.483c-4.875,0-8.828-3.953-8.828-8.828l0,0c0-4.875,3.953-8.828,8.828-8.828
		h291.31c4.875,0,8.828,3.953,8.828,8.828l0,0C326.621,170.393,322.668,174.345,317.793,174.345z"/>
</g>
<path style="fill:#FFDC5A;" d="M446.909,165.518h-58.495c-4.875,0-8.828,3.953-8.828,8.828v132.414c0,4.875,3.953,8.828,8.828,8.828
	h22.069v44.138h92.69v-63.058c0-10.835-1.995-21.577-5.884-31.689l-33.901-88.143C460.765,170.016,454.214,165.518,446.909,165.518z
	"/>
<rect x="410.483" y="315.586" style="fill:#FFC84B;" width="92.69" height="44.138"/>
<circle style="fill:#EDEDEE;" cx="75.034" cy="364.138" r="40.46"/>
<path style="fill:#504B5A;" d="M75.034,412.689c-26.773,0-48.552-21.779-48.552-48.552c0-26.773,21.779-48.552,48.552-48.552
	s48.552,21.779,48.552,48.552C123.586,390.91,101.807,412.689,75.034,412.689z M75.034,333.241
	c-17.039,0-30.897,13.857-30.897,30.897s13.857,30.897,30.897,30.897s30.897-13.857,30.897-30.897S92.074,333.241,75.034,333.241z"
	/>
<circle style="fill:#DCDBDE;" cx="75.034" cy="364.138" r="17.655"/>
<circle style="fill:#EDEDEE;" cx="172.138" cy="364.138" r="40.46"/>
<path style="fill:#504B5A;" d="M172.138,412.689c-26.773,0-48.552-21.779-48.552-48.552c0-26.773,21.779-48.552,48.552-48.552
	s48.552,21.779,48.552,48.552C220.69,390.91,198.911,412.689,172.138,412.689z M172.138,333.241
	c-17.039,0-30.897,13.857-30.897,30.897s13.857,30.897,30.897,30.897s30.897-13.857,30.897-30.897S189.177,333.241,172.138,333.241z
	"/>
<circle style="fill:#DCDBDE;" cx="172.138" cy="364.138" r="17.655"/>
<circle style="fill:#EDEDEE;" cx="410.483" cy="364.138" r="40.46"/>
<path style="fill:#504B5A;" d="M410.483,412.689c-26.773,0-48.552-21.779-48.552-48.552c0-26.773,21.779-48.552,48.552-48.552
	s48.552,21.779,48.552,48.552C459.034,390.91,437.256,412.689,410.483,412.689z M410.483,333.241
	c-17.039,0-30.897,13.857-30.897,30.897s13.857,30.897,30.897,30.897s30.897-13.857,30.897-30.897S427.522,333.241,410.483,333.241z
	"/>
<circle style="fill:#DCDBDE;" cx="410.483" cy="364.138" r="17.655"/>
<path style="fill:#625D6B;" d="M494.345,368.551h8.828c4.875,0,8.828-3.953,8.828-8.828v-17.655c0-4.875-3.953-8.828-8.828-8.828
	h-8.828c-4.875,0-8.828,3.953-8.828,8.828v17.655C485.517,364.599,489.469,368.551,494.345,368.551z"/>
<path style="fill:#EDEDEE;" d="M494.345,297.931h8.828v26.483h-8.828c-4.875,0-8.828-3.953-8.828-8.828v-8.828
	C485.517,301.883,489.469,297.931,494.345,297.931z"/>
<path style="fill:#625D6B;" d="M444.242,183.173h-38.173c-4.875,0-8.828,3.953-8.828,8.828v44.138c0,4.875,3.953,8.828,8.828,8.828
	h64.779c4.476,0,7.56-4.49,5.953-8.668l-16.079-41.809C458.098,187.671,451.546,183.173,444.242,183.173z"/>
<path style="fill:#A7A5AC;" d="M353.103,174.345h17.655c4.875,0,8.828,3.953,8.828,8.828v123.586c0,4.875-3.953,8.828-8.828,8.828
	h-17.655c-4.875,0-8.828-3.953-8.828-8.828V183.173C344.276,178.297,348.228,174.345,353.103,174.345z"/>
<path style="fill:#8D8A94;" d="M247.172,333.241h61.793c4.875,0,8.828,3.953,8.828,8.828v26.483c0,4.875-3.953,8.828-8.828,8.828
	h-61.793c-4.875,0-8.828-3.953-8.828-8.828v-26.483C238.345,337.193,242.297,333.241,247.172,333.241z"/>
<circle style="fill:#625D6B;" cx="256" cy="350.897" r="8.828"/>
<g>
</g>
<g>
</g>
<g>
</g>
<g>
</g>
<g>
</g>
<g>
</g>
<g>
</g>
<g>
</g>
<g>
</g>
<g>
</g>
<g>
</g>
<g>
</g>
<g>
</g>
<g>
</g>
<g>
</g>
</svg>
