<?xml version="1.0" encoding="iso-8859-1"?>
<!-- Generator: Adobe Illustrator 19.0.0, SVG Export Plug-In . SVG Version: 6.00 Build 0)  -->
<svg version="1.1" id="Layer_1" xmlns="http://www.w3.org/2000/svg" xmlns:xlink="http://www.w3.org/1999/xlink" x="0px" y="0px"
	 viewBox="0 0 512 512" style="enable-background:new 0 0 512 512;" xml:space="preserve">
<path style="fill:#625D6B;" d="M368.172,73.207c-3.448-3.448-9.035-3.448-12.483,0l-6.241,6.241
	c-3.336,3.336-5.172,7.767-5.172,12.482v39.38h17.655V91.93l6.241-6.241C371.62,82.241,371.62,76.655,368.172,73.207z"/>
<path style="fill:#736F7B;" d="M361.931,123.586h-17.655c-4.875,0-8.828,3.953-8.828,8.828v97.103h35.31v-97.103
	C370.759,127.539,366.806,123.586,361.931,123.586z"/>
<path style="fill:#504B5A;" d="M326.621,230.398l-26.483-150.95H172.503c-12.946,0-23.994,9.359-26.122,22.129l-13.967,83.802
	v132.414h194.207V230.398z"/>
<path style="fill:#FFDC5A;" d="M308.966,70.621H172.5c-17.327,0-31.975,12.409-34.828,29.504l-13.965,83.801l17.414,2.905
	l13.965-83.801c1.422-8.552,8.75-14.754,17.414-14.754h136.467c4.879,0,8.828-3.953,8.828-8.828
	C317.793,74.573,313.845,70.621,308.966,70.621z"/>
<rect x="229.517" y="317.793" style="fill:#FFC84B;" width="105.931" height="35.31"/>
<path style="fill:#FFDC5A;" d="M335.448,361.931h158.897l13.919-48.716c2.478-8.675,3.736-17.654,3.736-26.676v-40.167
	c0-4.551-3.46-8.356-7.991-8.788l-167.724-15.974c-5.183-0.493-9.664,3.582-9.664,8.788v122.705
	C326.621,357.978,330.573,361.931,335.448,361.931z"/>
<g>
	<circle style="fill:#625D6B;" cx="123.586" cy="317.793" r="123.586"/>
	<circle style="fill:#625D6B;" cx="423.724" cy="370.759" r="70.621"/>
</g>
<circle style="fill:#FFDC5A;" cx="423.724" cy="370.759" r="44.138"/>
<circle style="fill:#FFC84B;" cx="423.724" cy="370.759" r="26.483"/>
<circle style="fill:#FFDC5A;" cx="123.586" cy="317.793" r="79.448"/>
<circle style="fill:#FFC84B;" cx="123.586" cy="317.793" r="52.966"/>
<circle style="fill:#625D6B;" cx="123.586" cy="317.793" r="17.655"/>
<g>
	<path style="fill:#FFC84B;" d="M256,326.621c-4.879,0-8.828-3.953-8.828-8.828c0-68.147-55.439-123.586-123.586-123.586
		c-17.181,0-33.818,3.457-49.431,10.28c-4.5,1.953-9.673-0.095-11.62-4.556c-1.956-4.47,0.086-9.673,4.552-11.625
		c17.862-7.797,36.871-11.754,56.5-11.754c77.879,0,141.241,63.362,141.241,141.241C264.828,322.668,260.879,326.621,256,326.621z"
		/>
	<path style="fill:#FFC84B;" d="M353.103,256.568v25.914c0,4.875,3.953,8.828,8.828,8.828h123.586c4.875,0,8.828-3.953,8.828-8.828
		v-18.189c0-4.662-3.625-8.52-8.277-8.81l-123.586-7.724C357.399,247.441,353.103,251.477,353.103,256.568z"/>
</g>
<g>
	<circle style="fill:#625D6B;" cx="423.724" cy="370.759" r="8.828"/>
	<path style="fill:#625D6B;" d="M285.221,282.483h21.804c5.57,0,9.749-5.097,8.657-10.559l-31.779-158.897
		c-0.825-4.126-4.448-7.096-8.657-7.096h-45.729c-4.875,0-8.828,3.953-8.828,8.828v73.369c0,2.642,1.22,5.1,3.265,6.773
		c25.186,20.604,43.932,48.719,52.772,80.951C277.79,279.73,281.199,282.483,285.221,282.483z"/>
	<path style="fill:#625D6B;" d="M203.034,169.623c0-14.806,0-41.162,0-54.867c0-4.875-3.953-8.825-8.828-8.825h-10.449
		c-4.191,0-7.798,2.957-8.62,7.066l-9.142,45.707c-0.659,3.294,1.33,6.47,4.537,7.463c8.029,2.486,15.783,5.58,23.212,9.247
		C198.037,177.533,203.034,174.408,203.034,169.623z"/>
	<path style="fill:#625D6B;" d="M485.517,291.31L485.517,291.31c4.875,0,8.828-3.953,8.828-8.828v-17.655
		c0-4.875-3.953-8.828-8.828-8.828l0,0c-4.875,0-8.828,3.953-8.828,8.828v17.655C476.69,287.358,480.641,291.31,485.517,291.31z"/>
	<path style="fill:#625D6B;" d="M459.034,291.31L459.034,291.31c4.875,0,8.828-3.953,8.828-8.828v-17.655
		c0-4.875-3.953-8.828-8.828-8.828l0,0c-4.875,0-8.828,3.953-8.828,8.828v17.655C450.207,287.358,454.158,291.31,459.034,291.31z"/>
	<path style="fill:#625D6B;" d="M432.552,291.31L432.552,291.31c4.875,0,8.828-3.953,8.828-8.828v-17.655
		c0-4.875-3.953-8.828-8.828-8.828l0,0c-4.875,0-8.828,3.953-8.828,8.828v17.655C423.724,287.358,427.676,291.31,432.552,291.31z"/>
</g>
<g>
</g>
<g>
</g>
<g>
</g>
<g>
</g>
<g>
</g>
<g>
</g>
<g>
</g>
<g>
</g>
<g>
</g>
<g>
</g>
<g>
</g>
<g>
</g>
<g>
</g>
<g>
</g>
<g>
</g>
</svg>
