<?xml version="1.0" encoding="iso-8859-1"?>
<!-- Generator: Adobe Illustrator 19.0.0, SVG Export Plug-In . SVG Version: 6.00 Build 0)  -->
<svg version="1.1" id="Layer_1" xmlns="http://www.w3.org/2000/svg" xmlns:xlink="http://www.w3.org/1999/xlink" x="0px" y="0px"
	 viewBox="0 0 512 512" style="enable-background:new 0 0 512 512;" xml:space="preserve">
<g>
	<rect x="167.724" y="150.069" style="fill:#625D6B;" width="26.483" height="35.31"/>
	<rect x="229.517" y="150.069" style="fill:#625D6B;" width="26.483" height="35.31"/>
</g>
<path style="fill:#FFDC5A;" d="M450.207,406.069H114.759c-34.127,0-61.793-27.666-61.793-61.793V238.345
	c0-34.127,27.666-61.793,61.793-61.793h335.448c34.127,0,61.793,27.666,61.793,61.793v105.931
	C512,378.403,484.334,406.069,450.207,406.069z"/>
<g>
	<rect x="114.759" y="176.552" style="fill:#FFC84B;" width="26.483" height="229.517"/>
	<rect x="423.724" y="176.552" style="fill:#FFC84B;" width="26.483" height="229.517"/>
</g>
<circle style="fill:#625D6B;" cx="70.621" cy="388.414" r="70.621"/>
<circle style="fill:#DCDBDE;" cx="70.621" cy="388.414" r="44.138"/>
<circle style="fill:#CAC9CD;" cx="70.621" cy="388.414" r="17.655"/>
<path style="fill:#A7A5AC;" d="M450.207,450.207h-26.483v-61.793c0-4.875,3.953-8.828,8.828-8.828h8.828
	c4.875,0,8.828,3.953,8.828,8.828V450.207z"/>
<g>
	<path style="fill:#736F7B;" d="M450.207,459.034h-26.483c-4.875,0-8.828-3.953-8.828-8.828l0,0c0-4.875,3.953-8.828,8.828-8.828
		h26.483c4.875,0,8.828,3.953,8.828,8.828l0,0C459.034,455.082,455.082,459.034,450.207,459.034z"/>
	<path style="fill:#736F7B;" d="M477.853,57.414l-98.306,172.034c-3.138,5.487-9.009,8.897-15.332,8.897h-37.593
		c-4.875,0-8.828,3.953-8.828,8.828c0,4.875,3.953,8.828,8.828,8.828h37.594c12.642,0,24.392-6.819,30.659-17.793l98.306-172.034
		L477.853,57.414z"/>
</g>
<path style="fill:#625D6B;" d="M476.69,79.448h26.483c4.875,0,8.828-3.953,8.828-8.828v-8.828c0-4.875-3.953-8.828-8.828-8.828
	H476.69c-4.875,0-8.828,3.953-8.828,8.828v8.828C467.862,75.496,471.814,79.448,476.69,79.448z"/>
<path style="fill:#736F7B;" d="M308.966,158.897L308.966,158.897c-4.875,0-8.828,3.953-8.828,8.828v35.31h17.655v-35.31
	C317.793,162.849,313.841,158.897,308.966,158.897z"/>
<path style="fill:#625D6B;" d="M326.621,194.207H123.586c-4.866,0-8.828-3.961-8.828-8.828v-79.448c0-4.866,3.961-8.828,8.828-8.828
	h26.483V79.448h-26.483c-14.603,0-26.483,11.88-26.483,26.483v79.448c0,14.603,11.88,26.483,26.483,26.483h203.034
	c4.875,0,8.828-3.953,8.828-8.828S331.496,194.207,326.621,194.207z"/>
<path style="fill:#FFDC5A;" d="M273.655,158.897H150.069c-4.875,0-8.828-3.953-8.828-8.828V79.448
	c0-9.751,7.904-17.655,17.655-17.655h105.931c9.751,0,17.655,7.904,17.655,17.655v70.621
	C282.483,154.944,278.53,158.897,273.655,158.897z"/>
<g>
	<path style="fill:#FFC84B;" d="M256,141.241h-88.276c-4.875,0-8.828-3.953-8.828-8.828l0,0c0-4.875,3.953-8.828,8.828-8.828H256
		c4.875,0,8.828,3.953,8.828,8.828l0,0C264.828,137.289,260.875,141.241,256,141.241z"/>
	<path style="fill:#FFC84B;" d="M256,114.759h-88.276c-4.875,0-8.828-3.953-8.828-8.828l0,0c0-4.875,3.953-8.828,8.828-8.828H256
		c4.875,0,8.828,3.953,8.828,8.828l0,0C264.828,110.806,260.875,114.759,256,114.759z"/>
</g>
<g>
</g>
<g>
</g>
<g>
</g>
<g>
</g>
<g>
</g>
<g>
</g>
<g>
</g>
<g>
</g>
<g>
</g>
<g>
</g>
<g>
</g>
<g>
</g>
<g>
</g>
<g>
</g>
<g>
</g>
</svg>
