<?xml version="1.0" encoding="iso-8859-1"?>
<!-- Generator: Adobe Illustrator 19.0.0, SVG Export Plug-In . SVG Version: 6.00 Build 0)  -->
<svg version="1.1" id="Layer_1" xmlns="http://www.w3.org/2000/svg" xmlns:xlink="http://www.w3.org/1999/xlink" x="0px" y="0px"
	 viewBox="0 0 512.001 512.001" style="enable-background:new 0 0 512.001 512.001;" xml:space="preserve">
<rect x="432.55" y="353.102" style="fill:#8D8A94;" width="35.31" height="26.483"/>
<g>
	<path style="fill:#FFC84B;" d="M423.722,344.276v8.828h-44.138v35.31h52.965c4.875,0,8.828-3.953,8.828-8.828v-35.31
		c0-4.875-3.953-8.828-8.828-8.828l0,0C427.674,335.448,423.722,339.401,423.722,344.276z"/>
	<path style="fill:#FFC84B;" d="M494.343,406.069H467.86c-4.875,0-8.828-3.953-8.828-8.828v-70.62c0-4.875,3.953-8.828,8.828-8.828
		h26.483V406.069z"/>
</g>
<path style="fill:#625D6B;" d="M242.758,185.137h-17.655v-45.648c0-7.026,2.791-13.763,7.758-18.731l4.534-4.534
	c1.952-1.952,5.117-1.952,7.069,0l5.413,5.413c1.952,1.952,1.952,5.117,0,7.069l-4.534,4.534c-1.656,1.656-2.586,3.902-2.586,6.243
	v45.654H242.758z"/>
<g>
	<path style="fill:#736F7B;" d="M242.758,167.725h-17.655c-2.438,0-4.414,1.976-4.414,4.414v66.207h26.483v-66.207
		C247.171,169.701,245.195,167.725,242.758,167.725z"/>
	<polygon style="fill:#736F7B;" points="70.62,105.932 52.965,105.932 26.483,220.69 44.138,220.69 	"/>
	<rect x="114.758" y="273.655" style="fill:#736F7B;" width="61.793" height="17.655"/>
</g>
<g>
	<path style="fill:#FFDC5A;" d="M336.325,228.723l-158.896-15.89c-5.196-0.52-9.706,3.561-9.706,8.783v96.176h176.551v-80.287
		C344.274,232.972,340.837,229.175,336.325,228.723z"/>
	<path style="fill:#FFDC5A;" d="M89.789,211.863H26.483c-4.875,0-8.828,3.953-8.828,8.828v61.793c0,4.875,3.953,8.828,8.828,8.828
		h88.275c4.875,0,8.828-3.953,8.828-8.828v-36.824c0-4.683-1.86-9.173-5.171-12.484l-16.141-16.14
		C98.962,213.723,94.472,211.863,89.789,211.863z"/>
</g>
<path style="fill:#FFC84B;" d="M203.034,291.311H52.965v26.483h158.896v-17.655C211.861,295.263,207.909,291.311,203.034,291.311z"
	/>
<path style="fill:#625D6B;" d="M335.447,414.896H52.965C23.713,414.896,0,391.183,0,361.931l0,0
	c0-29.252,23.713-52.965,52.965-52.965h282.482c29.252,0,52.965,23.713,52.965,52.965l0,0
	C388.412,391.183,364.698,414.896,335.447,414.896z"/>
<rect x="52.965" y="326.62" style="fill:#736F7B;" width="282.482" height="70.62"/>
<g>
	<circle style="fill:#FFDC5A;" cx="194.206" cy="379.585" r="17.655"/>
	<circle style="fill:#FFDC5A;" cx="238.344" cy="379.585" r="17.655"/>
	<circle style="fill:#FFDC5A;" cx="282.482" cy="379.585" r="17.655"/>
	<circle style="fill:#FFDC5A;" cx="105.931" cy="379.585" r="17.655"/>
	<circle style="fill:#FFDC5A;" cx="150.068" cy="379.585" r="17.655"/>
	<path style="fill:#FFDC5A;" d="M247.171,370.759H141.241c-4.875,0-8.828-3.953-8.828-8.828v-17.655
		c0-4.875,3.953-8.828,8.828-8.828h105.931c4.875,0,8.828,3.953,8.828,8.828v17.655
		C255.999,366.806,252.046,370.759,247.171,370.759z"/>
	<circle style="fill:#FFDC5A;" cx="52.965" cy="361.93" r="35.31"/>
</g>
<circle style="fill:#FFC84B;" cx="52.965" cy="361.93" r="17.655"/>
<circle style="fill:#FFDC5A;" cx="335.447" cy="361.93" r="35.31"/>
<g>
	<circle style="fill:#FFC84B;" cx="335.447" cy="361.93" r="17.655"/>
	<path style="fill:#FFC84B;" d="M300.137,379.586H88.275c-4.875,0-8.828-3.953-8.828-8.828v-8.828c0-4.875,3.953-8.828,8.828-8.828
		h211.861c4.875,0,8.828,3.953,8.828,8.828v8.828C308.964,375.634,305.012,379.586,300.137,379.586z"/>
</g>
<g>
	<path style="fill:#FFDC5A;" d="M176.551,114.76H44.138c-4.875,0-8.828-3.953-8.828-8.828l0,0c0-4.875,3.953-8.828,8.828-8.828
		h132.413c4.875,0,8.828,3.953,8.828,8.828l0,0C185.379,110.807,181.426,114.76,176.551,114.76z"/>
	<path style="fill:#FFDC5A;" d="M503.161,414.896c-1.612,0-3.242-0.439-4.707-1.362c-13.224-8.354-21.767-28.608-21.767-51.604
		s8.543-43.249,21.768-51.604c4.129-2.595,9.587-1.362,12.181,2.75c2.603,4.125,1.37,9.578-2.75,12.181
		c-6.526,4.116-13.543,17.349-13.543,36.672c0,19.323,7.017,32.556,13.543,36.672c4.12,2.603,5.354,8.056,2.75,12.181
		C508.954,413.44,506.092,414.896,503.161,414.896z"/>
</g>
<path style="fill:#FFC84B;" d="M167.723,256.001c-4.875,0-8.828,3.953-8.828,8.828c0,4.875,3.953,8.828,8.828,8.828h92.689
	c2.438,0,4.414-1.976,4.414-4.414v-8.828c0-2.438-1.976-4.414-4.414-4.414H167.723z"/>
<rect x="264.826" y="260.413" style="fill:#8D8A94;" width="35.31" height="8.828"/>
<path style="fill:#FFC84B;" d="M300.137,253.709v55.257h35.31l-16.301-57.052c-0.802-2.806-3.367-4.74-6.284-4.74h-6.189
	C303.063,247.173,300.137,250.099,300.137,253.709z"/>
<g>
</g>
<g>
</g>
<g>
</g>
<g>
</g>
<g>
</g>
<g>
</g>
<g>
</g>
<g>
</g>
<g>
</g>
<g>
</g>
<g>
</g>
<g>
</g>
<g>
</g>
<g>
</g>
<g>
</g>
</svg>
