<?xml version="1.0" encoding="iso-8859-1"?>
<!-- Generator: Adobe Illustrator 19.0.0, SVG Export Plug-In . SVG Version: 6.00 Build 0)  -->
<svg version="1.1" id="Layer_1" xmlns="http://www.w3.org/2000/svg" xmlns:xlink="http://www.w3.org/1999/xlink" x="0px" y="0px"
	 viewBox="0 0 512 512" style="enable-background:new 0 0 512 512;" xml:space="preserve">
<path style="fill:#625D6B;" d="M497.894,211.161c-0.763-0.394-3.25-1.865-3.25-4.275v-76.716h-17.356v76.716
	c0,8.127,4.848,15.673,12.644,19.699c2.907,1.5,4.712,4.457,4.712,7.72c0,4.784-3.894,8.678-8.678,8.678
	c-4.784,0-8.678-3.894-8.678-8.678c0-4.792-3.886-8.678-8.678-8.678c-4.792,0-8.678,3.886-8.678,8.678
	c0,14.356,11.678,26.034,26.034,26.034S512,248.661,512,234.305C512,224.521,506.597,215.653,497.894,211.161z"/>
<path style="fill:#736F7B;" d="M485.966,147.525h-86.78v-34.712h86.78c9.586,0,17.356,7.77,17.356,17.356l0,0
	C503.322,139.755,495.551,147.525,485.966,147.525z"/>
<circle style="fill:#8D8A94;" cx="485.966" cy="130.169" r="17.356"/>
<circle style="fill:#FFC84B;" cx="485.966" cy="182.237" r="17.356"/>
<path style="fill:#FFDC5A;" d="M17.356,156.203h390.508c4.792,0,8.678-3.886,8.678-8.678v-34.712c0-4.792-3.886-8.678-8.678-8.678
	H17.356V156.203z"/>
<path style="fill:#8D8A94;" d="M8.678,199.593h8.678c4.792,0,8.678-3.886,8.678-8.678v-86.78c0-4.792-3.886-8.678-8.678-8.678H8.678
	C3.886,95.458,0,99.343,0,104.136v86.78C0,195.708,3.886,199.593,8.678,199.593z"/>
<path style="fill:#FFC84B;" d="M223.042,145.483c-5.97-4.339-13.03-6.635-20.415-6.635h-55.102c-9.585,0-17.356,7.771-17.356,17.356
	c0,9.585,7.771,17.356,17.356,17.356h55.102l90.894,66.105l20.415-28.076L223.042,145.483z"/>
<circle style="fill:#736F7B;" cx="147.525" cy="156.203" r="8.678"/>
<path style="fill:#FFDC5A;" d="M138.847,234.305H17.356c-4.792,0-8.678,3.886-8.678,8.678v78.102h204.47l-52.972-75.675
	C155.303,238.45,147.342,234.305,138.847,234.305z"/>
<path style="fill:#FFC84B;" d="M95.458,251.661H8.678v52.068h104.136v-34.712C112.814,259.431,105.042,251.661,95.458,251.661z"/>
<rect x="269.017" y="216.949" style="fill:#625D6B;" width="86.78" height="104.136"/>
<path style="fill:#736F7B;" d="M373.153,338.441H8.678c-4.792,0-8.678-3.886-8.678-8.678v-17.356c0-4.792,3.886-8.678,8.678-8.678
	h364.475V338.441z"/>
<path style="fill:#625D6B;" d="M381.831,338.441H8.678v26.034c0,4.792,3.886,8.678,8.678,8.678h364.475V338.441z"/>
<path style="fill:#FFDC5A;" d="M413.3,173.559h-57.503c-4.792,0-8.678,3.886-8.678,8.678v130.169c0,4.792,3.886,8.678,8.678,8.678
	h21.695v43.39h91.119v-61.989c0-10.651-1.961-21.211-5.784-31.152L429.5,184.684C426.921,177.982,420.481,173.559,413.3,173.559z"/>
<rect x="377.492" y="321.085" style="fill:#FFC84B;" width="91.119" height="43.39"/>
<circle style="fill:#EDEDEE;" cx="73.763" cy="368.814" r="39.774"/>
<path style="fill:#504B5A;" d="M73.763,416.542c-26.319,0-47.729-21.41-47.729-47.729s21.41-47.729,47.729-47.729
	s47.729,21.41,47.729,47.729S100.082,416.542,73.763,416.542z M73.763,338.441c-16.751,0-30.373,13.622-30.373,30.373
	c0,16.751,13.622,30.373,30.373,30.373s30.373-13.622,30.373-30.373C104.136,352.063,90.513,338.441,73.763,338.441z"/>
<circle style="fill:#DCDBDE;" cx="73.763" cy="368.814" r="17.356"/>
<circle style="fill:#EDEDEE;" cx="169.22" cy="368.814" r="39.774"/>
<path style="fill:#504B5A;" d="M169.22,416.542c-26.319,0-47.729-21.41-47.729-47.729s21.41-47.729,47.729-47.729
	s47.729,21.41,47.729,47.729S195.54,416.542,169.22,416.542z M169.22,338.441c-16.751,0-30.373,13.622-30.373,30.373
	c0,16.751,13.622,30.373,30.373,30.373s30.373-13.622,30.373-30.373C199.593,352.063,185.971,338.441,169.22,338.441z"/>
<circle style="fill:#DCDBDE;" cx="169.22" cy="368.814" r="17.356"/>
<circle style="fill:#EDEDEE;" cx="377.492" cy="368.814" r="39.774"/>
<path style="fill:#504B5A;" d="M377.492,416.542c-26.319,0-47.729-21.41-47.729-47.729s21.41-47.729,47.729-47.729
	s47.729,21.41,47.729,47.729S403.811,416.542,377.492,416.542z M377.492,338.441c-16.751,0-30.373,13.622-30.373,30.373
	c0,16.751,13.622,30.373,30.373,30.373c16.751,0,30.373-13.622,30.373-30.373C407.864,352.063,394.242,338.441,377.492,338.441z"/>
<circle style="fill:#DCDBDE;" cx="377.492" cy="368.814" r="17.356"/>
<path style="fill:#625D6B;" d="M459.932,373.153h8.678c4.792,0,8.678-3.886,8.678-8.678v-17.356c0-4.792-3.886-8.678-8.678-8.678
	h-8.678c-4.792,0-8.678,3.886-8.678,8.678v17.356C451.254,369.267,455.139,373.153,459.932,373.153z"/>
<path style="fill:#EDEDEE;" d="M459.932,303.729h8.678v26.034h-8.678c-4.792,0-8.678-3.886-8.678-8.678v-8.678
	C451.254,307.614,455.139,303.729,459.932,303.729z"/>
<path style="fill:#625D6B;" d="M410.678,190.915h-37.526c-4.792,0-8.678,3.886-8.678,8.678v43.39c0,4.792,3.886,8.678,8.678,8.678
	h63.681c4.4,0,7.432-4.414,5.852-8.521l-15.807-41.1C424.299,195.338,417.859,190.915,410.678,190.915z"/>
<path style="fill:#8D8A94;" d="M242.983,338.441h60.746c4.792,0,8.678,3.886,8.678,8.678v26.034c0,4.792-3.886,8.678-8.678,8.678
	h-60.746c-4.792,0-8.678-3.886-8.678-8.678v-26.034C234.305,342.326,238.191,338.441,242.983,338.441z"/>
<circle style="fill:#625D6B;" cx="251.661" cy="355.797" r="8.678"/>
<path style="fill:#736F7B;" d="M303.729,251.661h-43.39c-4.792,0-8.678-3.886-8.678-8.678v-34.712c0-4.792,3.886-8.678,8.678-8.678
	h43.39c14.378,0,26.034,11.656,26.034,26.034l0,0C329.763,240.005,318.107,251.661,303.729,251.661z"/>
<circle style="fill:#625D6B;" cx="303.729" cy="225.627" r="8.678"/>
<g>
	<path style="fill:#8D8A94;" d="M78.102,269.017h-43.39c-4.773,0-8.678-3.905-8.678-8.678l0,0c0-4.773,3.905-8.678,8.678-8.678
		h43.39c4.773,0,8.678,3.905,8.678,8.678l0,0C86.78,265.112,82.875,269.017,78.102,269.017z"/>
	<path style="fill:#8D8A94;" d="M78.102,295.051h-43.39c-4.773,0-8.678-3.905-8.678-8.678l0,0c0-4.773,3.905-8.678,8.678-8.678
		h43.39c4.773,0,8.678,3.905,8.678,8.678l0,0C86.78,291.146,82.875,295.051,78.102,295.051z"/>
</g>
<g>
</g>
<g>
</g>
<g>
</g>
<g>
</g>
<g>
</g>
<g>
</g>
<g>
</g>
<g>
</g>
<g>
</g>
<g>
</g>
<g>
</g>
<g>
</g>
<g>
</g>
<g>
</g>
<g>
</g>
</svg>
